solid OpenSCAD_Model
  facet normal -1 0 0
    outer loop
      vertex -25 -10.9646 -6.04929
      vertex -25 -25 17.5
      vertex -25 -6.67767 17.5
    endloop
  endfacet
  facet normal -1 0 0
    outer loop
      vertex -25 -25 -17.5
      vertex -25 -25 17.5
      vertex -25 -21.3081 -7.00775
    endloop
  endfacet
  facet normal -1 0 0
    outer loop
      vertex -25 -25 -17.5
      vertex -25 -21.3081 -7.00775
      vertex -25 -21.3081 -8.99225
    endloop
  endfacet
  facet normal -1 0 0
    outer loop
      vertex -25 -25 -17.5
      vertex -25 -21.3081 -8.99225
      vertex -25 -20.5912 -10.8427
    endloop
  endfacet
  facet normal -1 0 0
    outer loop
      vertex -25 -25 -17.5
      vertex -25 -20.5912 -10.8427
      vertex -25 -19.2542 -12.3093
    endloop
  endfacet
  facet normal -1 0 0
    outer loop
      vertex -25 -25 -17.5
      vertex -25 -19.2542 -12.3093
      vertex -25 -17.4778 -13.1939
    endloop
  endfacet
  facet normal -1 0 0
    outer loop
      vertex -25 -25 -17.5
      vertex -25 -17.4778 -13.1939
      vertex -25 -6.67767 -17.5
    endloop
  endfacet
  facet normal -1 0 0
    outer loop
      vertex -25 -13.593 -12.8339
      vertex -25 -6.67767 -17.5
      vertex -25 -15.5018 -13.377
    endloop
  endfacet
  facet normal -1 0 0
    outer loop
      vertex -25 -12.0094 -11.638
      vertex -25 -6.67767 -17.5
      vertex -25 -13.593 -12.8339
    endloop
  endfacet
  facet normal -1 0 0
    outer loop
      vertex -25 -10.6 -8
      vertex -25 -6.67767 -17.5
      vertex -25 -10.9646 -9.9507
    endloop
  endfacet
  facet normal -1 0 0
    outer loop
      vertex -25 -17.4778 -2.80614
      vertex -25 -25 17.5
      vertex -25 -15.5018 -2.62303
    endloop
  endfacet
  facet normal -1 0 0
    outer loop
      vertex -25 -12.0094 -11.638
      vertex -25 -10.9646 -9.9507
      vertex -25 -6.67767 -17.5
    endloop
  endfacet
  facet normal -1 0 0
    outer loop
      vertex -25 -15.5018 -2.62303
      vertex -25 -25 17.5
      vertex -25 -13.593 -3.16612
    endloop
  endfacet
  facet normal -1 0 0
    outer loop
      vertex -25 -6.67767 -17.5
      vertex -25 -10.6 -8
      vertex -25 -6.67767 17.5
    endloop
  endfacet
  facet normal -1 0 0
    outer loop
      vertex -25 -12.0094 -4.36204
      vertex -25 -25 17.5
      vertex -25 -10.9646 -6.04929
    endloop
  endfacet
  facet normal -1 0 0
    outer loop
      vertex -25 -10.6 -8
      vertex -25 -10.9646 -6.04929
      vertex -25 -6.67767 17.5
    endloop
  endfacet
  facet normal -1 0 0
    outer loop
      vertex -25 -13.593 -3.16612
      vertex -25 -25 17.5
      vertex -25 -12.0094 -4.36204
    endloop
  endfacet
  facet normal -1 0 0
    outer loop
      vertex -25 -19.2542 -3.69071
      vertex -25 -25 17.5
      vertex -25 -17.4778 -2.80614
    endloop
  endfacet
  facet normal -1 0 0
    outer loop
      vertex -25 -20.5912 -5.15727
      vertex -25 -25 17.5
      vertex -25 -19.2542 -3.69071
    endloop
  endfacet
  facet normal -1 0 0
    outer loop
      vertex -25 -21.3081 -7.00775
      vertex -25 -25 17.5
      vertex -25 -20.5912 -5.15727
    endloop
  endfacet
  facet normal -1 0 0
    outer loop
      vertex -25 -15.5018 -13.377
      vertex -25 -6.67767 -17.5
      vertex -25 -17.4778 -13.1939
    endloop
  endfacet
  facet normal 0 -1 0
    outer loop
      vertex -25 -25 17.5
      vertex -25 -25 -17.5
      vertex 25 -25 -17.5
    endloop
  endfacet
  facet normal 0 -1 0
    outer loop
      vertex 11.6907 -25 4.74577
      vertex -25 -25 17.5
      vertex 25 -25 -17.5
    endloop
  endfacet
  facet normal 0 -1 0
    outer loop
      vertex 10.623 -25 8.49825
      vertex -25 -25 17.5
      vertex 10.8061 -25 6.52222
    endloop
  endfacet
  facet normal 0 -1 0
    outer loop
      vertex 11.1661 -25 10.407
      vertex -25 -25 17.5
      vertex 10.623 -25 8.49825
    endloop
  endfacet
  facet normal 0 -1 0
    outer loop
      vertex 17.9507 -25 13.0353
      vertex 19.638 -25 11.9906
      vertex 25 -25 17.5
    endloop
  endfacet
  facet normal 0 -1 0
    outer loop
      vertex 12.362 -25 11.9906
      vertex -25 -25 17.5
      vertex 11.1661 -25 10.407
    endloop
  endfacet
  facet normal 0 -1 0
    outer loop
      vertex 14.0493 -25 13.0353
      vertex -25 -25 17.5
      vertex 12.362 -25 11.9906
    endloop
  endfacet
  facet normal 0 -1 0
    outer loop
      vertex 25 -25 17.5
      vertex -25 -25 17.5
      vertex 14.0493 -25 13.0353
    endloop
  endfacet
  facet normal 0 -1 0
    outer loop
      vertex 21.377 -25 8.49825
      vertex 21.1939 -25 6.52222
      vertex 25 -25 -17.5
    endloop
  endfacet
  facet normal 0 -1 0
    outer loop
      vertex 13.1573 -25 3.40883
      vertex 11.6907 -25 4.74577
      vertex 25 -25 -17.5
    endloop
  endfacet
  facet normal 0 -1 0
    outer loop
      vertex 21.1939 -25 6.52222
      vertex 20.3093 -25 4.74577
      vertex 25 -25 -17.5
    endloop
  endfacet
  facet normal 0 -1 0
    outer loop
      vertex 25 -25 17.5
      vertex 19.638 -25 11.9906
      vertex 20.8339 -25 10.407
    endloop
  endfacet
  facet normal 0 -1 0
    outer loop
      vertex 25 -25 17.5
      vertex 21.377 -25 8.49825
      vertex 25 -25 -17.5
    endloop
  endfacet
  facet normal 0 -1 0
    outer loop
      vertex 25 -25 17.5
      vertex 20.8339 -25 10.407
      vertex 21.377 -25 8.49825
    endloop
  endfacet
  facet normal 0 -1 0
    outer loop
      vertex 20.3093 -25 4.74577
      vertex 18.8427 -25 3.40883
      vertex 25 -25 -17.5
    endloop
  endfacet
  facet normal 0 -1 0
    outer loop
      vertex 18.8427 -25 3.40883
      vertex 16.9922 -25 2.69195
      vertex 25 -25 -17.5
    endloop
  endfacet
  facet normal 0 -1 0
    outer loop
      vertex 16.9922 -25 2.69195
      vertex 15.0078 -25 2.69195
      vertex 25 -25 -17.5
    endloop
  endfacet
  facet normal 0 -1 0
    outer loop
      vertex 15.0078 -25 2.69195
      vertex 13.1573 -25 3.40883
      vertex 25 -25 -17.5
    endloop
  endfacet
  facet normal 0 -1 0
    outer loop
      vertex 10.8061 -25 6.52222
      vertex -25 -25 17.5
      vertex 11.6907 -25 4.74577
    endloop
  endfacet
  facet normal 0 -1 0
    outer loop
      vertex 14.0493 -25 13.0353
      vertex 16 -25 13.4
      vertex 25 -25 17.5
    endloop
  endfacet
  facet normal 0 -1 0
    outer loop
      vertex 16 -25 13.4
      vertex 17.9507 -25 13.0353
      vertex 25 -25 17.5
    endloop
  endfacet
  facet normal 0 0 -1
    outer loop
      vertex -25 -25 -17.5
      vertex -25 -6.67767 -17.5
      vertex 25 -25 -17.5
    endloop
  endfacet
  facet normal 0 0 -1
    outer loop
      vertex -2.30805 -2.00775 -17.5
      vertex -25 -6.67767 -17.5
      vertex 6.67767 25 -17.5
    endloop
  endfacet
  facet normal 0 0 -1
    outer loop
      vertex 24 5 -17.5
      vertex 6.67767 25 -17.5
      vertex 24 25 -17.5
    endloop
  endfacet
  facet normal 0 0 -1
    outer loop
      vertex 25 -25 -17.5
      vertex 6.67767 25 -17.5
      vertex 24 5 -17.5
    endloop
  endfacet
  facet normal 0 0 -1
    outer loop
      vertex 3.49825 -8.37696 -17.5
      vertex 25 -25 -17.5
      vertex 1.52222 -8.19386 -17.5
    endloop
  endfacet
  facet normal 0 0 -1
    outer loop
      vertex -2.30805 -3.99225 -17.5
      vertex -25 -6.67767 -17.5
      vertex -2.30805 -2.00775 -17.5
    endloop
  endfacet
  facet normal 0 0 -1
    outer loop
      vertex -1.59117 -0.157266 -17.5
      vertex -2.30805 -2.00775 -17.5
      vertex 6.67767 25 -17.5
    endloop
  endfacet
  facet normal 0 0 -1
    outer loop
      vertex -1.59117 -5.84273 -17.5
      vertex -25 -6.67767 -17.5
      vertex -2.30805 -3.99225 -17.5
    endloop
  endfacet
  facet normal 0 0 -1
    outer loop
      vertex -0.254227 -7.30929 -17.5
      vertex -25 -6.67767 -17.5
      vertex -1.59117 -5.84273 -17.5
    endloop
  endfacet
  facet normal 0 0 -1
    outer loop
      vertex 25 -25 -17.5
      vertex -25 -6.67767 -17.5
      vertex -0.254227 -7.30929 -17.5
    endloop
  endfacet
  facet normal 0 0 -1
    outer loop
      vertex 25 -25 -17.5
      vertex -0.254227 -7.30929 -17.5
      vertex 1.52222 -8.19386 -17.5
    endloop
  endfacet
  facet normal 0 0 -1
    outer loop
      vertex 5.40699 -7.83388 -17.5
      vertex 25 -25 -17.5
      vertex 3.49825 -8.37696 -17.5
    endloop
  endfacet
  facet normal 0 0 -1
    outer loop
      vertex 6.99065 0.637956 -17.5
      vertex 6.67767 25 -17.5
      vertex 8.03535 -1.0493 -17.5
    endloop
  endfacet
  facet normal 0 0 -1
    outer loop
      vertex 25 -25 -17.5
      vertex 5.40699 -7.83388 -17.5
      vertex 6.99065 -6.63796 -17.5
    endloop
  endfacet
  facet normal 0 0 -1
    outer loop
      vertex 25 -25 -17.5
      vertex 6.99065 -6.63796 -17.5
      vertex 8.03535 -4.9507 -17.5
    endloop
  endfacet
  facet normal 0 0 -1
    outer loop
      vertex 25 -25 -17.5
      vertex 8.03535 -4.9507 -17.5
      vertex 8.4 -3 -17.5
    endloop
  endfacet
  facet normal 0 0 -1
    outer loop
      vertex 25 -25 -17.5
      vertex 8.4 -3 -17.5
      vertex 6.67767 25 -17.5
    endloop
  endfacet
  facet normal 0 0 -1
    outer loop
      vertex 8.4 -3 -17.5
      vertex 8.03535 -1.0493 -17.5
      vertex 6.67767 25 -17.5
    endloop
  endfacet
  facet normal 0 0 -1
    outer loop
      vertex 5.40699 1.83388 -17.5
      vertex 6.67767 25 -17.5
      vertex 6.99065 0.637956 -17.5
    endloop
  endfacet
  facet normal 0 0 -1
    outer loop
      vertex 5.40699 1.83388 -17.5
      vertex 3.49825 2.37696 -17.5
      vertex 6.67767 25 -17.5
    endloop
  endfacet
  facet normal 0 0 -1
    outer loop
      vertex 3.49825 2.37696 -17.5
      vertex 1.52222 2.19386 -17.5
      vertex 6.67767 25 -17.5
    endloop
  endfacet
  facet normal 0 0 -1
    outer loop
      vertex 1.52222 2.19386 -17.5
      vertex -0.254227 1.30929 -17.5
      vertex 6.67767 25 -17.5
    endloop
  endfacet
  facet normal 0 0 -1
    outer loop
      vertex -0.254227 1.30929 -17.5
      vertex -1.59117 -0.157266 -17.5
      vertex 6.67767 25 -17.5
    endloop
  endfacet
  facet normal 0 0 -1
    outer loop
      vertex 25 5 -17.5
      vertex 25 -25 -17.5
      vertex 24 5 -17.5
    endloop
  endfacet
  facet normal -0.707107 0.707107 0
    outer loop
      vertex 6.67767 25 17.5
      vertex 6.67767 25 -17.5
      vertex -25 -6.67767 17.5
    endloop
  endfacet
  facet normal -0.707107 0.707107 0
    outer loop
      vertex -25 -6.67767 17.5
      vertex 6.67767 25 -17.5
      vertex -25 -6.67767 -17.5
    endloop
  endfacet
  facet normal 0 0 1
    outer loop
      vertex -25 -6.67767 17.5
      vertex -25 -25 17.5
      vertex 25 -25 17.5
    endloop
  endfacet
  facet normal 0 0 1
    outer loop
      vertex 1.52222 -8.19386 17.5
      vertex -25 -6.67767 17.5
      vertex 25 -25 17.5
    endloop
  endfacet
  facet normal 0 0 1
    outer loop
      vertex 36 25 17.5
      vertex 25 5 17.5
      vertex 36 5 17.5
    endloop
  endfacet
  facet normal 0 0 1
    outer loop
      vertex 6.67767 25 17.5
      vertex -25 -6.67767 17.5
      vertex 36 25 17.5
    endloop
  endfacet
  facet normal 0 0 1
    outer loop
      vertex -2.30805 -2.00775 17.5
      vertex -25 -6.67767 17.5
      vertex -2.30805 -3.99225 17.5
    endloop
  endfacet
  facet normal 0 0 1
    outer loop
      vertex 3.49825 -8.37696 17.5
      vertex 1.52222 -8.19386 17.5
      vertex 25 -25 17.5
    endloop
  endfacet
  facet normal 0 0 1
    outer loop
      vertex 6.99065 0.637956 17.5
      vertex 8.03535 -1.0493 17.5
      vertex 25 5 17.5
    endloop
  endfacet
  facet normal 0 0 1
    outer loop
      vertex -0.254227 1.30929 17.5
      vertex -25 -6.67767 17.5
      vertex -1.59117 -0.157266 17.5
    endloop
  endfacet
  facet normal 0 0 1
    outer loop
      vertex 36 25 17.5
      vertex -25 -6.67767 17.5
      vertex -0.254227 1.30929 17.5
    endloop
  endfacet
  facet normal 0 0 1
    outer loop
      vertex 5.40699 1.83388 17.5
      vertex 6.99065 0.637956 17.5
      vertex 25 5 17.5
    endloop
  endfacet
  facet normal 0 0 1
    outer loop
      vertex 36 25 17.5
      vertex -0.254227 1.30929 17.5
      vertex 1.52222 2.19386 17.5
    endloop
  endfacet
  facet normal 0 0 1
    outer loop
      vertex 36 25 17.5
      vertex 3.49825 2.37696 17.5
      vertex 25 5 17.5
    endloop
  endfacet
  facet normal 0 0 1
    outer loop
      vertex 3.49825 2.37696 17.5
      vertex 5.40699 1.83388 17.5
      vertex 25 5 17.5
    endloop
  endfacet
  facet normal 0 0 1
    outer loop
      vertex 1.52222 2.19386 17.5
      vertex 3.49825 2.37696 17.5
      vertex 36 25 17.5
    endloop
  endfacet
  facet normal 0 0 1
    outer loop
      vertex 25 5 17.5
      vertex 8.03535 -1.0493 17.5
      vertex 25 -25 17.5
    endloop
  endfacet
  facet normal 0 0 1
    outer loop
      vertex 8.03535 -1.0493 17.5
      vertex 8.4 -3 17.5
      vertex 25 -25 17.5
    endloop
  endfacet
  facet normal 0 0 1
    outer loop
      vertex 8.4 -3 17.5
      vertex 8.03535 -4.9507 17.5
      vertex 25 -25 17.5
    endloop
  endfacet
  facet normal 0 0 1
    outer loop
      vertex 8.03535 -4.9507 17.5
      vertex 6.99065 -6.63796 17.5
      vertex 25 -25 17.5
    endloop
  endfacet
  facet normal 0 0 1
    outer loop
      vertex 6.99065 -6.63796 17.5
      vertex 5.40699 -7.83388 17.5
      vertex 25 -25 17.5
    endloop
  endfacet
  facet normal 0 0 1
    outer loop
      vertex 5.40699 -7.83388 17.5
      vertex 3.49825 -8.37696 17.5
      vertex 25 -25 17.5
    endloop
  endfacet
  facet normal 0 0 1
    outer loop
      vertex -0.254227 -7.30929 17.5
      vertex -25 -6.67767 17.5
      vertex 1.52222 -8.19386 17.5
    endloop
  endfacet
  facet normal 0 0 1
    outer loop
      vertex -1.59117 -5.84273 17.5
      vertex -25 -6.67767 17.5
      vertex -0.254227 -7.30929 17.5
    endloop
  endfacet
  facet normal 0 0 1
    outer loop
      vertex -2.30805 -3.99225 17.5
      vertex -25 -6.67767 17.5
      vertex -1.59117 -5.84273 17.5
    endloop
  endfacet
  facet normal 0 0 1
    outer loop
      vertex -2.30805 -2.00775 17.5
      vertex -1.59117 -0.157266 17.5
      vertex -25 -6.67767 17.5
    endloop
  endfacet
  facet normal 4.93038e-032 1 2.22045e-016
    outer loop
      vertex 25 -21.3081 -8.99225
      vertex -25 -21.3081 -8.99225
      vertex 25 -21.3081 -7.00775
    endloop
  endfacet
  facet normal 4.93038e-032 1 2.22045e-016
    outer loop
      vertex 25 -21.3081 -7.00775
      vertex -25 -21.3081 -8.99225
      vertex -25 -21.3081 -7.00775
    endloop
  endfacet
  facet normal -8.02117e-017 0.932472 -0.361241
    outer loop
      vertex 25 -20.5912 -5.15727
      vertex 25 -21.3081 -7.00775
      vertex -25 -20.5912 -5.15727
    endloop
  endfacet
  facet normal -8.02117e-017 0.932472 -0.361241
    outer loop
      vertex -25 -20.5912 -5.15727
      vertex 25 -21.3081 -7.00775
      vertex -25 -21.3081 -7.00775
    endloop
  endfacet
  facet normal -1.49591e-016 0.739009 -0.673696
    outer loop
      vertex 25 -19.2542 -3.69071
      vertex 25 -20.5912 -5.15727
      vertex -25 -19.2542 -3.69071
    endloop
  endfacet
  facet normal -1.49591e-016 0.739009 -0.673696
    outer loop
      vertex -25 -19.2542 -3.69071
      vertex 25 -20.5912 -5.15727
      vertex -25 -20.5912 -5.15727
    endloop
  endfacet
  facet normal -1.98766e-016 0.445738 -0.895163
    outer loop
      vertex 25 -17.4778 -2.80614
      vertex 25 -19.2542 -3.69071
      vertex -25 -17.4778 -2.80614
    endloop
  endfacet
  facet normal -1.98766e-016 0.445738 -0.895163
    outer loop
      vertex -25 -17.4778 -2.80614
      vertex 25 -19.2542 -3.69071
      vertex -25 -19.2542 -3.69071
    endloop
  endfacet
  facet normal -2.21097e-016 0.0922688 -0.995734
    outer loop
      vertex 25 -15.5018 -2.62304
      vertex 25 -17.4778 -2.80614
      vertex -25 -15.5018 -2.62303
    endloop
  endfacet
  facet normal -2.21097e-016 0.0922688 -0.995734
    outer loop
      vertex -25 -15.5018 -2.62303
      vertex 25 -17.4778 -2.80614
      vertex -25 -17.4778 -2.80614
    endloop
  endfacet
  facet normal -2.13568e-016 -0.273663 -0.961826
    outer loop
      vertex 25 -13.593 -3.16612
      vertex 25 -15.5018 -2.62304
      vertex -25 -13.593 -3.16612
    endloop
  endfacet
  facet normal -2.13568e-016 -0.273663 -0.961826
    outer loop
      vertex -25 -13.593 -3.16612
      vertex 25 -15.5018 -2.62304
      vertex -25 -15.5018 -2.62303
    endloop
  endfacet
  facet normal -1.77195e-016 -0.602635 -0.798017
    outer loop
      vertex 25 -12.0094 -4.36204
      vertex 25 -13.593 -3.16612
      vertex -25 -12.0094 -4.36204
    endloop
  endfacet
  facet normal -1.77195e-016 -0.602635 -0.798017
    outer loop
      vertex -25 -12.0094 -4.36204
      vertex 25 -13.593 -3.16612
      vertex -25 -13.593 -3.16612
    endloop
  endfacet
  facet normal -1.16891e-016 -0.850217 -0.526432
    outer loop
      vertex -25 -10.9646 -6.04929
      vertex 25 -10.9646 -6.0493
      vertex 25 -12.0094 -4.36204
    endloop
  endfacet
  facet normal -1.16891e-016 -0.850217 -0.526432
    outer loop
      vertex -25 -12.0094 -4.36204
      vertex -25 -10.9646 -6.04929
      vertex 25 -12.0094 -4.36204
    endloop
  endfacet
  facet normal -4.08006e-017 -0.982973 -0.18375
    outer loop
      vertex -25 -10.6 -8
      vertex 25 -10.6 -8
      vertex 25 -10.9646 -6.0493
    endloop
  endfacet
  facet normal -4.08006e-017 -0.982973 -0.18375
    outer loop
      vertex -25 -10.9646 -6.04929
      vertex -25 -10.6 -8
      vertex 25 -10.9646 -6.0493
    endloop
  endfacet
  facet normal 4.08006e-017 -0.982973 0.18375
    outer loop
      vertex 25 -10.9646 -9.95071
      vertex 25 -10.6 -8
      vertex -25 -10.6 -8
    endloop
  endfacet
  facet normal 4.08006e-017 -0.982973 0.18375
    outer loop
      vertex -25 -10.9646 -9.9507
      vertex 25 -10.9646 -9.95071
      vertex -25 -10.6 -8
    endloop
  endfacet
  facet normal 1.16891e-016 -0.850217 0.526432
    outer loop
      vertex 25 -12.0094 -11.638
      vertex 25 -10.9646 -9.95071
      vertex -25 -10.9646 -9.9507
    endloop
  endfacet
  facet normal 1.16891e-016 -0.850217 0.526432
    outer loop
      vertex -25 -12.0094 -11.638
      vertex 25 -12.0094 -11.638
      vertex -25 -10.9646 -9.9507
    endloop
  endfacet
  facet normal 1.77195e-016 -0.602635 0.798017
    outer loop
      vertex 25 -13.593 -12.8339
      vertex 25 -12.0094 -11.638
      vertex -25 -12.0094 -11.638
    endloop
  endfacet
  facet normal 1.77195e-016 -0.602635 0.798017
    outer loop
      vertex -25 -13.593 -12.8339
      vertex 25 -13.593 -12.8339
      vertex -25 -12.0094 -11.638
    endloop
  endfacet
  facet normal 2.13568e-016 -0.273663 0.961826
    outer loop
      vertex 25 -15.5018 -13.377
      vertex 25 -13.593 -12.8339
      vertex -25 -13.593 -12.8339
    endloop
  endfacet
  facet normal 2.13568e-016 -0.273663 0.961826
    outer loop
      vertex -25 -15.5018 -13.377
      vertex 25 -15.5018 -13.377
      vertex -25 -13.593 -12.8339
    endloop
  endfacet
  facet normal 2.21097e-016 0.0922688 0.995734
    outer loop
      vertex 25 -17.4778 -13.1939
      vertex 25 -15.5018 -13.377
      vertex -25 -15.5018 -13.377
    endloop
  endfacet
  facet normal 2.21097e-016 0.0922688 0.995734
    outer loop
      vertex -25 -17.4778 -13.1939
      vertex 25 -17.4778 -13.1939
      vertex -25 -15.5018 -13.377
    endloop
  endfacet
  facet normal 1.98766e-016 0.445738 0.895163
    outer loop
      vertex 25 -19.2542 -12.3093
      vertex 25 -17.4778 -13.1939
      vertex -25 -17.4778 -13.1939
    endloop
  endfacet
  facet normal 1.98766e-016 0.445738 0.895163
    outer loop
      vertex -25 -19.2542 -12.3093
      vertex 25 -19.2542 -12.3093
      vertex -25 -17.4778 -13.1939
    endloop
  endfacet
  facet normal 1.49591e-016 0.739009 0.673696
    outer loop
      vertex 25 -19.2542 -12.3093
      vertex -25 -19.2542 -12.3093
      vertex 25 -20.5912 -10.8427
    endloop
  endfacet
  facet normal 1.49591e-016 0.739009 0.673696
    outer loop
      vertex 25 -20.5912 -10.8427
      vertex -25 -19.2542 -12.3093
      vertex -25 -20.5912 -10.8427
    endloop
  endfacet
  facet normal 8.02117e-017 0.932472 0.361241
    outer loop
      vertex 25 -20.5912 -10.8427
      vertex -25 -20.5912 -10.8427
      vertex 25 -21.3081 -8.99225
    endloop
  endfacet
  facet normal 8.02117e-017 0.932472 0.361241
    outer loop
      vertex 25 -21.3081 -8.99225
      vertex -25 -20.5912 -10.8427
      vertex -25 -21.3081 -8.99225
    endloop
  endfacet
  facet normal 1 0 0
    outer loop
      vertex 25 -13.593 -12.8339
      vertex 25 -25 -17.5
      vertex 25 5 -17.5
    endloop
  endfacet
  facet normal 1 0 0
    outer loop
      vertex 25 5 17.5
      vertex 25 -25 17.5
      vertex 25 5 -17.5
    endloop
  endfacet
  facet normal 1 0 0
    outer loop
      vertex 25 -25 17.5
      vertex 25 -25 -17.5
      vertex 25 -21.3081 -8.99225
    endloop
  endfacet
  facet normal 1 0 0
    outer loop
      vertex 25 -12.0094 -11.638
      vertex 25 -13.593 -12.8339
      vertex 25 5 -17.5
    endloop
  endfacet
  facet normal 1 0 0
    outer loop
      vertex 25 -25 17.5
      vertex 25 -21.3081 -8.99225
      vertex 25 -21.3081 -7.00775
    endloop
  endfacet
  facet normal 1 0 0
    outer loop
      vertex 25 -10.9646 -9.95071
      vertex 25 -12.0094 -11.638
      vertex 25 5 -17.5
    endloop
  endfacet
  facet normal 1 0 0
    outer loop
      vertex 25 -25 17.5
      vertex 25 -21.3081 -7.00775
      vertex 25 -20.5912 -5.15727
    endloop
  endfacet
  facet normal 1 0 0
    outer loop
      vertex 25 -25 17.5
      vertex 25 -20.5912 -5.15727
      vertex 25 -19.2542 -3.69071
    endloop
  endfacet
  facet normal 1 0 0
    outer loop
      vertex 25 -25 17.5
      vertex 25 -19.2542 -3.69071
      vertex 25 -17.4778 -2.80614
    endloop
  endfacet
  facet normal 1 0 0
    outer loop
      vertex 25 -10.9646 -6.0493
      vertex 25 -10.6 -8
      vertex 25 5 -17.5
    endloop
  endfacet
  facet normal 1 0 0
    outer loop
      vertex 25 -25 17.5
      vertex 25 -17.4778 -2.80614
      vertex 25 -15.5018 -2.62304
    endloop
  endfacet
  facet normal 1 0 0
    outer loop
      vertex 25 -10.6 -8
      vertex 25 -10.9646 -9.95071
      vertex 25 5 -17.5
    endloop
  endfacet
  facet normal 1 0 0
    outer loop
      vertex 25 -25 17.5
      vertex 25 -15.5018 -2.62304
      vertex 25 -13.593 -3.16612
    endloop
  endfacet
  facet normal 1 0 0
    outer loop
      vertex 25 -25 17.5
      vertex 25 -12.0094 -4.36204
      vertex 25 5 -17.5
    endloop
  endfacet
  facet normal 1 0 0
    outer loop
      vertex 25 -25 17.5
      vertex 25 -13.593 -3.16612
      vertex 25 -12.0094 -4.36204
    endloop
  endfacet
  facet normal 1 0 0
    outer loop
      vertex 25 -15.5018 -13.377
      vertex 25 -25 -17.5
      vertex 25 -13.593 -12.8339
    endloop
  endfacet
  facet normal 1 0 0
    outer loop
      vertex 25 -17.4778 -13.1939
      vertex 25 -25 -17.5
      vertex 25 -15.5018 -13.377
    endloop
  endfacet
  facet normal 1 0 0
    outer loop
      vertex 25 -19.2542 -12.3093
      vertex 25 -25 -17.5
      vertex 25 -17.4778 -13.1939
    endloop
  endfacet
  facet normal 1 0 0
    outer loop
      vertex 25 -20.5912 -10.8427
      vertex 25 -25 -17.5
      vertex 25 -19.2542 -12.3093
    endloop
  endfacet
  facet normal 1 0 0
    outer loop
      vertex 25 -21.3081 -8.99225
      vertex 25 -25 -17.5
      vertex 25 -20.5912 -10.8427
    endloop
  endfacet
  facet normal 1 0 0
    outer loop
      vertex 25 -12.0094 -4.36204
      vertex 25 -10.9646 -6.0493
      vertex 25 5 -17.5
    endloop
  endfacet
  facet normal 0.995734 -2.21097e-016 0.0922688
    outer loop
      vertex 10.8061 -25 6.52222
      vertex 10.8061 25 6.52222
      vertex 10.623 25 8.49825
    endloop
  endfacet
  facet normal 0.995734 -2.21097e-016 0.0922688
    outer loop
      vertex 10.623 -25 8.49825
      vertex 10.8061 -25 6.52222
      vertex 10.623 25 8.49825
    endloop
  endfacet
  facet normal 0.895163 -1.98766e-016 0.445738
    outer loop
      vertex 11.6907 -25 4.74577
      vertex 11.6907 25 4.74577
      vertex 10.8061 25 6.52222
    endloop
  endfacet
  facet normal 0.895163 -1.98766e-016 0.445738
    outer loop
      vertex 10.8061 -25 6.52222
      vertex 11.6907 -25 4.74577
      vertex 10.8061 25 6.52222
    endloop
  endfacet
  facet normal 0.673696 -1.49591e-016 0.739009
    outer loop
      vertex 13.1573 -25 3.40883
      vertex 13.1573 25 3.40883
      vertex 11.6907 25 4.74577
    endloop
  endfacet
  facet normal 0.673696 -1.49591e-016 0.739009
    outer loop
      vertex 11.6907 -25 4.74577
      vertex 13.1573 -25 3.40883
      vertex 11.6907 25 4.74577
    endloop
  endfacet
  facet normal 0.361241 -8.02117e-017 0.932472
    outer loop
      vertex 15.0078 -25 2.69195
      vertex 15.0078 25 2.69195
      vertex 13.1573 25 3.40883
    endloop
  endfacet
  facet normal 0.361241 -8.02117e-017 0.932472
    outer loop
      vertex 13.1573 -25 3.40883
      vertex 15.0078 -25 2.69195
      vertex 13.1573 25 3.40883
    endloop
  endfacet
  facet normal 2.22045e-016 0 1
    outer loop
      vertex 16.9922 -25 2.69195
      vertex 16.9922 25 2.69195
      vertex 15.0078 25 2.69195
    endloop
  endfacet
  facet normal 2.22045e-016 0 1
    outer loop
      vertex 15.0078 -25 2.69195
      vertex 16.9922 -25 2.69195
      vertex 15.0078 25 2.69195
    endloop
  endfacet
  facet normal -0.361241 8.02117e-017 0.932472
    outer loop
      vertex 18.8427 -25 3.40883
      vertex 18.8427 25 3.40883
      vertex 16.9922 25 2.69195
    endloop
  endfacet
  facet normal -0.361241 8.02117e-017 0.932472
    outer loop
      vertex 16.9922 -25 2.69195
      vertex 18.8427 -25 3.40883
      vertex 16.9922 25 2.69195
    endloop
  endfacet
  facet normal -0.673696 1.49591e-016 0.739009
    outer loop
      vertex 20.3093 -25 4.74577
      vertex 20.3093 25 4.74577
      vertex 18.8427 25 3.40883
    endloop
  endfacet
  facet normal -0.673696 1.49591e-016 0.739009
    outer loop
      vertex 18.8427 -25 3.40883
      vertex 20.3093 -25 4.74577
      vertex 18.8427 25 3.40883
    endloop
  endfacet
  facet normal -0.895163 1.98766e-016 0.445738
    outer loop
      vertex 21.1939 25 6.52222
      vertex 20.3093 25 4.74577
      vertex 21.1939 -25 6.52222
    endloop
  endfacet
  facet normal -0.895163 1.98766e-016 0.445738
    outer loop
      vertex 21.1939 -25 6.52222
      vertex 20.3093 25 4.74577
      vertex 20.3093 -25 4.74577
    endloop
  endfacet
  facet normal -0.995734 2.21097e-016 0.0922688
    outer loop
      vertex 21.377 25 8.49825
      vertex 21.1939 25 6.52222
      vertex 21.377 -25 8.49825
    endloop
  endfacet
  facet normal -0.995734 2.21097e-016 0.0922688
    outer loop
      vertex 21.377 -25 8.49825
      vertex 21.1939 25 6.52222
      vertex 21.1939 -25 6.52222
    endloop
  endfacet
  facet normal -0.961826 2.13568e-016 -0.273663
    outer loop
      vertex 21.377 25 8.49825
      vertex 21.377 -25 8.49825
      vertex 20.8339 25 10.407
    endloop
  endfacet
  facet normal -0.961826 2.13568e-016 -0.273663
    outer loop
      vertex 20.8339 25 10.407
      vertex 21.377 -25 8.49825
      vertex 20.8339 -25 10.407
    endloop
  endfacet
  facet normal -0.798017 1.77195e-016 -0.602635
    outer loop
      vertex 20.8339 25 10.407
      vertex 20.8339 -25 10.407
      vertex 19.638 25 11.9906
    endloop
  endfacet
  facet normal -0.798017 1.77195e-016 -0.602635
    outer loop
      vertex 19.638 25 11.9906
      vertex 20.8339 -25 10.407
      vertex 19.638 -25 11.9906
    endloop
  endfacet
  facet normal -0.526432 1.16891e-016 -0.850217
    outer loop
      vertex 19.638 25 11.9906
      vertex 19.638 -25 11.9906
      vertex 17.9507 25 13.0353
    endloop
  endfacet
  facet normal -0.526432 1.16891e-016 -0.850217
    outer loop
      vertex 17.9507 25 13.0353
      vertex 19.638 -25 11.9906
      vertex 17.9507 -25 13.0353
    endloop
  endfacet
  facet normal -0.18375 4.08006e-017 -0.982973
    outer loop
      vertex 17.9507 25 13.0353
      vertex 17.9507 -25 13.0353
      vertex 16 25 13.4
    endloop
  endfacet
  facet normal -0.18375 4.08006e-017 -0.982973
    outer loop
      vertex 16 25 13.4
      vertex 17.9507 -25 13.0353
      vertex 16 -25 13.4
    endloop
  endfacet
  facet normal 0.18375 -4.08006e-017 -0.982973
    outer loop
      vertex 16 25 13.4
      vertex 16 -25 13.4
      vertex 14.0493 25 13.0353
    endloop
  endfacet
  facet normal 0.18375 -4.08006e-017 -0.982973
    outer loop
      vertex 14.0493 25 13.0353
      vertex 16 -25 13.4
      vertex 14.0493 -25 13.0353
    endloop
  endfacet
  facet normal 0.526432 -1.16891e-016 -0.850217
    outer loop
      vertex 14.0493 25 13.0353
      vertex 14.0493 -25 13.0353
      vertex 12.362 25 11.9906
    endloop
  endfacet
  facet normal 0.526432 -1.16891e-016 -0.850217
    outer loop
      vertex 12.362 25 11.9906
      vertex 14.0493 -25 13.0353
      vertex 12.362 -25 11.9906
    endloop
  endfacet
  facet normal 0.798017 -1.77195e-016 -0.602635
    outer loop
      vertex 11.1661 25 10.407
      vertex 12.362 25 11.9906
      vertex 12.362 -25 11.9906
    endloop
  endfacet
  facet normal 0.798017 -1.77195e-016 -0.602635
    outer loop
      vertex 11.1661 -25 10.407
      vertex 11.1661 25 10.407
      vertex 12.362 -25 11.9906
    endloop
  endfacet
  facet normal 0.961826 -2.13568e-016 -0.273663
    outer loop
      vertex 10.623 25 8.49825
      vertex 11.1661 25 10.407
      vertex 11.1661 -25 10.407
    endloop
  endfacet
  facet normal 0.961826 -2.13568e-016 -0.273663
    outer loop
      vertex 10.623 -25 8.49825
      vertex 10.623 25 8.49825
      vertex 11.1661 -25 10.407
    endloop
  endfacet
  facet normal 0 -1 0
    outer loop
      vertex 24 5 -17.5
      vertex 24 5 -47.5
      vertex 36 5 -47.5
    endloop
  endfacet
  facet normal 0 -1 0
    outer loop
      vertex 25 5 -17.5
      vertex 24 5 -17.5
      vertex 36 5 -47.5
    endloop
  endfacet
  facet normal 0 -1 0
    outer loop
      vertex 36 5 17.5
      vertex 25 5 -17.5
      vertex 36 5 -47.5
    endloop
  endfacet
  facet normal 0 -1 0
    outer loop
      vertex 25 5 17.5
      vertex 25 5 -17.5
      vertex 36 5 17.5
    endloop
  endfacet
  facet normal -1 0 0
    outer loop
      vertex 24 18.4358 -33.2311
      vertex 24 5 -17.5
      vertex 24 25 -17.5
    endloop
  endfacet
  facet normal -1 0 0
    outer loop
      vertex 24 5 -47.5
      vertex 24 5 -17.5
      vertex 24 9.92176 -36.5294
    endloop
  endfacet
  facet normal -1 0 0
    outer loop
      vertex 24 5 -47.5
      vertex 24 9.92176 -36.5294
      vertex 24 10.0947 -38.3957
    endloop
  endfacet
  facet normal -1 0 0
    outer loop
      vertex 24 5 -47.5
      vertex 24 10.0947 -38.3957
      vertex 24 10.9301 -40.0734
    endloop
  endfacet
  facet normal -1 0 0
    outer loop
      vertex 24 5 -47.5
      vertex 24 10.9301 -40.0734
      vertex 24 12.3152 -41.3361
    endloop
  endfacet
  facet normal -1 0 0
    outer loop
      vertex 24 5 -47.5
      vertex 24 12.3152 -41.3361
      vertex 24 25 -47.5
    endloop
  endfacet
  facet normal -1 0 0
    outer loop
      vertex 24 12.3152 -41.3361
      vertex 24 14.0629 -42.0132
      vertex 24 25 -47.5
    endloop
  endfacet
  facet normal -1 0 0
    outer loop
      vertex 24 17.6848 -41.3361
      vertex 24 25 -47.5
      vertex 24 15.9371 -42.0132
    endloop
  endfacet
  facet normal -1 0 0
    outer loop
      vertex 24 19.9053 -38.3957
      vertex 24 25 -47.5
      vertex 24 19.0699 -40.0734
    endloop
  endfacet
  facet normal -1 0 0
    outer loop
      vertex 24 11.5642 -33.2311
      vertex 24 5 -17.5
      vertex 24 13.1577 -32.2444
    endloop
  endfacet
  facet normal -1 0 0
    outer loop
      vertex 24 17.6848 -41.3361
      vertex 24 19.0699 -40.0734
      vertex 24 25 -47.5
    endloop
  endfacet
  facet normal -1 0 0
    outer loop
      vertex 24 13.1577 -32.2444
      vertex 24 5 -17.5
      vertex 24 15 -31.9
    endloop
  endfacet
  facet normal -1 0 0
    outer loop
      vertex 24 25 -47.5
      vertex 24 19.9053 -38.3957
      vertex 24 25 -17.5
    endloop
  endfacet
  facet normal -1 0 0
    outer loop
      vertex 24 19.9053 -38.3957
      vertex 24 20.0782 -36.5294
      vertex 24 25 -17.5
    endloop
  endfacet
  facet normal -1 0 0
    outer loop
      vertex 24 15 -31.9
      vertex 24 5 -17.5
      vertex 24 16.8423 -32.2444
    endloop
  endfacet
  facet normal -1 0 0
    outer loop
      vertex 24 20.0782 -36.5294
      vertex 24 19.5653 -34.7267
      vertex 24 25 -17.5
    endloop
  endfacet
  facet normal -1 0 0
    outer loop
      vertex 24 19.5653 -34.7267
      vertex 24 18.4358 -33.2311
      vertex 24 25 -17.5
    endloop
  endfacet
  facet normal -1 0 0
    outer loop
      vertex 24 16.8423 -32.2444
      vertex 24 5 -17.5
      vertex 24 18.4358 -33.2311
    endloop
  endfacet
  facet normal -1 0 0
    outer loop
      vertex 24 10.4347 -34.7267
      vertex 24 5 -17.5
      vertex 24 11.5642 -33.2311
    endloop
  endfacet
  facet normal -1 0 0
    outer loop
      vertex 24 9.92176 -36.5294
      vertex 24 5 -17.5
      vertex 24 10.4347 -34.7267
    endloop
  endfacet
  facet normal -1 0 0
    outer loop
      vertex 24 15.9371 -42.0132
      vertex 24 25 -47.5
      vertex 24 14.0629 -42.0132
    endloop
  endfacet
  facet normal 0 1 0
    outer loop
      vertex 17.9507 25 13.0353
      vertex 6.67767 25 17.5
      vertex 36 25 17.5
    endloop
  endfacet
  facet normal 0 1 0
    outer loop
      vertex 24 25 -17.5
      vertex 36 25 17.5
      vertex 36 25 -47.5
    endloop
  endfacet
  facet normal 0 1 0
    outer loop
      vertex 10.623 25 8.49825
      vertex 6.67767 25 17.5
      vertex 11.1661 25 10.407
    endloop
  endfacet
  facet normal 0 1 0
    outer loop
      vertex 21.1939 25 6.52222
      vertex 36 25 17.5
      vertex 20.3093 25 4.74577
    endloop
  endfacet
  facet normal 0 1 0
    outer loop
      vertex 6.67767 25 -17.5
      vertex 6.67767 25 17.5
      vertex 10.623 25 8.49825
    endloop
  endfacet
  facet normal 0 1 0
    outer loop
      vertex 6.67767 25 -17.5
      vertex 10.623 25 8.49825
      vertex 10.8061 25 6.52222
    endloop
  endfacet
  facet normal 0 1 0
    outer loop
      vertex 6.67767 25 -17.5
      vertex 10.8061 25 6.52222
      vertex 11.6907 25 4.74577
    endloop
  endfacet
  facet normal 0 1 0
    outer loop
      vertex 13.1573 25 3.40883
      vertex 17.9091 25 -6.03574
      vertex 11.6907 25 4.74577
    endloop
  endfacet
  facet normal 0 1 0
    outer loop
      vertex 20.2897 25 -9.02091
      vertex 15.0078 25 2.69195
      vertex 16.9922 25 2.69195
    endloop
  endfacet
  facet normal 0 1 0
    outer loop
      vertex 24 25 -17.5
      vertex 16.9922 25 2.69195
      vertex 18.8427 25 3.40883
    endloop
  endfacet
  facet normal 0 1 0
    outer loop
      vertex 24 25 -17.5
      vertex 18.8427 25 3.40883
      vertex 36 25 17.5
    endloop
  endfacet
  facet normal 0 1 0
    outer loop
      vertex 18.8427 25 3.40883
      vertex 20.3093 25 4.74577
      vertex 36 25 17.5
    endloop
  endfacet
  facet normal 0 1 0
    outer loop
      vertex 21.377 25 8.49825
      vertex 36 25 17.5
      vertex 21.1939 25 6.52222
    endloop
  endfacet
  facet normal 0 1 0
    outer loop
      vertex 17.9091 25 -13.9643
      vertex 24 25 -17.5
      vertex 16 25 -14.4
    endloop
  endfacet
  facet normal 0 1 0
    outer loop
      vertex 16 25 13.4
      vertex 6.67767 25 17.5
      vertex 17.9507 25 13.0353
    endloop
  endfacet
  facet normal 0 1 0
    outer loop
      vertex 12.362 25 11.9906
      vertex 6.67767 25 17.5
      vertex 14.0493 25 13.0353
    endloop
  endfacet
  facet normal 0 1 0
    outer loop
      vertex 21.377 25 8.49825
      vertex 20.8339 25 10.407
      vertex 36 25 17.5
    endloop
  endfacet
  facet normal 0 1 0
    outer loop
      vertex 14.0493 25 13.0353
      vertex 6.67767 25 17.5
      vertex 16 25 13.4
    endloop
  endfacet
  facet normal 0 1 0
    outer loop
      vertex 20.8339 25 10.407
      vertex 19.638 25 11.9906
      vertex 36 25 17.5
    endloop
  endfacet
  facet normal 0 1 0
    outer loop
      vertex 19.638 25 11.9906
      vertex 17.9507 25 13.0353
      vertex 36 25 17.5
    endloop
  endfacet
  facet normal 0 1 0
    outer loop
      vertex 11.1661 25 10.407
      vertex 6.67767 25 17.5
      vertex 12.362 25 11.9906
    endloop
  endfacet
  facet normal 0 1 0
    outer loop
      vertex 6.67767 25 -17.5
      vertex 11.6907 25 4.74577
      vertex 11.7103 25 -9.02091
    endloop
  endfacet
  facet normal 0 1 0
    outer loop
      vertex 6.67767 25 -17.5
      vertex 11.7103 25 -9.02091
      vertex 11.7103 25 -10.9791
    endloop
  endfacet
  facet normal 0 1 0
    outer loop
      vertex 6.67767 25 -17.5
      vertex 11.7103 25 -10.9791
      vertex 12.5599 25 -12.7434
    endloop
  endfacet
  facet normal 0 1 0
    outer loop
      vertex 17.9091 25 -6.03574
      vertex 13.1573 25 3.40883
      vertex 15.0078 25 2.69195
    endloop
  endfacet
  facet normal 0 1 0
    outer loop
      vertex 6.67767 25 -17.5
      vertex 12.5599 25 -12.7434
      vertex 14.0909 25 -13.9643
    endloop
  endfacet
  facet normal 0 1 0
    outer loop
      vertex 6.67767 25 -17.5
      vertex 14.0909 25 -13.9643
      vertex 24 25 -17.5
    endloop
  endfacet
  facet normal 0 1 0
    outer loop
      vertex 14.0909 25 -13.9643
      vertex 16 25 -14.4
      vertex 24 25 -17.5
    endloop
  endfacet
  facet normal 0 1 0
    outer loop
      vertex 19.4401 25 -12.7434
      vertex 24 25 -17.5
      vertex 17.9091 25 -13.9643
    endloop
  endfacet
  facet normal 0 1 0
    outer loop
      vertex 20.2897 25 -9.02091
      vertex 24 25 -17.5
      vertex 20.2897 25 -10.9791
    endloop
  endfacet
  facet normal 0 1 0
    outer loop
      vertex 19.4401 25 -12.7434
      vertex 20.2897 25 -10.9791
      vertex 24 25 -17.5
    endloop
  endfacet
  facet normal 0 1 0
    outer loop
      vertex 19.4401 25 -7.25664
      vertex 15.0078 25 2.69195
      vertex 20.2897 25 -9.02091
    endloop
  endfacet
  facet normal 0 1 0
    outer loop
      vertex 24 25 -17.5
      vertex 20.2897 25 -9.02091
      vertex 16.9922 25 2.69195
    endloop
  endfacet
  facet normal 0 1 0
    outer loop
      vertex 17.9091 25 -6.03574
      vertex 15.0078 25 2.69195
      vertex 19.4401 25 -7.25664
    endloop
  endfacet
  facet normal 0 1 0
    outer loop
      vertex 14.0909 25 -6.03574
      vertex 11.6907 25 4.74577
      vertex 16 25 -5.6
    endloop
  endfacet
  facet normal 0 1 0
    outer loop
      vertex 12.5599 25 -7.25665
      vertex 11.6907 25 4.74577
      vertex 14.0909 25 -6.03574
    endloop
  endfacet
  facet normal 0 1 0
    outer loop
      vertex 11.7103 25 -9.02091
      vertex 11.6907 25 4.74577
      vertex 12.5599 25 -7.25665
    endloop
  endfacet
  facet normal 0 1 0
    outer loop
      vertex 24 25 -17.5
      vertex 36 25 -47.5
      vertex 24 25 -47.5
    endloop
  endfacet
  facet normal 0 1 0
    outer loop
      vertex 16 25 -5.6
      vertex 11.6907 25 4.74577
      vertex 17.9091 25 -6.03574
    endloop
  endfacet
  facet normal 1 0 0
    outer loop
      vertex -2.30805 -2.00775 -17.5
      vertex -2.30805 -2.00775 17.5
      vertex -2.30805 -3.99225 17.5
    endloop
  endfacet
  facet normal 1 0 0
    outer loop
      vertex -2.30805 -3.99225 -17.5
      vertex -2.30805 -2.00775 -17.5
      vertex -2.30805 -3.99225 17.5
    endloop
  endfacet
  facet normal 0.932472 -0.361241 0
    outer loop
      vertex -1.59117 -0.157266 -17.5
      vertex -1.59117 -0.157266 17.5
      vertex -2.30805 -2.00775 17.5
    endloop
  endfacet
  facet normal 0.932472 -0.361241 0
    outer loop
      vertex -2.30805 -2.00775 -17.5
      vertex -1.59117 -0.157266 -17.5
      vertex -2.30805 -2.00775 17.5
    endloop
  endfacet
  facet normal 0.739009 -0.673696 0
    outer loop
      vertex -0.254227 1.30929 -17.5
      vertex -0.254227 1.30929 17.5
      vertex -1.59117 -0.157266 17.5
    endloop
  endfacet
  facet normal 0.739009 -0.673696 0
    outer loop
      vertex -1.59117 -0.157266 -17.5
      vertex -0.254227 1.30929 -17.5
      vertex -1.59117 -0.157266 17.5
    endloop
  endfacet
  facet normal 0.445738 -0.895163 0
    outer loop
      vertex 1.52222 2.19386 -17.5
      vertex 1.52222 2.19386 17.5
      vertex -0.254227 1.30929 17.5
    endloop
  endfacet
  facet normal 0.445738 -0.895163 0
    outer loop
      vertex -0.254227 1.30929 -17.5
      vertex 1.52222 2.19386 -17.5
      vertex -0.254227 1.30929 17.5
    endloop
  endfacet
  facet normal 0.0922688 -0.995734 0
    outer loop
      vertex 3.49825 2.37696 -17.5
      vertex 3.49825 2.37696 17.5
      vertex 1.52222 2.19386 17.5
    endloop
  endfacet
  facet normal 0.0922688 -0.995734 0
    outer loop
      vertex 1.52222 2.19386 -17.5
      vertex 3.49825 2.37696 -17.5
      vertex 1.52222 2.19386 17.5
    endloop
  endfacet
  facet normal -0.273663 -0.961826 0
    outer loop
      vertex 5.40699 1.83388 -17.5
      vertex 5.40699 1.83388 17.5
      vertex 3.49825 2.37696 17.5
    endloop
  endfacet
  facet normal -0.273663 -0.961826 0
    outer loop
      vertex 3.49825 2.37696 -17.5
      vertex 5.40699 1.83388 -17.5
      vertex 3.49825 2.37696 17.5
    endloop
  endfacet
  facet normal -0.602635 -0.798017 0
    outer loop
      vertex 6.99065 0.637956 -17.5
      vertex 6.99065 0.637956 17.5
      vertex 5.40699 1.83388 17.5
    endloop
  endfacet
  facet normal -0.602635 -0.798017 0
    outer loop
      vertex 5.40699 1.83388 -17.5
      vertex 6.99065 0.637956 -17.5
      vertex 5.40699 1.83388 17.5
    endloop
  endfacet
  facet normal -0.850217 -0.526432 0
    outer loop
      vertex 8.03535 -1.0493 17.5
      vertex 6.99065 0.637956 17.5
      vertex 8.03535 -1.0493 -17.5
    endloop
  endfacet
  facet normal -0.850217 -0.526432 0
    outer loop
      vertex 8.03535 -1.0493 -17.5
      vertex 6.99065 0.637956 17.5
      vertex 6.99065 0.637956 -17.5
    endloop
  endfacet
  facet normal -0.982973 -0.18375 0
    outer loop
      vertex 8.4 -3 17.5
      vertex 8.03535 -1.0493 17.5
      vertex 8.4 -3 -17.5
    endloop
  endfacet
  facet normal -0.982973 -0.18375 0
    outer loop
      vertex 8.4 -3 -17.5
      vertex 8.03535 -1.0493 17.5
      vertex 8.03535 -1.0493 -17.5
    endloop
  endfacet
  facet normal -0.982973 0.18375 0
    outer loop
      vertex 8.4 -3 17.5
      vertex 8.4 -3 -17.5
      vertex 8.03535 -4.9507 17.5
    endloop
  endfacet
  facet normal -0.982973 0.18375 0
    outer loop
      vertex 8.03535 -4.9507 17.5
      vertex 8.4 -3 -17.5
      vertex 8.03535 -4.9507 -17.5
    endloop
  endfacet
  facet normal -0.850217 0.526432 0
    outer loop
      vertex 8.03535 -4.9507 17.5
      vertex 8.03535 -4.9507 -17.5
      vertex 6.99065 -6.63796 17.5
    endloop
  endfacet
  facet normal -0.850217 0.526432 0
    outer loop
      vertex 6.99065 -6.63796 17.5
      vertex 8.03535 -4.9507 -17.5
      vertex 6.99065 -6.63796 -17.5
    endloop
  endfacet
  facet normal -0.602635 0.798017 0
    outer loop
      vertex 6.99065 -6.63796 17.5
      vertex 6.99065 -6.63796 -17.5
      vertex 5.40699 -7.83388 17.5
    endloop
  endfacet
  facet normal -0.602635 0.798017 0
    outer loop
      vertex 5.40699 -7.83388 17.5
      vertex 6.99065 -6.63796 -17.5
      vertex 5.40699 -7.83388 -17.5
    endloop
  endfacet
  facet normal -0.273663 0.961826 0
    outer loop
      vertex 5.40699 -7.83388 17.5
      vertex 5.40699 -7.83388 -17.5
      vertex 3.49825 -8.37696 17.5
    endloop
  endfacet
  facet normal -0.273663 0.961826 0
    outer loop
      vertex 3.49825 -8.37696 17.5
      vertex 5.40699 -7.83388 -17.5
      vertex 3.49825 -8.37696 -17.5
    endloop
  endfacet
  facet normal 0.0922688 0.995734 0
    outer loop
      vertex 3.49825 -8.37696 17.5
      vertex 3.49825 -8.37696 -17.5
      vertex 1.52222 -8.19386 17.5
    endloop
  endfacet
  facet normal 0.0922688 0.995734 0
    outer loop
      vertex 1.52222 -8.19386 17.5
      vertex 3.49825 -8.37696 -17.5
      vertex 1.52222 -8.19386 -17.5
    endloop
  endfacet
  facet normal 0.445738 0.895163 0
    outer loop
      vertex 1.52222 -8.19386 17.5
      vertex 1.52222 -8.19386 -17.5
      vertex -0.254227 -7.30929 17.5
    endloop
  endfacet
  facet normal 0.445738 0.895163 0
    outer loop
      vertex -0.254227 -7.30929 17.5
      vertex 1.52222 -8.19386 -17.5
      vertex -0.254227 -7.30929 -17.5
    endloop
  endfacet
  facet normal 0.739009 0.673696 0
    outer loop
      vertex -1.59117 -5.84273 17.5
      vertex -0.254227 -7.30929 17.5
      vertex -0.254227 -7.30929 -17.5
    endloop
  endfacet
  facet normal 0.739009 0.673696 0
    outer loop
      vertex -1.59117 -5.84273 -17.5
      vertex -1.59117 -5.84273 17.5
      vertex -0.254227 -7.30929 -17.5
    endloop
  endfacet
  facet normal 0.932472 0.361241 0
    outer loop
      vertex -2.30805 -3.99225 17.5
      vertex -1.59117 -5.84273 17.5
      vertex -1.59117 -5.84273 -17.5
    endloop
  endfacet
  facet normal 0.932472 0.361241 0
    outer loop
      vertex -2.30805 -3.99225 -17.5
      vertex -2.30805 -3.99225 17.5
      vertex -1.59117 -5.84273 -17.5
    endloop
  endfacet
  facet normal 1 0 0
    outer loop
      vertex 36 13.2366 -39.4271
      vertex 36 5 -47.5
      vertex 36 25 -47.5
    endloop
  endfacet
  facet normal 1 0 0
    outer loop
      vertex 36 25 17.5
      vertex 36 5 17.5
      vertex 36 25 -47.5
    endloop
  endfacet
  facet normal 1 0 0
    outer loop
      vertex 36 5 17.5
      vertex 36 5 -47.5
      vertex 36 12.1468 -37.9271
    endloop
  endfacet
  facet normal 1 0 0
    outer loop
      vertex 36 15 -40
      vertex 36 13.2366 -39.4271
      vertex 36 25 -47.5
    endloop
  endfacet
  facet normal 1 0 0
    outer loop
      vertex 36 5 17.5
      vertex 36 12.1468 -37.9271
      vertex 36 12.1468 -36.0729
    endloop
  endfacet
  facet normal 1 0 0
    outer loop
      vertex 36 16.7634 -39.4271
      vertex 36 15 -40
      vertex 36 25 -47.5
    endloop
  endfacet
  facet normal 1 0 0
    outer loop
      vertex 36 5 17.5
      vertex 36 12.1468 -36.0729
      vertex 36 13.2366 -34.5729
    endloop
  endfacet
  facet normal 1 0 0
    outer loop
      vertex 36 17.8532 -37.9271
      vertex 36 16.7634 -39.4271
      vertex 36 25 -47.5
    endloop
  endfacet
  facet normal 1 0 0
    outer loop
      vertex 36 5 17.5
      vertex 36 13.2366 -34.5729
      vertex 36 15 -34
    endloop
  endfacet
  facet normal 1 0 0
    outer loop
      vertex 36 5 17.5
      vertex 36 15 -34
      vertex 36 16.7634 -34.5729
    endloop
  endfacet
  facet normal 1 0 0
    outer loop
      vertex 36 5 17.5
      vertex 36 17.8532 -36.0729
      vertex 36 25 -47.5
    endloop
  endfacet
  facet normal 1 0 0
    outer loop
      vertex 36 5 17.5
      vertex 36 16.7634 -34.5729
      vertex 36 17.8532 -36.0729
    endloop
  endfacet
  facet normal 1 0 0
    outer loop
      vertex 36 12.1468 -37.9271
      vertex 36 5 -47.5
      vertex 36 13.2366 -39.4271
    endloop
  endfacet
  facet normal 1 0 0
    outer loop
      vertex 36 17.8532 -36.0729
      vertex 36 17.8532 -37.9271
      vertex 36 25 -47.5
    endloop
  endfacet
  facet normal 0 0 -1
    outer loop
      vertex 24 5 -47.5
      vertex 24 25 -47.5
      vertex 36 5 -47.5
    endloop
  endfacet
  facet normal 0 0 -1
    outer loop
      vertex 36 5 -47.5
      vertex 24 25 -47.5
      vertex 36 25 -47.5
    endloop
  endfacet
  facet normal 2.04876e-017 0.995734 0.0922681
    outer loop
      vertex 28 10.0947 -38.3957
      vertex 24 10.0947 -38.3957
      vertex 28 9.92176 -36.5294
    endloop
  endfacet
  facet normal 2.04876e-017 0.995734 0.0922681
    outer loop
      vertex 28 9.92176 -36.5294
      vertex 24 10.0947 -38.3957
      vertex 24 9.92176 -36.5294
    endloop
  endfacet
  facet normal -6.07653e-017 0.961826 -0.273663
    outer loop
      vertex 28 10.4347 -34.7267
      vertex 28 9.92176 -36.5294
      vertex 24 10.4347 -34.7267
    endloop
  endfacet
  facet normal -6.07653e-017 0.961826 -0.273663
    outer loop
      vertex 24 10.4347 -34.7267
      vertex 28 9.92176 -36.5294
      vertex 24 9.92176 -36.5294
    endloop
  endfacet
  facet normal -1.33812e-016 0.798017 -0.602635
    outer loop
      vertex 28 11.5642 -33.2311
      vertex 28 10.4347 -34.7267
      vertex 24 11.5642 -33.2311
    endloop
  endfacet
  facet normal -1.33812e-016 0.798017 -0.602635
    outer loop
      vertex 24 11.5642 -33.2311
      vertex 28 10.4347 -34.7267
      vertex 24 10.4347 -34.7267
    endloop
  endfacet
  facet normal -1.88786e-016 0.526432 -0.850217
    outer loop
      vertex 28 13.1577 -32.2444
      vertex 28 11.5642 -33.2311
      vertex 24 13.1577 -32.2444
    endloop
  endfacet
  facet normal -1.88786e-016 0.526432 -0.850217
    outer loop
      vertex 24 13.1577 -32.2444
      vertex 28 11.5642 -33.2311
      vertex 24 11.5642 -33.2311
    endloop
  endfacet
  facet normal -2.18264e-016 0.18375 -0.982973
    outer loop
      vertex 28 15 -31.9
      vertex 28 13.1577 -32.2444
      vertex 24 15 -31.9
    endloop
  endfacet
  facet normal -2.18264e-016 0.18375 -0.982973
    outer loop
      vertex 24 15 -31.9
      vertex 28 13.1577 -32.2444
      vertex 24 13.1577 -32.2444
    endloop
  endfacet
  facet normal -2.18264e-016 -0.18375 -0.982973
    outer loop
      vertex 28 16.8423 -32.2444
      vertex 28 15 -31.9
      vertex 24 16.8423 -32.2444
    endloop
  endfacet
  facet normal -2.18264e-016 -0.18375 -0.982973
    outer loop
      vertex 24 16.8423 -32.2444
      vertex 28 15 -31.9
      vertex 24 15 -31.9
    endloop
  endfacet
  facet normal -1.88786e-016 -0.526432 -0.850217
    outer loop
      vertex 28 18.4358 -33.2311
      vertex 28 16.8423 -32.2444
      vertex 24 18.4358 -33.2311
    endloop
  endfacet
  facet normal -1.88786e-016 -0.526432 -0.850217
    outer loop
      vertex 24 18.4358 -33.2311
      vertex 28 16.8423 -32.2444
      vertex 24 16.8423 -32.2444
    endloop
  endfacet
  facet normal -1.33812e-016 -0.798017 -0.602635
    outer loop
      vertex 24 19.5653 -34.7267
      vertex 28 19.5653 -34.7267
      vertex 28 18.4358 -33.2311
    endloop
  endfacet
  facet normal -1.33812e-016 -0.798017 -0.602635
    outer loop
      vertex 24 18.4358 -33.2311
      vertex 24 19.5653 -34.7267
      vertex 28 18.4358 -33.2311
    endloop
  endfacet
  facet normal -6.07653e-017 -0.961826 -0.273663
    outer loop
      vertex 24 20.0782 -36.5294
      vertex 28 20.0782 -36.5294
      vertex 28 19.5653 -34.7267
    endloop
  endfacet
  facet normal -6.07653e-017 -0.961826 -0.273663
    outer loop
      vertex 24 19.5653 -34.7267
      vertex 24 20.0782 -36.5294
      vertex 28 19.5653 -34.7267
    endloop
  endfacet
  facet normal 2.04876e-017 -0.995734 0.0922681
    outer loop
      vertex 28 19.9053 -38.3957
      vertex 28 20.0782 -36.5294
      vertex 24 20.0782 -36.5294
    endloop
  endfacet
  facet normal 2.04876e-017 -0.995734 0.0922681
    outer loop
      vertex 24 19.9053 -38.3957
      vertex 28 19.9053 -38.3957
      vertex 24 20.0782 -36.5294
    endloop
  endfacet
  facet normal 9.89738e-017 -0.895163 0.445738
    outer loop
      vertex 28 19.0699 -40.0734
      vertex 28 19.9053 -38.3957
      vertex 24 19.9053 -38.3957
    endloop
  endfacet
  facet normal 9.89738e-017 -0.895163 0.445738
    outer loop
      vertex 24 19.0699 -40.0734
      vertex 28 19.0699 -40.0734
      vertex 24 19.9053 -38.3957
    endloop
  endfacet
  facet normal 1.64093e-016 -0.673695 0.739009
    outer loop
      vertex 28 17.6848 -41.3361
      vertex 28 19.0699 -40.0734
      vertex 24 19.0699 -40.0734
    endloop
  endfacet
  facet normal 1.64093e-016 -0.673695 0.739009
    outer loop
      vertex 24 17.6848 -41.3361
      vertex 28 17.6848 -41.3361
      vertex 24 19.0699 -40.0734
    endloop
  endfacet
  facet normal 2.0705e-016 -0.361242 0.932472
    outer loop
      vertex 28 15.9371 -42.0132
      vertex 28 17.6848 -41.3361
      vertex 24 17.6848 -41.3361
    endloop
  endfacet
  facet normal 2.0705e-016 -0.361242 0.932472
    outer loop
      vertex 24 15.9371 -42.0132
      vertex 28 15.9371 -42.0132
      vertex 24 17.6848 -41.3361
    endloop
  endfacet
  facet normal 2.22045e-016 0 1
    outer loop
      vertex 28 14.0629 -42.0132
      vertex 28 15.9371 -42.0132
      vertex 24 15.9371 -42.0132
    endloop
  endfacet
  facet normal 2.22045e-016 0 1
    outer loop
      vertex 24 14.0629 -42.0132
      vertex 28 14.0629 -42.0132
      vertex 24 15.9371 -42.0132
    endloop
  endfacet
  facet normal 2.0705e-016 0.361242 0.932472
    outer loop
      vertex 28 12.3152 -41.3361
      vertex 28 14.0629 -42.0132
      vertex 24 14.0629 -42.0132
    endloop
  endfacet
  facet normal 2.0705e-016 0.361242 0.932472
    outer loop
      vertex 24 12.3152 -41.3361
      vertex 28 12.3152 -41.3361
      vertex 24 14.0629 -42.0132
    endloop
  endfacet
  facet normal 1.64093e-016 0.673695 0.739009
    outer loop
      vertex 28 10.9301 -40.0734
      vertex 28 12.3152 -41.3361
      vertex 24 12.3152 -41.3361
    endloop
  endfacet
  facet normal 1.64093e-016 0.673695 0.739009
    outer loop
      vertex 24 10.9301 -40.0734
      vertex 28 10.9301 -40.0734
      vertex 24 12.3152 -41.3361
    endloop
  endfacet
  facet normal 9.89738e-017 0.895163 0.445738
    outer loop
      vertex 28 10.9301 -40.0734
      vertex 24 10.9301 -40.0734
      vertex 28 10.0947 -38.3957
    endloop
  endfacet
  facet normal 9.89738e-017 0.895163 0.445738
    outer loop
      vertex 28 10.0947 -38.3957
      vertex 24 10.9301 -40.0734
      vertex 24 10.0947 -38.3957
    endloop
  endfacet
  facet normal 0.900969 2.00055e-016 -0.433884
    outer loop
      vertex 12.5599 25 -7.25665
      vertex 12.5599 6 -7.25665
      vertex 11.7103 6 -9.02091
    endloop
  endfacet
  facet normal 0.900969 2.00055e-016 -0.433884
    outer loop
      vertex 11.7103 25 -9.02091
      vertex 12.5599 25 -7.25665
      vertex 11.7103 6 -9.02091
    endloop
  endfacet
  facet normal 1 2.22045e-016 2.22045e-016
    outer loop
      vertex 11.7103 6 -9.02091
      vertex 11.7103 6 -10.9791
      vertex 11.7103 25 -10.9791
    endloop
  endfacet
  facet normal 1 2.22045e-016 2.22045e-016
    outer loop
      vertex 11.7103 25 -9.02091
      vertex 11.7103 6 -9.02091
      vertex 11.7103 25 -10.9791
    endloop
  endfacet
  facet normal 0.62349 1.38443e-016 -0.781832
    outer loop
      vertex 14.0909 6 -6.03574
      vertex 12.5599 6 -7.25665
      vertex 14.0909 25 -6.03574
    endloop
  endfacet
  facet normal 0.62349 1.38443e-016 -0.781832
    outer loop
      vertex 14.0909 25 -6.03574
      vertex 12.5599 6 -7.25665
      vertex 12.5599 25 -7.25665
    endloop
  endfacet
  facet normal 0.222521 4.94096e-017 -0.974928
    outer loop
      vertex 16 6 -5.6
      vertex 14.0909 6 -6.03574
      vertex 16 25 -5.6
    endloop
  endfacet
  facet normal 0.222521 4.94096e-017 -0.974928
    outer loop
      vertex 16 25 -5.6
      vertex 14.0909 6 -6.03574
      vertex 14.0909 25 -6.03574
    endloop
  endfacet
  facet normal -0.222521 -4.94096e-017 -0.974928
    outer loop
      vertex 17.9091 6 -6.03574
      vertex 16 6 -5.6
      vertex 17.9091 25 -6.03574
    endloop
  endfacet
  facet normal -0.222521 -4.94096e-017 -0.974928
    outer loop
      vertex 17.9091 25 -6.03574
      vertex 16 6 -5.6
      vertex 16 25 -5.6
    endloop
  endfacet
  facet normal -0.62349 -1.38443e-016 -0.781832
    outer loop
      vertex 19.4401 6 -7.25664
      vertex 17.9091 6 -6.03574
      vertex 19.4401 25 -7.25664
    endloop
  endfacet
  facet normal -0.62349 -1.38443e-016 -0.781832
    outer loop
      vertex 19.4401 25 -7.25664
      vertex 17.9091 6 -6.03574
      vertex 17.9091 25 -6.03574
    endloop
  endfacet
  facet normal -0.900969 -2.00055e-016 -0.433884
    outer loop
      vertex 20.2897 6 -9.02091
      vertex 19.4401 6 -7.25664
      vertex 20.2897 25 -9.02091
    endloop
  endfacet
  facet normal -0.900969 -2.00055e-016 -0.433884
    outer loop
      vertex 20.2897 25 -9.02091
      vertex 19.4401 6 -7.25664
      vertex 19.4401 25 -7.25664
    endloop
  endfacet
  facet normal -1 -2.22045e-016 -2.22045e-016
    outer loop
      vertex 20.2897 6 -10.9791
      vertex 20.2897 6 -9.02091
      vertex 20.2897 25 -10.9791
    endloop
  endfacet
  facet normal -1 -2.22045e-016 -2.22045e-016
    outer loop
      vertex 20.2897 25 -10.9791
      vertex 20.2897 6 -9.02091
      vertex 20.2897 25 -9.02091
    endloop
  endfacet
  facet normal -0.900969 -2.00055e-016 0.433884
    outer loop
      vertex 20.2897 6 -10.9791
      vertex 20.2897 25 -10.9791
      vertex 19.4401 6 -12.7434
    endloop
  endfacet
  facet normal -0.900969 -2.00055e-016 0.433884
    outer loop
      vertex 19.4401 6 -12.7434
      vertex 20.2897 25 -10.9791
      vertex 19.4401 25 -12.7434
    endloop
  endfacet
  facet normal -0.62349 -1.38443e-016 0.781832
    outer loop
      vertex 17.9091 6 -13.9643
      vertex 19.4401 6 -12.7434
      vertex 19.4401 25 -12.7434
    endloop
  endfacet
  facet normal -0.62349 -1.38443e-016 0.781832
    outer loop
      vertex 17.9091 25 -13.9643
      vertex 17.9091 6 -13.9643
      vertex 19.4401 25 -12.7434
    endloop
  endfacet
  facet normal -0.222521 -4.94096e-017 0.974928
    outer loop
      vertex 16 6 -14.4
      vertex 17.9091 6 -13.9643
      vertex 17.9091 25 -13.9643
    endloop
  endfacet
  facet normal -0.222521 -4.94096e-017 0.974928
    outer loop
      vertex 16 25 -14.4
      vertex 16 6 -14.4
      vertex 17.9091 25 -13.9643
    endloop
  endfacet
  facet normal 0.222521 4.94096e-017 0.974928
    outer loop
      vertex 14.0909 6 -13.9643
      vertex 16 6 -14.4
      vertex 16 25 -14.4
    endloop
  endfacet
  facet normal 0.222521 4.94096e-017 0.974928
    outer loop
      vertex 14.0909 25 -13.9643
      vertex 14.0909 6 -13.9643
      vertex 16 25 -14.4
    endloop
  endfacet
  facet normal 0.62349 1.38443e-016 0.781832
    outer loop
      vertex 12.5599 6 -12.7434
      vertex 14.0909 6 -13.9643
      vertex 14.0909 25 -13.9643
    endloop
  endfacet
  facet normal 0.62349 1.38443e-016 0.781832
    outer loop
      vertex 12.5599 25 -12.7434
      vertex 12.5599 6 -12.7434
      vertex 14.0909 25 -13.9643
    endloop
  endfacet
  facet normal 0.900969 2.00055e-016 0.433884
    outer loop
      vertex 11.7103 6 -10.9791
      vertex 12.5599 6 -12.7434
      vertex 12.5599 25 -12.7434
    endloop
  endfacet
  facet normal 0.900969 2.00055e-016 0.433884
    outer loop
      vertex 11.7103 25 -10.9791
      vertex 11.7103 6 -10.9791
      vertex 12.5599 25 -12.7434
    endloop
  endfacet
  facet normal 1.30515e-016 0.809017 0.587785
    outer loop
      vertex 36 12.1468 -37.9271
      vertex 36 13.2366 -39.4271
      vertex 28 12.1468 -37.9271
    endloop
  endfacet
  facet normal 1.30515e-016 0.809017 0.587785
    outer loop
      vertex 28 12.1468 -37.9271
      vertex 36 13.2366 -39.4271
      vertex 28 13.2366 -39.4271
    endloop
  endfacet
  facet normal 0 1 0
    outer loop
      vertex 36 12.1468 -36.0729
      vertex 36 12.1468 -37.9271
      vertex 28 12.1468 -36.0729
    endloop
  endfacet
  facet normal 0 1 0
    outer loop
      vertex 28 12.1468 -36.0729
      vertex 36 12.1468 -37.9271
      vertex 28 12.1468 -37.9271
    endloop
  endfacet
  facet normal 2.11177e-016 0.309017 0.951057
    outer loop
      vertex 28 13.2366 -39.4271
      vertex 36 13.2366 -39.4271
      vertex 36 15 -40
    endloop
  endfacet
  facet normal 2.11177e-016 0.309017 0.951057
    outer loop
      vertex 28 15 -40
      vertex 28 13.2366 -39.4271
      vertex 36 15 -40
    endloop
  endfacet
  facet normal 2.11177e-016 -0.309017 0.951057
    outer loop
      vertex 36 15 -40
      vertex 36 16.7634 -39.4271
      vertex 28 16.7634 -39.4271
    endloop
  endfacet
  facet normal 2.11177e-016 -0.309017 0.951057
    outer loop
      vertex 28 15 -40
      vertex 36 15 -40
      vertex 28 16.7634 -39.4271
    endloop
  endfacet
  facet normal 1.30515e-016 -0.809017 0.587785
    outer loop
      vertex 36 16.7634 -39.4271
      vertex 36 17.8532 -37.9271
      vertex 28 17.8532 -37.9271
    endloop
  endfacet
  facet normal 1.30515e-016 -0.809017 0.587785
    outer loop
      vertex 28 16.7634 -39.4271
      vertex 36 16.7634 -39.4271
      vertex 28 17.8532 -37.9271
    endloop
  endfacet
  facet normal 0 -1 0
    outer loop
      vertex 36 17.8532 -37.9271
      vertex 36 17.8532 -36.0729
      vertex 28 17.8532 -36.0729
    endloop
  endfacet
  facet normal 0 -1 0
    outer loop
      vertex 28 17.8532 -37.9271
      vertex 36 17.8532 -37.9271
      vertex 28 17.8532 -36.0729
    endloop
  endfacet
  facet normal -1.30515e-016 -0.809017 -0.587785
    outer loop
      vertex 36 17.8532 -36.0729
      vertex 36 16.7634 -34.5729
      vertex 28 16.7634 -34.5729
    endloop
  endfacet
  facet normal -1.30515e-016 -0.809017 -0.587785
    outer loop
      vertex 28 17.8532 -36.0729
      vertex 36 17.8532 -36.0729
      vertex 28 16.7634 -34.5729
    endloop
  endfacet
  facet normal -2.11177e-016 -0.309017 -0.951057
    outer loop
      vertex 36 15 -34
      vertex 28 15 -34
      vertex 36 16.7634 -34.5729
    endloop
  endfacet
  facet normal -2.11177e-016 -0.309017 -0.951057
    outer loop
      vertex 36 16.7634 -34.5729
      vertex 28 15 -34
      vertex 28 16.7634 -34.5729
    endloop
  endfacet
  facet normal -2.11177e-016 0.309017 -0.951057
    outer loop
      vertex 36 15 -34
      vertex 36 13.2366 -34.5729
      vertex 28 15 -34
    endloop
  endfacet
  facet normal -2.11177e-016 0.309017 -0.951057
    outer loop
      vertex 28 15 -34
      vertex 36 13.2366 -34.5729
      vertex 28 13.2366 -34.5729
    endloop
  endfacet
  facet normal -1.30515e-016 0.809017 -0.587785
    outer loop
      vertex 36 13.2366 -34.5729
      vertex 36 12.1468 -36.0729
      vertex 28 13.2366 -34.5729
    endloop
  endfacet
  facet normal -1.30515e-016 0.809017 -0.587785
    outer loop
      vertex 28 13.2366 -34.5729
      vertex 36 12.1468 -36.0729
      vertex 28 12.1468 -36.0729
    endloop
  endfacet
  facet normal -1 0 2.22045e-016
    outer loop
      vertex 28 10.9301 -40.0734
      vertex 28 10.0947 -38.3957
      vertex 28 12.3152 -41.3361
    endloop
  endfacet
  facet normal -1 0 2.22045e-016
    outer loop
      vertex 28 12.3152 -41.3361
      vertex 28 10.0947 -38.3957
      vertex 28 9.92176 -36.5294
    endloop
  endfacet
  facet normal -1 0 2.22045e-016
    outer loop
      vertex 28 12.3152 -41.3361
      vertex 28 9.92176 -36.5294
      vertex 28 10.4347 -34.7267
    endloop
  endfacet
  facet normal -1 0 2.22045e-016
    outer loop
      vertex 28 12.3152 -41.3361
      vertex 28 10.4347 -34.7267
      vertex 28 11.5642 -33.2311
    endloop
  endfacet
  facet normal -1 0 2.22045e-016
    outer loop
      vertex 28 12.1468 -36.0729
      vertex 28 11.5642 -33.2311
      vertex 28 13.1577 -32.2444
    endloop
  endfacet
  facet normal -1 0 2.22045e-016
    outer loop
      vertex 28 13.2366 -34.5729
      vertex 28 13.1577 -32.2444
      vertex 28 15 -31.9
    endloop
  endfacet
  facet normal -1 0 2.22045e-016
    outer loop
      vertex 28 15 -34
      vertex 28 15 -31.9
      vertex 28 16.8423 -32.2444
    endloop
  endfacet
  facet normal -1 0 2.22045e-016
    outer loop
      vertex 28 16.7634 -34.5729
      vertex 28 16.8423 -32.2444
      vertex 28 18.4358 -33.2311
    endloop
  endfacet
  facet normal -1 0 2.22045e-016
    outer loop
      vertex 28 17.8532 -36.0729
      vertex 28 18.4358 -33.2311
      vertex 28 19.5653 -34.7267
    endloop
  endfacet
  facet normal -1 0 2.22045e-016
    outer loop
      vertex 28 12.3152 -41.3361
      vertex 28 19.9053 -38.3957
      vertex 28 19.0699 -40.0734
    endloop
  endfacet
  facet normal -1 0 2.22045e-016
    outer loop
      vertex 28 12.3152 -41.3361
      vertex 28 19.0699 -40.0734
      vertex 28 17.6848 -41.3361
    endloop
  endfacet
  facet normal -1 0 2.22045e-016
    outer loop
      vertex 28 12.3152 -41.3361
      vertex 28 17.6848 -41.3361
      vertex 28 15.9371 -42.0132
    endloop
  endfacet
  facet normal -1 0 2.22045e-016
    outer loop
      vertex 28 12.3152 -41.3361
      vertex 28 15.9371 -42.0132
      vertex 28 14.0629 -42.0132
    endloop
  endfacet
  facet normal -1 0 2.22045e-016
    outer loop
      vertex 28 17.8532 -36.0729
      vertex 28 20.0782 -36.5294
      vertex 28 17.8532 -37.9271
    endloop
  endfacet
  facet normal -1 0 2.22045e-016
    outer loop
      vertex 28 12.3152 -41.3361
      vertex 28 15 -40
      vertex 28 16.7634 -39.4271
    endloop
  endfacet
  facet normal -1 0 2.22045e-016
    outer loop
      vertex 28 12.3152 -41.3361
      vertex 28 16.7634 -39.4271
      vertex 28 19.9053 -38.3957
    endloop
  endfacet
  facet normal -1 0 2.22045e-016
    outer loop
      vertex 28 17.8532 -37.9271
      vertex 28 19.9053 -38.3957
      vertex 28 16.7634 -39.4271
    endloop
  endfacet
  facet normal -1 0 2.22045e-016
    outer loop
      vertex 28 17.8532 -37.9271
      vertex 28 20.0782 -36.5294
      vertex 28 19.9053 -38.3957
    endloop
  endfacet
  facet normal -1 0 2.22045e-016
    outer loop
      vertex 28 13.2366 -34.5729
      vertex 28 15 -31.9
      vertex 28 15 -34
    endloop
  endfacet
  facet normal -1 0 2.22045e-016
    outer loop
      vertex 28 12.1468 -36.0729
      vertex 28 13.1577 -32.2444
      vertex 28 13.2366 -34.5729
    endloop
  endfacet
  facet normal -1 0 2.22045e-016
    outer loop
      vertex 28 12.1468 -37.9271
      vertex 28 11.5642 -33.2311
      vertex 28 12.1468 -36.0729
    endloop
  endfacet
  facet normal -1 0 2.22045e-016
    outer loop
      vertex 28 13.2366 -39.4271
      vertex 28 12.3152 -41.3361
      vertex 28 12.1468 -37.9271
    endloop
  endfacet
  facet normal -1 0 2.22045e-016
    outer loop
      vertex 28 12.3152 -41.3361
      vertex 28 11.5642 -33.2311
      vertex 28 12.1468 -37.9271
    endloop
  endfacet
  facet normal -1 0 2.22045e-016
    outer loop
      vertex 28 15 -40
      vertex 28 12.3152 -41.3361
      vertex 28 13.2366 -39.4271
    endloop
  endfacet
  facet normal -1 0 2.22045e-016
    outer loop
      vertex 28 15 -34
      vertex 28 16.8423 -32.2444
      vertex 28 16.7634 -34.5729
    endloop
  endfacet
  facet normal -1 0 2.22045e-016
    outer loop
      vertex 28 17.8532 -36.0729
      vertex 28 19.5653 -34.7267
      vertex 28 20.0782 -36.5294
    endloop
  endfacet
  facet normal -1 0 2.22045e-016
    outer loop
      vertex 28 16.7634 -34.5729
      vertex 28 18.4358 -33.2311
      vertex 28 17.8532 -36.0729
    endloop
  endfacet
  facet normal -2.22045e-016 1 -4.93038e-032
    outer loop
      vertex 14.0909 6 -6.03574
      vertex 16 6 -5.6
      vertex 12.5599 6 -7.25665
    endloop
  endfacet
  facet normal -2.22045e-016 1 -4.93038e-032
    outer loop
      vertex 12.5599 6 -7.25665
      vertex 16 6 -5.6
      vertex 17.9091 6 -6.03574
    endloop
  endfacet
  facet normal -2.22045e-016 1 -4.93038e-032
    outer loop
      vertex 12.5599 6 -7.25665
      vertex 17.9091 6 -6.03574
      vertex 19.4401 6 -7.25664
    endloop
  endfacet
  facet normal -2.22045e-016 1 -4.93038e-032
    outer loop
      vertex 12.5599 6 -7.25665
      vertex 19.4401 6 -7.25664
      vertex 20.2897 6 -9.02091
    endloop
  endfacet
  facet normal -2.22045e-016 1 -4.93038e-032
    outer loop
      vertex 12.5599 6 -7.25665
      vertex 20.2897 6 -9.02091
      vertex 20.2897 6 -10.9791
    endloop
  endfacet
  facet normal -2.22045e-016 1 -4.93038e-032
    outer loop
      vertex 12.5599 6 -7.25665
      vertex 20.2897 6 -10.9791
      vertex 19.4401 6 -12.7434
    endloop
  endfacet
  facet normal -2.22045e-016 1 -4.93038e-032
    outer loop
      vertex 12.5599 6 -7.25665
      vertex 19.4401 6 -12.7434
      vertex 17.9091 6 -13.9643
    endloop
  endfacet
  facet normal -2.22045e-016 1 -4.93038e-032
    outer loop
      vertex 12.5599 6 -7.25665
      vertex 17.9091 6 -13.9643
      vertex 16 6 -14.4
    endloop
  endfacet
  facet normal -2.22045e-016 1 -4.93038e-032
    outer loop
      vertex 12.5599 6 -7.25665
      vertex 16 6 -14.4
      vertex 14.0909 6 -13.9643
    endloop
  endfacet
  facet normal -2.22045e-016 1 -4.93038e-032
    outer loop
      vertex 12.5599 6 -7.25665
      vertex 14.0909 6 -13.9643
      vertex 12.5599 6 -12.7434
    endloop
  endfacet
  facet normal -2.22045e-016 1 -4.93038e-032
    outer loop
      vertex 12.5599 6 -7.25665
      vertex 12.5599 6 -12.7434
      vertex 11.7103 6 -10.9791
    endloop
  endfacet
  facet normal -2.22045e-016 1 -4.93038e-032
    outer loop
      vertex 12.5599 6 -7.25665
      vertex 11.7103 6 -10.9791
      vertex 11.7103 6 -9.02091
    endloop
  endfacet
endsolid OpenSCAD_Model
