solid OpenSCAD_Model
  facet normal -1 0 0
    outer loop
      vertex -33 -3.5 15
      vertex -33 0 0
      vertex -33 -11.5 15
    endloop
  endfacet
  facet normal -1 0 0
    outer loop
      vertex -33 -3.5 25
      vertex -33 -15 40
      vertex -33 0 40
    endloop
  endfacet
  facet normal -1 0 0
    outer loop
      vertex -33 -15 0
      vertex -33 -15 40
      vertex -33 -11.5 25
    endloop
  endfacet
  facet normal -1 0 0
    outer loop
      vertex -33 -15 0
      vertex -33 -11.5 25
      vertex -33 -11.5 15
    endloop
  endfacet
  facet normal -1 0 0
    outer loop
      vertex -33 -15 0
      vertex -33 -11.5 15
      vertex -33 0 0
    endloop
  endfacet
  facet normal -1 0 0
    outer loop
      vertex -33 0 0
      vertex -33 -3.5 15
      vertex -33 0 40
    endloop
  endfacet
  facet normal -1 0 0
    outer loop
      vertex -33 -3.5 15
      vertex -33 -3.5 25
      vertex -33 0 40
    endloop
  endfacet
  facet normal -1 0 0
    outer loop
      vertex -33 -11.5 25
      vertex -33 -15 40
      vertex -33 -3.5 25
    endloop
  endfacet
  facet normal 0 -1 0
    outer loop
      vertex -33 -15 40
      vertex -33 -15 0
      vertex -23.5 -15 0
    endloop
  endfacet
  facet normal 0 -1 0
    outer loop
      vertex -26 -15 29.8579
      vertex -33 -15 40
      vertex -23.5 -15 0
    endloop
  endfacet
  facet normal 0 -1 0
    outer loop
      vertex -23.5 -15 29.8579
      vertex -26 -15 29.8579
      vertex -23.5 -15 0
    endloop
  endfacet
  facet normal 0 -1 0
    outer loop
      vertex -26 -15 30.1421
      vertex -33 -15 40
      vertex -26 -15 29.8579
    endloop
  endfacet
  facet normal 0 -1 0
    outer loop
      vertex -23.5 -15 40
      vertex -33 -15 40
      vertex -23.5 -15 30.1421
    endloop
  endfacet
  facet normal 0 -1 0
    outer loop
      vertex -26 -15 30.1421
      vertex -23.5 -15 30.1421
      vertex -33 -15 40
    endloop
  endfacet
  facet normal 0 0 -1
    outer loop
      vertex -23.5 -11.5 0
      vertex -23.5 -15 0
      vertex -27.5 -11.5 0
    endloop
  endfacet
  facet normal 0 0 -1
    outer loop
      vertex -27.5 -3.5 0
      vertex -33 0 0
      vertex -23.5 0 0
    endloop
  endfacet
  facet normal 0 0 -1
    outer loop
      vertex -23.5 0 0
      vertex -23.5 10.5 0
      vertex 0 10.5 0
    endloop
  endfacet
  facet normal 0 0 -1
    outer loop
      vertex 3.11598 -10.023 0
      vertex -6.5 -10.5 0
      vertex 2.13083 -7.31631 0
    endloop
  endfacet
  facet normal 0 0 -1
    outer loop
      vertex -2.36129 7.26732 0
      vertex 0.366445 10.4936 0
      vertex 1.09755 10.4425 0
    endloop
  endfacet
  facet normal 0 0 -1
    outer loop
      vertex -3.82066 6.61757 0
      vertex 0.366445 10.4936 0
      vertex -2.36129 7.26732 0
    endloop
  endfacet
  facet normal 0 0 -1
    outer loop
      vertex -0.798735 7.59945 0
      vertex 1.82331 10.3405 0
      vertex 2.54018 10.1881 0
    endloop
  endfacet
  facet normal 0 0 -1
    outer loop
      vertex 0.798735 7.59945 0
      vertex 3.24468 9.98609 0
      vertex 3.93337 9.73543 0
    endloop
  endfacet
  facet normal 0 0 -1
    outer loop
      vertex -0.798735 7.59945 0
      vertex 3.24468 9.98609 0
      vertex 0.798735 7.59945 0
    endloop
  endfacet
  facet normal 0 0 -1
    outer loop
      vertex 2.36129 7.26732 0
      vertex 4.6029 9.43734 0
      vertex 5.25 9.09327 0
    endloop
  endfacet
  facet normal 0 0 -1
    outer loop
      vertex 3.82066 6.61757 0
      vertex 5.87153 8.7049 0
      vertex 6.46444 8.27411 0
    endloop
  endfacet
  facet normal 0 0 -1
    outer loop
      vertex 2.36129 7.26732 0
      vertex 5.87153 8.7049 0
      vertex 3.82066 6.61757 0
    endloop
  endfacet
  facet normal 0 0 -1
    outer loop
      vertex 5.11304 5.6786 0
      vertex 7.02587 7.80302 0
      vertex 7.55307 7.29391 0
    endloop
  endfacet
  facet normal 0 0 -1
    outer loop
      vertex -6.98069 -3.108 0
      vertex -23.5 -15 0
      vertex -7.47433 -1.58872 0
    endloop
  endfacet
  facet normal 0 0 -1
    outer loop
      vertex 6.18195 4.49145 0
      vertex 8.49468 6.17174 0
      vertex 8.90451 5.56415 0
    endloop
  endfacet
  facet normal 0 0 -1
    outer loop
      vertex 5.11304 5.6786 0
      vertex 8.04347 6.74927 0
      vertex 8.49468 6.17174 0
    endloop
  endfacet
  facet normal 0 0 -1
    outer loop
      vertex 6.98069 3.108 0
      vertex 9.27095 4.92945 0
      vertex 9.59223 4.27074 0
    endloop
  endfacet
  facet normal 0 0 -1
    outer loop
      vertex 6.18195 4.49145 0
      vertex 9.27095 4.92945 0
      vertex 6.98069 3.108 0
    endloop
  endfacet
  facet normal 0 0 -1
    outer loop
      vertex 7.47433 1.58872 0
      vertex 9.86677 3.59121 0
      vertex 10.0932 2.89419 0
    endloop
  endfacet
  facet normal 0 0 -1
    outer loop
      vertex 6.98069 3.108 0
      vertex 9.86677 3.59121 0
      vertex 7.47433 1.58872 0
    endloop
  endfacet
  facet normal 0 0 -1
    outer loop
      vertex 7.64131 0 0
      vertex 10.3978 1.46132 0
      vertex 10.4744 0.732443 0
    endloop
  endfacet
  facet normal 0 0 -1
    outer loop
      vertex 7.47433 1.58872 0
      vertex 10.2706 2.18307 0
      vertex 10.3978 1.46132 0
    endloop
  endfacet
  facet normal 0 0 -1
    outer loop
      vertex 7.47433 -1.58872 0
      vertex 10.5 0 0
      vertex 10.4744 -0.732443 0
    endloop
  endfacet
  facet normal 0 0 -1
    outer loop
      vertex 6.98069 -3.108 0
      vertex 10.3978 -1.46132 0
      vertex 10.2706 -2.18307 0
    endloop
  endfacet
  facet normal 0 0 -1
    outer loop
      vertex 6.18195 -4.49145 0
      vertex 10.0932 -2.89419 0
      vertex 9.86677 -3.59121 0
    endloop
  endfacet
  facet normal 0 0 -1
    outer loop
      vertex 5.11304 -5.6786 0
      vertex 9.86677 -3.59121 0
      vertex 9.59223 -4.27074 0
    endloop
  endfacet
  facet normal 0 0 -1
    outer loop
      vertex 0.798735 -7.59945 0
      vertex -23.5 -15 0
      vertex -0.798735 -7.59945 0
    endloop
  endfacet
  facet normal 0 0 -1
    outer loop
      vertex 3.0634 -6.95472 0
      vertex 9.27095 -4.92945 0
      vertex 8.90451 -5.56415 0
    endloop
  endfacet
  facet normal 0 0 -1
    outer loop
      vertex 3.82066 -6.61757 0
      vertex 9.27095 -4.92945 0
      vertex 3.0634 -6.95472 0
    endloop
  endfacet
  facet normal 0 0 -1
    outer loop
      vertex 5.11304 -5.6786 0
      vertex 9.59223 -4.27074 0
      vertex 9.27095 -4.92945 0
    endloop
  endfacet
  facet normal 0 0 -1
    outer loop
      vertex 6.18195 -4.49145 0
      vertex 9.86677 -3.59121 0
      vertex 5.11304 -5.6786 0
    endloop
  endfacet
  facet normal 0 0 -1
    outer loop
      vertex -3.82066 -6.61757 0
      vertex -23.5 -15 0
      vertex -5.11304 -5.6786 0
    endloop
  endfacet
  facet normal 0 0 -1
    outer loop
      vertex 6.98069 -3.108 0
      vertex 10.2706 -2.18307 0
      vertex 10.0932 -2.89419 0
    endloop
  endfacet
  facet normal 0 0 -1
    outer loop
      vertex 7.47433 -1.58872 0
      vertex 10.4744 -0.732443 0
      vertex 10.3978 -1.46132 0
    endloop
  endfacet
  facet normal 0 0 -1
    outer loop
      vertex 7.47433 1.58872 0
      vertex 10.3978 1.46132 0
      vertex 7.64131 0 0
    endloop
  endfacet
  facet normal 0 0 -1
    outer loop
      vertex 7.64131 0 0
      vertex 10.4744 0.732443 0
      vertex 10.5 0 0
    endloop
  endfacet
  facet normal 0 0 -1
    outer loop
      vertex 7.47433 1.58872 0
      vertex 10.0932 2.89419 0
      vertex 10.2706 2.18307 0
    endloop
  endfacet
  facet normal 0 0 -1
    outer loop
      vertex -5.11304 -5.6786 0
      vertex -23.5 -15 0
      vertex -6.18195 -4.49145 0
    endloop
  endfacet
  facet normal 0 0 -1
    outer loop
      vertex 6.98069 3.108 0
      vertex 9.59223 4.27074 0
      vertex 9.86677 3.59121 0
    endloop
  endfacet
  facet normal 0 0 -1
    outer loop
      vertex 6.18195 4.49145 0
      vertex 8.90451 5.56415 0
      vertex 9.27095 4.92945 0
    endloop
  endfacet
  facet normal 0 0 -1
    outer loop
      vertex 5.11304 5.6786 0
      vertex 7.55307 7.29391 0
      vertex 8.04347 6.74927 0
    endloop
  endfacet
  facet normal 0 0 -1
    outer loop
      vertex 3.82066 6.61757 0
      vertex 6.46444 8.27411 0
      vertex 7.02587 7.80302 0
    endloop
  endfacet
  facet normal 0 0 -1
    outer loop
      vertex 2.36129 7.26732 0
      vertex 5.25 9.09327 0
      vertex 5.87153 8.7049 0
    endloop
  endfacet
  facet normal 0 0 -1
    outer loop
      vertex 0.798735 7.59945 0
      vertex 3.93337 9.73543 0
      vertex 4.6029 9.43734 0
    endloop
  endfacet
  facet normal 0 0 -1
    outer loop
      vertex -0.798735 7.59945 0
      vertex 2.54018 10.1881 0
      vertex 3.24468 9.98609 0
    endloop
  endfacet
  facet normal 0 0 -1
    outer loop
      vertex -2.36129 7.26732 0
      vertex 1.09755 10.4425 0
      vertex 1.82331 10.3405 0
    endloop
  endfacet
  facet normal 0 0 -1
    outer loop
      vertex -3.82066 6.61757 0
      vertex 0 10.5 0
      vertex 0 10.4936 0
    endloop
  endfacet
  facet normal 0 0 -1
    outer loop
      vertex -23.5 0 0
      vertex 0 10.5 0
      vertex -3.82066 6.61757 0
    endloop
  endfacet
  facet normal 0 0 -1
    outer loop
      vertex -23.5 0 0
      vertex -3.82066 6.61757 0
      vertex -5.11304 5.6786 0
    endloop
  endfacet
  facet normal 0 0 -1
    outer loop
      vertex -23.5 0 0
      vertex -5.11304 5.6786 0
      vertex -6.18195 4.49145 0
    endloop
  endfacet
  facet normal 0 0 -1
    outer loop
      vertex -23.5 0 0
      vertex -6.18195 4.49145 0
      vertex -23.5 -3.5 0
    endloop
  endfacet
  facet normal 0 0 -1
    outer loop
      vertex -6.98069 3.108 0
      vertex -23.5 -15 0
      vertex -6.18195 4.49145 0
    endloop
  endfacet
  facet normal 0 0 -1
    outer loop
      vertex -7.47433 1.58872 0
      vertex -23.5 -15 0
      vertex -6.98069 3.108 0
    endloop
  endfacet
  facet normal 0 0 -1
    outer loop
      vertex -7.64131 0 0
      vertex -23.5 -15 0
      vertex -7.47433 1.58872 0
    endloop
  endfacet
  facet normal 0 0 -1
    outer loop
      vertex -3.82066 6.61757 0
      vertex 0 10.4936 0
      vertex 0.366445 10.4936 0
    endloop
  endfacet
  facet normal 0 0 -1
    outer loop
      vertex -2.36129 7.26732 0
      vertex 1.82331 10.3405 0
      vertex -0.798735 7.59945 0
    endloop
  endfacet
  facet normal 0 0 -1
    outer loop
      vertex 0.798735 7.59945 0
      vertex 4.6029 9.43734 0
      vertex 2.36129 7.26732 0
    endloop
  endfacet
  facet normal 0 0 -1
    outer loop
      vertex -7.47433 -1.58872 0
      vertex -23.5 -15 0
      vertex -7.64131 0 0
    endloop
  endfacet
  facet normal 0 0 -1
    outer loop
      vertex -6.18195 -4.49145 0
      vertex -23.5 -15 0
      vertex -6.98069 -3.108 0
    endloop
  endfacet
  facet normal 0 0 -1
    outer loop
      vertex 3.82066 6.61757 0
      vertex 7.02587 7.80302 0
      vertex 5.11304 5.6786 0
    endloop
  endfacet
  facet normal 0 0 -1
    outer loop
      vertex 5.11304 5.6786 0
      vertex 8.49468 6.17174 0
      vertex 6.18195 4.49145 0
    endloop
  endfacet
  facet normal 0 0 -1
    outer loop
      vertex -2.36129 -7.26732 0
      vertex -23.5 -15 0
      vertex -3.82066 -6.61757 0
    endloop
  endfacet
  facet normal 0 0 -1
    outer loop
      vertex 7.64131 0 0
      vertex 10.5 0 0
      vertex 7.47433 -1.58872 0
    endloop
  endfacet
  facet normal 0 0 -1
    outer loop
      vertex 7.47433 -1.58872 0
      vertex 10.3978 -1.46132 0
      vertex 6.98069 -3.108 0
    endloop
  endfacet
  facet normal 0 0 -1
    outer loop
      vertex 6.98069 -3.108 0
      vertex 10.0932 -2.89419 0
      vertex 6.18195 -4.49145 0
    endloop
  endfacet
  facet normal 0 0 -1
    outer loop
      vertex 3.11598 -10.023 0
      vertex 0 -10.4936 0
      vertex -6.5 -10.5 0
    endloop
  endfacet
  facet normal 0 0 -1
    outer loop
      vertex 2.13083 -7.31631 0
      vertex -23.5 -15 0
      vertex 0.798735 -7.59945 0
    endloop
  endfacet
  facet normal 0 0 -1
    outer loop
      vertex -6.5 -28.5 0
      vertex -23.5 -15 0
      vertex -6.5 -10.5 0
    endloop
  endfacet
  facet normal 0 0 -1
    outer loop
      vertex 3.11598 -10.023 0
      vertex 0.366445 -10.4936 0
      vertex 0 -10.4936 0
    endloop
  endfacet
  facet normal 0 0 -1
    outer loop
      vertex 5.11304 -5.6786 0
      vertex 9.27095 -4.92945 0
      vertex 3.82066 -6.61757 0
    endloop
  endfacet
  facet normal 0 0 -1
    outer loop
      vertex 1.09755 -10.4425 0
      vertex 2.54018 -10.1881 0
      vertex 1.82331 -10.3405 0
    endloop
  endfacet
  facet normal 0 0 -1
    outer loop
      vertex 1.09755 -10.4425 0
      vertex 3.11598 -10.023 0
      vertex 2.54018 -10.1881 0
    endloop
  endfacet
  facet normal 0 0 -1
    outer loop
      vertex 0.366445 -10.4936 0
      vertex 3.11598 -10.023 0
      vertex 1.09755 -10.4425 0
    endloop
  endfacet
  facet normal 0 0 -1
    outer loop
      vertex -6.5 -10.5 0
      vertex 0 -10.4936 0
      vertex 0 -10.5 0
    endloop
  endfacet
  facet normal 0 0 -1
    outer loop
      vertex -0.798735 -7.59945 0
      vertex -23.5 -15 0
      vertex -2.36129 -7.26732 0
    endloop
  endfacet
  facet normal 0 0 -1
    outer loop
      vertex -27.5 -11.5 0
      vertex -33 0 0
      vertex -27.5 -3.5 0
    endloop
  endfacet
  facet normal 0 0 -1
    outer loop
      vertex 3.0634 -6.95472 0
      vertex 8.90451 -5.56415 0
      vertex 8.49468 -6.17174 0
    endloop
  endfacet
  facet normal 0 0 -1
    outer loop
      vertex 3.0634 -6.95472 0
      vertex 8.49468 -6.17174 0
      vertex 8.04347 -6.74927 0
    endloop
  endfacet
  facet normal 0 0 -1
    outer loop
      vertex -23.5 -3.5 0
      vertex -27.5 -3.5 0
      vertex -23.5 0 0
    endloop
  endfacet
  facet normal 0 0 -1
    outer loop
      vertex -33 -15 0
      vertex -33 0 0
      vertex -27.5 -11.5 0
    endloop
  endfacet
  facet normal 0 0 -1
    outer loop
      vertex -33 -15 0
      vertex -27.5 -11.5 0
      vertex -23.5 -15 0
    endloop
  endfacet
  facet normal 0 0 -1
    outer loop
      vertex -23.5 -15 0
      vertex -23.5 -11.5 0
      vertex -6.18195 4.49145 0
    endloop
  endfacet
  facet normal 0 0 -1
    outer loop
      vertex -23.5 -11.5 0
      vertex -23.5 -3.5 0
      vertex -6.18195 4.49145 0
    endloop
  endfacet
  facet normal 0 0 -1
    outer loop
      vertex -23.5 -15 0
      vertex -6.5 -28.5 0
      vertex -23.5 -28.5 0
    endloop
  endfacet
  facet normal 0 0 -1
    outer loop
      vertex 3.0634 -6.95472 0
      vertex 8.04347 -6.74927 0
      vertex 7.55307 -7.29391 0
    endloop
  endfacet
  facet normal 0 0 -1
    outer loop
      vertex 3.0634 -6.95472 0
      vertex 7.55307 -7.29391 0
      vertex 7.02587 -7.80302 0
    endloop
  endfacet
  facet normal 0 0 -1
    outer loop
      vertex 3.0634 -6.95472 0
      vertex 7.02587 -7.80302 0
      vertex 6.46444 -8.27411 0
    endloop
  endfacet
  facet normal 0 0 -1
    outer loop
      vertex 3.0634 -6.95472 0
      vertex 6.46444 -8.27411 0
      vertex 5.87153 -8.7049 0
    endloop
  endfacet
  facet normal 0 0 -1
    outer loop
      vertex 3.0634 -6.95472 0
      vertex 5.87153 -8.7049 0
      vertex 5.25 -9.09327 0
    endloop
  endfacet
  facet normal 0 0 -1
    outer loop
      vertex 3.0634 -6.95472 0
      vertex 5.25 -9.09327 0
      vertex 4.6029 -9.43734 0
    endloop
  endfacet
  facet normal 0 0 -1
    outer loop
      vertex 3.0634 -6.95472 0
      vertex 4.6029 -9.43734 0
      vertex 4.05568 -9.68098 0
    endloop
  endfacet
  facet normal 0 0 -1
    outer loop
      vertex -6.5 -10.5 0
      vertex -23.5 -15 0
      vertex 2.13083 -7.31631 0
    endloop
  endfacet
  facet normal 0 1 0
    outer loop
      vertex -33 0 0
      vertex -33 0 40
      vertex -23.5 0 0
    endloop
  endfacet
  facet normal 0 1 0
    outer loop
      vertex -23.5 0 0
      vertex -33 0 40
      vertex -23.5 0 40
    endloop
  endfacet
  facet normal 0 0 1
    outer loop
      vertex -27.5 -11.5 40
      vertex -33 -15 40
      vertex -23.5 -15 40
    endloop
  endfacet
  facet normal 0 0 1
    outer loop
      vertex -27.5 -11.5 40
      vertex -27.5 -3.5 40
      vertex -33 0 40
    endloop
  endfacet
  facet normal 0 0 1
    outer loop
      vertex -33 0 40
      vertex -33 -15 40
      vertex -27.5 -11.5 40
    endloop
  endfacet
  facet normal 0 0 1
    outer loop
      vertex -23.5 -3.5 40
      vertex -33 0 40
      vertex -27.5 -3.5 40
    endloop
  endfacet
  facet normal 0 0 1
    outer loop
      vertex -23.5 0 40
      vertex -33 0 40
      vertex -23.5 -3.5 40
    endloop
  endfacet
  facet normal 0 0 1
    outer loop
      vertex -23.5 -11.5 40
      vertex -27.5 -11.5 40
      vertex -23.5 -15 40
    endloop
  endfacet
  facet normal 0 0 -1
    outer loop
      vertex -27.5 -3.5 25
      vertex -27.5 -11.5 25
      vertex -33 -3.5 25
    endloop
  endfacet
  facet normal 0 0 -1
    outer loop
      vertex -33 -3.5 25
      vertex -27.5 -11.5 25
      vertex -33 -11.5 25
    endloop
  endfacet
  facet normal 0 1 0
    outer loop
      vertex -27.5 -11.5 25
      vertex -27.5 -11.5 40
      vertex -23.5 -11.5 40
    endloop
  endfacet
  facet normal 0 1 0
    outer loop
      vertex -27.5 -11.5 25
      vertex -23.5 -11.5 40
      vertex -23.5 -11.5 0
    endloop
  endfacet
  facet normal 0 1 0
    outer loop
      vertex -33 -11.5 15
      vertex -33 -11.5 25
      vertex -27.5 -11.5 15
    endloop
  endfacet
  facet normal 0 1 0
    outer loop
      vertex -27.5 -11.5 25
      vertex -23.5 -11.5 0
      vertex -27.5 -11.5 15
    endloop
  endfacet
  facet normal 0 1 0
    outer loop
      vertex -27.5 -11.5 25
      vertex -27.5 -11.5 15
      vertex -33 -11.5 25
    endloop
  endfacet
  facet normal 0 1 0
    outer loop
      vertex -27.5 -11.5 15
      vertex -23.5 -11.5 0
      vertex -27.5 -11.5 0
    endloop
  endfacet
  facet normal 0 -1 0
    outer loop
      vertex -27.5 -3.5 15
      vertex -27.5 -3.5 0
      vertex -23.5 -3.5 0
    endloop
  endfacet
  facet normal 0 -1 0
    outer loop
      vertex -27.5 -3.5 25
      vertex -27.5 -3.5 15
      vertex -23.5 -3.5 40
    endloop
  endfacet
  facet normal 0 -1 0
    outer loop
      vertex -23.5 -3.5 40
      vertex -27.5 -3.5 15
      vertex -23.5 -3.5 0
    endloop
  endfacet
  facet normal 0 -1 0
    outer loop
      vertex -33 -3.5 25
      vertex -27.5 -3.5 15
      vertex -27.5 -3.5 25
    endloop
  endfacet
  facet normal 0 -1 0
    outer loop
      vertex -27.5 -3.5 40
      vertex -27.5 -3.5 25
      vertex -23.5 -3.5 40
    endloop
  endfacet
  facet normal 0 -1 0
    outer loop
      vertex -33 -3.5 15
      vertex -27.5 -3.5 15
      vertex -33 -3.5 25
    endloop
  endfacet
  facet normal 0 0 1
    outer loop
      vertex -27.5 -11.5 15
      vertex -27.5 -3.5 15
      vertex -33 -3.5 15
    endloop
  endfacet
  facet normal 0 0 1
    outer loop
      vertex -33 -11.5 15
      vertex -27.5 -11.5 15
      vertex -33 -3.5 15
    endloop
  endfacet
  facet normal -1 0 0
    outer loop
      vertex -23.5 -28.5 43.6421
      vertex -23.5 -28.5 58
      vertex -23.5 -15 30.1421
    endloop
  endfacet
  facet normal -1 0 0
    outer loop
      vertex -23.5 -11.5 40
      vertex -23.5 -28.5 58
      vertex -23.5 10.5 58
    endloop
  endfacet
  facet normal -1 0 0
    outer loop
      vertex -23.5 0 40
      vertex -23.5 10.5 58
      vertex -23.5 10.5 0
    endloop
  endfacet
  facet normal -1 0 0
    outer loop
      vertex -23.5 -3.5 40
      vertex -23.5 10.5 58
      vertex -23.5 0 40
    endloop
  endfacet
  facet normal -1 0 0
    outer loop
      vertex -23.5 -11.5 40
      vertex -23.5 10.5 58
      vertex -23.5 -3.5 40
    endloop
  endfacet
  facet normal -1 0 0
    outer loop
      vertex -23.5 -15 40
      vertex -23.5 -28.5 58
      vertex -23.5 -11.5 40
    endloop
  endfacet
  facet normal -1 0 0
    outer loop
      vertex -23.5 -15 30.1421
      vertex -23.5 -28.5 58
      vertex -23.5 -15 40
    endloop
  endfacet
  facet normal -1 0 0
    outer loop
      vertex -23.5 0 40
      vertex -23.5 10.5 0
      vertex -23.5 0 0
    endloop
  endfacet
  facet normal -1 0 0
    outer loop
      vertex -23.5 -11.5 40
      vertex -23.5 -3.5 40
      vertex -23.5 -3.5 0
    endloop
  endfacet
  facet normal -1 0 0
    outer loop
      vertex -23.5 -11.5 40
      vertex -23.5 -3.5 0
      vertex -23.5 -11.5 0
    endloop
  endfacet
  facet normal 0 -0.707107 -0.707107
    outer loop
      vertex -26 -15 30.1421
      vertex -26 -14.8579 30
      vertex -23.5 -15 30.1421
    endloop
  endfacet
  facet normal 0 -0.707107 -0.707107
    outer loop
      vertex -23.5 -28.5 43.6421
      vertex -20 -25.7868 40.9289
      vertex -17.2868 -28.5 43.6421
    endloop
  endfacet
  facet normal 0 -0.707107 -0.707107
    outer loop
      vertex -20 -14.8579 30
      vertex -20 -25.7868 40.9289
      vertex -23.5 -15 30.1421
    endloop
  endfacet
  facet normal 0 -0.707107 -0.707107
    outer loop
      vertex -20 -14.8579 30
      vertex -23.5 -15 30.1421
      vertex -26 -14.8579 30
    endloop
  endfacet
  facet normal 0 -0.707107 -0.707107
    outer loop
      vertex -23.5 -15 30.1421
      vertex -20 -25.7868 40.9289
      vertex -23.5 -28.5 43.6421
    endloop
  endfacet
  facet normal 1 0 0
    outer loop
      vertex -26 -14.8579 30
      vertex -26 -15 30.1421
      vertex -26 -15 29.8579
    endloop
  endfacet
  facet normal 0 -0.707107 0.707107
    outer loop
      vertex -20 -25.7868 19.0711
      vertex -23.5 -28.5 16.3579
      vertex -17.2868 -28.5 16.3579
    endloop
  endfacet
  facet normal 0 -0.707107 0.707107
    outer loop
      vertex -23.5 -15 29.8579
      vertex -23.5 -28.5 16.3579
      vertex -20 -25.7868 19.0711
    endloop
  endfacet
  facet normal 0 -0.707107 0.707107
    outer loop
      vertex -26 -14.8579 30
      vertex -23.5 -15 29.8579
      vertex -20 -14.8579 30
    endloop
  endfacet
  facet normal 0 -0.707107 0.707107
    outer loop
      vertex -20 -25.7868 19.0711
      vertex -20 -14.8579 30
      vertex -23.5 -15 29.8579
    endloop
  endfacet
  facet normal 0 -0.707107 0.707107
    outer loop
      vertex -26 -15 29.8579
      vertex -23.5 -15 29.8579
      vertex -26 -14.8579 30
    endloop
  endfacet
  facet normal -1 0 0
    outer loop
      vertex -23.5 -28.5 0
      vertex -23.5 -28.5 16.3579
      vertex -23.5 -15 0
    endloop
  endfacet
  facet normal -1 0 0
    outer loop
      vertex -23.5 -15 0
      vertex -23.5 -28.5 16.3579
      vertex -23.5 -15 29.8579
    endloop
  endfacet
  facet normal 0 -1 0
    outer loop
      vertex -13.3815 -28.5 2.0926
      vertex -23.5 -28.5 0
      vertex -6.5 -28.5 0
    endloop
  endfacet
  facet normal 0 -1 0
    outer loop
      vertex -6.5 -28.5 16.3579
      vertex -12.7132 -28.5 16.3579
      vertex -6.5 -28.5 0
    endloop
  endfacet
  facet normal 0 -1 0
    outer loop
      vertex -12.7132 -28.5 16.3579
      vertex -13.0711 -28.5 16
      vertex -6.5 -28.5 0
    endloop
  endfacet
  facet normal 0 -1 0
    outer loop
      vertex -23.5 -28.5 16.3579
      vertex -23.5 -28.5 0
      vertex -18.9074 -28.5 4.3815
    endloop
  endfacet
  facet normal 0 -1 0
    outer loop
      vertex -23.5 -28.5 16.3579
      vertex -18.9074 -28.5 4.3815
      vertex -19.2293 -28.5 6
    endloop
  endfacet
  facet normal 0 -1 0
    outer loop
      vertex -23.5 -28.5 16.3579
      vertex -19.2293 -28.5 6
      vertex -18.9074 -28.5 7.6185
    endloop
  endfacet
  facet normal 0 -1 0
    outer loop
      vertex -12.0094 -28.5 3.0094
      vertex -13.3815 -28.5 2.0926
      vertex -6.5 -28.5 0
    endloop
  endfacet
  facet normal 0 -1 0
    outer loop
      vertex -23.5 -28.5 16.3579
      vertex -18.9074 -28.5 7.6185
      vertex -17.9906 -28.5 8.9906
    endloop
  endfacet
  facet normal 0 -1 0
    outer loop
      vertex -23.5 -28.5 16.3579
      vertex -17.9906 -28.5 8.9906
      vertex -17.1609 -28.5 9.54498
    endloop
  endfacet
  facet normal 0 -1 0
    outer loop
      vertex -16.9289 -28.5 16
      vertex -23.5 -28.5 16.3579
      vertex -16.2559 -28.5 10.45
    endloop
  endfacet
  facet normal 0 -1 0
    outer loop
      vertex -10.7707 -28.5 6
      vertex -11.0926 -28.5 4.3815
      vertex -6.5 -28.5 0
    endloop
  endfacet
  facet normal 0 -1 0
    outer loop
      vertex -16.9289 -28.5 16
      vertex -16.2559 -28.5 10.45
      vertex -13.7441 -28.5 10.45
    endloop
  endfacet
  facet normal 0 -1 0
    outer loop
      vertex -16.9289 -28.5 16
      vertex -13.7441 -28.5 10.45
      vertex -12.8391 -28.5 9.54498
    endloop
  endfacet
  facet normal 0 -1 0
    outer loop
      vertex -11.0926 -28.5 4.3815
      vertex -12.0094 -28.5 3.0094
      vertex -6.5 -28.5 0
    endloop
  endfacet
  facet normal 0 -1 0
    outer loop
      vertex -13.0711 -28.5 16
      vertex -16.9289 -28.5 16
      vertex -12.0094 -28.5 8.9906
    endloop
  endfacet
  facet normal 0 -1 0
    outer loop
      vertex -13.0711 -28.5 16
      vertex -11.0926 -28.5 7.6185
      vertex -6.5 -28.5 0
    endloop
  endfacet
  facet normal 0 -1 0
    outer loop
      vertex -13.0711 -28.5 16
      vertex -12.0094 -28.5 8.9906
      vertex -11.0926 -28.5 7.6185
    endloop
  endfacet
  facet normal 0 -1 0
    outer loop
      vertex -12.8391 -28.5 9.54498
      vertex -12.0094 -28.5 8.9906
      vertex -16.9289 -28.5 16
    endloop
  endfacet
  facet normal 0 -1 0
    outer loop
      vertex -15 -28.5 1.77066
      vertex -23.5 -28.5 0
      vertex -13.3815 -28.5 2.0926
    endloop
  endfacet
  facet normal 0 -1 0
    outer loop
      vertex -16.6185 -28.5 2.0926
      vertex -23.5 -28.5 0
      vertex -15 -28.5 1.77066
    endloop
  endfacet
  facet normal 0 -1 0
    outer loop
      vertex -17.9906 -28.5 3.0094
      vertex -23.5 -28.5 0
      vertex -16.6185 -28.5 2.0926
    endloop
  endfacet
  facet normal 0 -1 0
    outer loop
      vertex -18.9074 -28.5 4.3815
      vertex -23.5 -28.5 0
      vertex -17.9906 -28.5 3.0094
    endloop
  endfacet
  facet normal 0 -1 0
    outer loop
      vertex -16.9289 -28.5 16
      vertex -17.2868 -28.5 16.3579
      vertex -23.5 -28.5 16.3579
    endloop
  endfacet
  facet normal 0 -1 0
    outer loop
      vertex -17.1609 -28.5 9.54498
      vertex -16.2559 -28.5 10.45
      vertex -23.5 -28.5 16.3579
    endloop
  endfacet
  facet normal 0 -1 0
    outer loop
      vertex -11.0926 -28.5 7.6185
      vertex -10.7707 -28.5 6
      vertex -6.5 -28.5 0
    endloop
  endfacet
  facet normal 1 0 0
    outer loop
      vertex -6.5 -28.5 16.3579
      vertex -6.5 -28.5 0
      vertex -6.5 -10.5 0
    endloop
  endfacet
  facet normal 1 0 0
    outer loop
      vertex -6.5 -14.8579 30
      vertex -6.5 -28.5 16.3579
      vertex -6.5 -10.5 0
    endloop
  endfacet
  facet normal 1 0 0
    outer loop
      vertex -6.5 -28.5 58
      vertex -6.5 -28.5 43.6421
      vertex -6.5 -10.5 58
    endloop
  endfacet
  facet normal 1 0 0
    outer loop
      vertex -6.5 -10.5 58
      vertex -6.5 -14.8579 30
      vertex -6.5 -10.5 0
    endloop
  endfacet
  facet normal 1 0 0
    outer loop
      vertex -6.5 -28.5 43.6421
      vertex -6.5 -14.8579 30
      vertex -6.5 -10.5 58
    endloop
  endfacet
  facet normal 0 -1 0
    outer loop
      vertex -6.5 -10.5 58
      vertex -6.5 -10.5 0
      vertex 0 -10.5 0
    endloop
  endfacet
  facet normal 0 -1 0
    outer loop
      vertex 0 -10.5 58
      vertex -6.5 -10.5 58
      vertex 0 -10.5 0
    endloop
  endfacet
  facet normal 1 0 0
    outer loop
      vertex 0 -10.5 58
      vertex 0 -10.5 0
      vertex 0 -10.4936 0
    endloop
  endfacet
  facet normal 1 0 0
    outer loop
      vertex 0 -10.4936 58
      vertex 0 -10.5 58
      vertex 0 -10.4936 0
    endloop
  endfacet
  facet normal 0 -1 0
    outer loop
      vertex 0 -10.4936 58
      vertex 0 -10.4936 0
      vertex 0.366445 -10.4936 0
    endloop
  endfacet
  facet normal 0 -1 0
    outer loop
      vertex 0.366445 -10.4936 58
      vertex 0 -10.4936 58
      vertex 0.366445 -10.4936 0
    endloop
  endfacet
  facet normal 0.0697568 -0.997564 0
    outer loop
      vertex 0.366445 -10.4936 58
      vertex 0.366445 -10.4936 0
      vertex 1.09755 -10.4425 0
    endloop
  endfacet
  facet normal 0.0697568 -0.997564 0
    outer loop
      vertex 1.09755 -10.4425 58
      vertex 0.366445 -10.4936 58
      vertex 1.09755 -10.4425 0
    endloop
  endfacet
  facet normal 0.139174 -0.990268 0
    outer loop
      vertex 1.09755 -10.4425 58
      vertex 1.09755 -10.4425 0
      vertex 1.82331 -10.3405 0
    endloop
  endfacet
  facet normal 0.139174 -0.990268 0
    outer loop
      vertex 1.82331 -10.3405 58
      vertex 1.09755 -10.4425 58
      vertex 1.82331 -10.3405 0
    endloop
  endfacet
  facet normal 0.207911 -0.978148 0
    outer loop
      vertex 1.82331 -10.3405 58
      vertex 1.82331 -10.3405 0
      vertex 2.54018 -10.1881 0
    endloop
  endfacet
  facet normal 0.207911 -0.978148 0
    outer loop
      vertex 2.54018 -10.1881 58
      vertex 1.82331 -10.3405 58
      vertex 2.54018 -10.1881 0
    endloop
  endfacet
  facet normal 0.275638 -0.961262 0
    outer loop
      vertex 2.54018 -10.1881 58
      vertex 2.54018 -10.1881 0
      vertex 3.11598 -10.023 0
    endloop
  endfacet
  facet normal 0.275638 -0.961262 0
    outer loop
      vertex 3.11598 -10.023 58
      vertex 2.54018 -10.1881 58
      vertex 3.11598 -10.023 0
    endloop
  endfacet
  facet normal 0.939693 0.34202 0
    outer loop
      vertex 2.13083 -7.31631 58
      vertex 3.11598 -10.023 58
      vertex 3.11598 -10.023 0
    endloop
  endfacet
  facet normal 0.939693 0.34202 0
    outer loop
      vertex 2.13083 -7.31631 0
      vertex 2.13083 -7.31631 58
      vertex 3.11598 -10.023 0
    endloop
  endfacet
  facet normal -0.207911 0.978148 0
    outer loop
      vertex 2.13083 -7.31631 58
      vertex 2.13083 -7.31631 0
      vertex 0.798735 -7.59945 58
    endloop
  endfacet
  facet normal -0.207911 0.978148 0
    outer loop
      vertex 0.798735 -7.59945 58
      vertex 2.13083 -7.31631 0
      vertex 0.798735 -7.59945 0
    endloop
  endfacet
  facet normal 0 1 0
    outer loop
      vertex 0.798735 -7.59945 58
      vertex 0.798735 -7.59945 0
      vertex -0.798735 -7.59945 58
    endloop
  endfacet
  facet normal 0 1 0
    outer loop
      vertex -0.798735 -7.59945 58
      vertex 0.798735 -7.59945 0
      vertex -0.798735 -7.59945 0
    endloop
  endfacet
  facet normal 0.207911 0.978148 0
    outer loop
      vertex -0.798735 -7.59945 58
      vertex -0.798735 -7.59945 0
      vertex -2.36129 -7.26732 58
    endloop
  endfacet
  facet normal 0.207911 0.978148 0
    outer loop
      vertex -2.36129 -7.26732 58
      vertex -0.798735 -7.59945 0
      vertex -2.36129 -7.26732 0
    endloop
  endfacet
  facet normal 0.406737 0.913545 0
    outer loop
      vertex -2.36129 -7.26732 58
      vertex -2.36129 -7.26732 0
      vertex -3.82066 -6.61757 58
    endloop
  endfacet
  facet normal 0.406737 0.913545 0
    outer loop
      vertex -3.82066 -6.61757 58
      vertex -2.36129 -7.26732 0
      vertex -3.82066 -6.61757 0
    endloop
  endfacet
  facet normal 0.587785 0.809017 0
    outer loop
      vertex -3.82066 -6.61757 58
      vertex -3.82066 -6.61757 0
      vertex -5.11304 -5.6786 58
    endloop
  endfacet
  facet normal 0.587785 0.809017 0
    outer loop
      vertex -5.11304 -5.6786 58
      vertex -3.82066 -6.61757 0
      vertex -5.11304 -5.6786 0
    endloop
  endfacet
  facet normal 0.743145 0.66913 0
    outer loop
      vertex -6.18195 -4.49145 58
      vertex -5.11304 -5.6786 58
      vertex -5.11304 -5.6786 0
    endloop
  endfacet
  facet normal 0.743145 0.66913 0
    outer loop
      vertex -6.18195 -4.49145 0
      vertex -6.18195 -4.49145 58
      vertex -5.11304 -5.6786 0
    endloop
  endfacet
  facet normal 0.866025 0.5 0
    outer loop
      vertex -6.98069 -3.108 58
      vertex -6.18195 -4.49145 58
      vertex -6.18195 -4.49145 0
    endloop
  endfacet
  facet normal 0.866025 0.5 0
    outer loop
      vertex -6.98069 -3.108 0
      vertex -6.98069 -3.108 58
      vertex -6.18195 -4.49145 0
    endloop
  endfacet
  facet normal 0.951057 0.309017 0
    outer loop
      vertex -7.47433 -1.58872 58
      vertex -6.98069 -3.108 58
      vertex -6.98069 -3.108 0
    endloop
  endfacet
  facet normal 0.951057 0.309017 0
    outer loop
      vertex -7.47433 -1.58872 0
      vertex -7.47433 -1.58872 58
      vertex -6.98069 -3.108 0
    endloop
  endfacet
  facet normal 0.994522 0.104528 0
    outer loop
      vertex -7.64131 0 58
      vertex -7.47433 -1.58872 58
      vertex -7.47433 -1.58872 0
    endloop
  endfacet
  facet normal 0.994522 0.104528 0
    outer loop
      vertex -7.64131 0 0
      vertex -7.64131 0 58
      vertex -7.47433 -1.58872 0
    endloop
  endfacet
  facet normal 0.994522 -0.104528 0
    outer loop
      vertex -7.47433 1.58872 0
      vertex -7.47433 1.58872 58
      vertex -7.64131 0 58
    endloop
  endfacet
  facet normal 0.994522 -0.104528 0
    outer loop
      vertex -7.64131 0 0
      vertex -7.47433 1.58872 0
      vertex -7.64131 0 58
    endloop
  endfacet
  facet normal 0.951057 -0.309017 0
    outer loop
      vertex -6.98069 3.108 0
      vertex -6.98069 3.108 58
      vertex -7.47433 1.58872 58
    endloop
  endfacet
  facet normal 0.951057 -0.309017 0
    outer loop
      vertex -7.47433 1.58872 0
      vertex -6.98069 3.108 0
      vertex -7.47433 1.58872 58
    endloop
  endfacet
  facet normal 0.866025 -0.5 0
    outer loop
      vertex -6.18195 4.49145 0
      vertex -6.18195 4.49145 58
      vertex -6.98069 3.108 58
    endloop
  endfacet
  facet normal 0.866025 -0.5 0
    outer loop
      vertex -6.98069 3.108 0
      vertex -6.18195 4.49145 0
      vertex -6.98069 3.108 58
    endloop
  endfacet
  facet normal 0.743145 -0.66913 0
    outer loop
      vertex -5.11304 5.6786 0
      vertex -5.11304 5.6786 58
      vertex -6.18195 4.49145 58
    endloop
  endfacet
  facet normal 0.743145 -0.66913 0
    outer loop
      vertex -6.18195 4.49145 0
      vertex -5.11304 5.6786 0
      vertex -6.18195 4.49145 58
    endloop
  endfacet
  facet normal 0.587785 -0.809017 0
    outer loop
      vertex -3.82066 6.61757 0
      vertex -3.82066 6.61757 58
      vertex -5.11304 5.6786 58
    endloop
  endfacet
  facet normal 0.587785 -0.809017 0
    outer loop
      vertex -5.11304 5.6786 0
      vertex -3.82066 6.61757 0
      vertex -5.11304 5.6786 58
    endloop
  endfacet
  facet normal 0.406737 -0.913545 0
    outer loop
      vertex -2.36129 7.26732 0
      vertex -2.36129 7.26732 58
      vertex -3.82066 6.61757 58
    endloop
  endfacet
  facet normal 0.406737 -0.913545 0
    outer loop
      vertex -3.82066 6.61757 0
      vertex -2.36129 7.26732 0
      vertex -3.82066 6.61757 58
    endloop
  endfacet
  facet normal 0.207911 -0.978148 0
    outer loop
      vertex -0.798735 7.59945 0
      vertex -0.798735 7.59945 58
      vertex -2.36129 7.26732 58
    endloop
  endfacet
  facet normal 0.207911 -0.978148 0
    outer loop
      vertex -2.36129 7.26732 0
      vertex -0.798735 7.59945 0
      vertex -2.36129 7.26732 58
    endloop
  endfacet
  facet normal 0 -1 0
    outer loop
      vertex 0.798735 7.59945 0
      vertex 0.798735 7.59945 58
      vertex -0.798735 7.59945 58
    endloop
  endfacet
  facet normal 0 -1 0
    outer loop
      vertex -0.798735 7.59945 0
      vertex 0.798735 7.59945 0
      vertex -0.798735 7.59945 58
    endloop
  endfacet
  facet normal -0.207911 -0.978148 0
    outer loop
      vertex 2.36129 7.26732 0
      vertex 2.36129 7.26732 58
      vertex 0.798735 7.59945 58
    endloop
  endfacet
  facet normal -0.207911 -0.978148 0
    outer loop
      vertex 0.798735 7.59945 0
      vertex 2.36129 7.26732 0
      vertex 0.798735 7.59945 58
    endloop
  endfacet
  facet normal -0.406737 -0.913545 0
    outer loop
      vertex 3.82066 6.61757 0
      vertex 3.82066 6.61757 58
      vertex 2.36129 7.26732 58
    endloop
  endfacet
  facet normal -0.406737 -0.913545 0
    outer loop
      vertex 2.36129 7.26732 0
      vertex 3.82066 6.61757 0
      vertex 2.36129 7.26732 58
    endloop
  endfacet
  facet normal -0.587785 -0.809017 0
    outer loop
      vertex 5.11304 5.6786 0
      vertex 5.11304 5.6786 58
      vertex 3.82066 6.61757 58
    endloop
  endfacet
  facet normal -0.587785 -0.809017 0
    outer loop
      vertex 3.82066 6.61757 0
      vertex 5.11304 5.6786 0
      vertex 3.82066 6.61757 58
    endloop
  endfacet
  facet normal -0.743145 -0.66913 0
    outer loop
      vertex 6.18195 4.49145 58
      vertex 5.11304 5.6786 58
      vertex 6.18195 4.49145 0
    endloop
  endfacet
  facet normal -0.743145 -0.66913 0
    outer loop
      vertex 6.18195 4.49145 0
      vertex 5.11304 5.6786 58
      vertex 5.11304 5.6786 0
    endloop
  endfacet
  facet normal -0.866025 -0.5 0
    outer loop
      vertex 6.98069 3.108 58
      vertex 6.18195 4.49145 58
      vertex 6.98069 3.108 0
    endloop
  endfacet
  facet normal -0.866025 -0.5 0
    outer loop
      vertex 6.98069 3.108 0
      vertex 6.18195 4.49145 58
      vertex 6.18195 4.49145 0
    endloop
  endfacet
  facet normal -0.951057 -0.309017 0
    outer loop
      vertex 7.47433 1.58872 58
      vertex 6.98069 3.108 58
      vertex 7.47433 1.58872 0
    endloop
  endfacet
  facet normal -0.951057 -0.309017 0
    outer loop
      vertex 7.47433 1.58872 0
      vertex 6.98069 3.108 58
      vertex 6.98069 3.108 0
    endloop
  endfacet
  facet normal -0.994522 -0.104528 0
    outer loop
      vertex 7.64131 0 58
      vertex 7.47433 1.58872 58
      vertex 7.64131 0 0
    endloop
  endfacet
  facet normal -0.994522 -0.104528 0
    outer loop
      vertex 7.64131 0 0
      vertex 7.47433 1.58872 58
      vertex 7.47433 1.58872 0
    endloop
  endfacet
  facet normal -0.994522 0.104528 0
    outer loop
      vertex 7.64131 0 58
      vertex 7.64131 0 0
      vertex 7.47433 -1.58872 58
    endloop
  endfacet
  facet normal -0.994522 0.104528 0
    outer loop
      vertex 7.47433 -1.58872 58
      vertex 7.64131 0 0
      vertex 7.47433 -1.58872 0
    endloop
  endfacet
  facet normal -0.951057 0.309017 0
    outer loop
      vertex 7.47433 -1.58872 58
      vertex 7.47433 -1.58872 0
      vertex 6.98069 -3.108 58
    endloop
  endfacet
  facet normal -0.951057 0.309017 0
    outer loop
      vertex 6.98069 -3.108 58
      vertex 7.47433 -1.58872 0
      vertex 6.98069 -3.108 0
    endloop
  endfacet
  facet normal -0.866025 0.5 0
    outer loop
      vertex 6.98069 -3.108 58
      vertex 6.98069 -3.108 0
      vertex 6.18195 -4.49145 58
    endloop
  endfacet
  facet normal -0.866025 0.5 0
    outer loop
      vertex 6.18195 -4.49145 58
      vertex 6.98069 -3.108 0
      vertex 6.18195 -4.49145 0
    endloop
  endfacet
  facet normal -0.743145 0.66913 0
    outer loop
      vertex 6.18195 -4.49145 58
      vertex 6.18195 -4.49145 0
      vertex 5.11304 -5.6786 58
    endloop
  endfacet
  facet normal -0.743145 0.66913 0
    outer loop
      vertex 5.11304 -5.6786 58
      vertex 6.18195 -4.49145 0
      vertex 5.11304 -5.6786 0
    endloop
  endfacet
  facet normal -0.587785 0.809017 0
    outer loop
      vertex 5.11304 -5.6786 58
      vertex 5.11304 -5.6786 0
      vertex 3.82066 -6.61757 58
    endloop
  endfacet
  facet normal -0.587785 0.809017 0
    outer loop
      vertex 3.82066 -6.61757 58
      vertex 5.11304 -5.6786 0
      vertex 3.82066 -6.61757 0
    endloop
  endfacet
  facet normal -0.406737 0.913545 0
    outer loop
      vertex 3.82066 -6.61757 58
      vertex 3.82066 -6.61757 0
      vertex 3.0634 -6.95472 58
    endloop
  endfacet
  facet normal -0.406737 0.913545 0
    outer loop
      vertex 3.0634 -6.95472 58
      vertex 3.82066 -6.61757 0
      vertex 3.0634 -6.95472 0
    endloop
  endfacet
  facet normal -0.939693 -0.34202 0
    outer loop
      vertex 4.05568 -9.68098 58
      vertex 3.0634 -6.95472 58
      vertex 4.05568 -9.68098 0
    endloop
  endfacet
  facet normal -0.939693 -0.34202 0
    outer loop
      vertex 4.05568 -9.68098 0
      vertex 3.0634 -6.95472 58
      vertex 3.0634 -6.95472 0
    endloop
  endfacet
  facet normal 0.406737 -0.913545 0
    outer loop
      vertex 4.05568 -9.68098 58
      vertex 4.05568 -9.68098 0
      vertex 4.6029 -9.43734 0
    endloop
  endfacet
  facet normal 0.406737 -0.913545 0
    outer loop
      vertex 4.6029 -9.43734 58
      vertex 4.05568 -9.68098 58
      vertex 4.6029 -9.43734 0
    endloop
  endfacet
  facet normal 0.469471 -0.882948 0
    outer loop
      vertex 4.6029 -9.43734 58
      vertex 4.6029 -9.43734 0
      vertex 5.25 -9.09327 0
    endloop
  endfacet
  facet normal 0.469471 -0.882948 0
    outer loop
      vertex 5.25 -9.09327 58
      vertex 4.6029 -9.43734 58
      vertex 5.25 -9.09327 0
    endloop
  endfacet
  facet normal 0.529919 -0.848048 0
    outer loop
      vertex 5.25 -9.09327 58
      vertex 5.25 -9.09327 0
      vertex 5.87153 -8.7049 0
    endloop
  endfacet
  facet normal 0.529919 -0.848048 0
    outer loop
      vertex 5.87153 -8.7049 58
      vertex 5.25 -9.09327 58
      vertex 5.87153 -8.7049 0
    endloop
  endfacet
  facet normal 0.587786 -0.809017 0
    outer loop
      vertex 5.87153 -8.7049 58
      vertex 5.87153 -8.7049 0
      vertex 6.46444 -8.27411 0
    endloop
  endfacet
  facet normal 0.587786 -0.809017 0
    outer loop
      vertex 6.46444 -8.27411 58
      vertex 5.87153 -8.7049 58
      vertex 6.46444 -8.27411 0
    endloop
  endfacet
  facet normal 0.642787 -0.766045 0
    outer loop
      vertex 6.46444 -8.27411 58
      vertex 6.46444 -8.27411 0
      vertex 7.02587 -7.80302 0
    endloop
  endfacet
  facet normal 0.642787 -0.766045 0
    outer loop
      vertex 7.02587 -7.80302 58
      vertex 6.46444 -8.27411 58
      vertex 7.02587 -7.80302 0
    endloop
  endfacet
  facet normal 0.694658 -0.71934 0
    outer loop
      vertex 7.02587 -7.80302 58
      vertex 7.02587 -7.80302 0
      vertex 7.55307 -7.29391 0
    endloop
  endfacet
  facet normal 0.694658 -0.71934 0
    outer loop
      vertex 7.55307 -7.29391 58
      vertex 7.02587 -7.80302 58
      vertex 7.55307 -7.29391 0
    endloop
  endfacet
  facet normal 0.743145 -0.669131 0
    outer loop
      vertex 7.55307 -7.29391 58
      vertex 7.55307 -7.29391 0
      vertex 8.04347 -6.74927 0
    endloop
  endfacet
  facet normal 0.743145 -0.669131 0
    outer loop
      vertex 8.04347 -6.74927 58
      vertex 7.55307 -7.29391 58
      vertex 8.04347 -6.74927 0
    endloop
  endfacet
  facet normal 0.788011 -0.615661 0
    outer loop
      vertex 8.04347 -6.74927 58
      vertex 8.04347 -6.74927 0
      vertex 8.49468 -6.17174 0
    endloop
  endfacet
  facet normal 0.788011 -0.615661 0
    outer loop
      vertex 8.49468 -6.17174 58
      vertex 8.04347 -6.74927 58
      vertex 8.49468 -6.17174 0
    endloop
  endfacet
  facet normal 0.829037 -0.559193 0
    outer loop
      vertex 8.49468 -6.17174 58
      vertex 8.49468 -6.17174 0
      vertex 8.90451 -5.56415 0
    endloop
  endfacet
  facet normal 0.829037 -0.559193 0
    outer loop
      vertex 8.90451 -5.56415 58
      vertex 8.49468 -6.17174 58
      vertex 8.90451 -5.56415 0
    endloop
  endfacet
  facet normal 0.866025 -0.5 0
    outer loop
      vertex 8.90451 -5.56415 58
      vertex 8.90451 -5.56415 0
      vertex 9.27095 -4.92945 0
    endloop
  endfacet
  facet normal 0.866025 -0.5 0
    outer loop
      vertex 9.27095 -4.92945 58
      vertex 8.90451 -5.56415 58
      vertex 9.27095 -4.92945 0
    endloop
  endfacet
  facet normal 0.898794 -0.438371 0
    outer loop
      vertex 9.27095 -4.92945 58
      vertex 9.27095 -4.92945 0
      vertex 9.59223 -4.27074 0
    endloop
  endfacet
  facet normal 0.898794 -0.438371 0
    outer loop
      vertex 9.59223 -4.27074 58
      vertex 9.27095 -4.92945 58
      vertex 9.59223 -4.27074 0
    endloop
  endfacet
  facet normal 0.927183 -0.374608 0
    outer loop
      vertex 9.59223 -4.27074 58
      vertex 9.59223 -4.27074 0
      vertex 9.86677 -3.59121 0
    endloop
  endfacet
  facet normal 0.927183 -0.374608 0
    outer loop
      vertex 9.86677 -3.59121 58
      vertex 9.59223 -4.27074 58
      vertex 9.86677 -3.59121 0
    endloop
  endfacet
  facet normal 0.951057 -0.309016 0
    outer loop
      vertex 9.86677 -3.59121 58
      vertex 9.86677 -3.59121 0
      vertex 10.0932 -2.89419 0
    endloop
  endfacet
  facet normal 0.951057 -0.309016 0
    outer loop
      vertex 10.0932 -2.89419 58
      vertex 9.86677 -3.59121 58
      vertex 10.0932 -2.89419 0
    endloop
  endfacet
  facet normal 0.970296 -0.241922 0
    outer loop
      vertex 10.0932 -2.89419 58
      vertex 10.0932 -2.89419 0
      vertex 10.2706 -2.18307 0
    endloop
  endfacet
  facet normal 0.970296 -0.241922 0
    outer loop
      vertex 10.2706 -2.18307 58
      vertex 10.0932 -2.89419 58
      vertex 10.2706 -2.18307 0
    endloop
  endfacet
  facet normal 0.984808 -0.173648 0
    outer loop
      vertex 10.2706 -2.18307 58
      vertex 10.2706 -2.18307 0
      vertex 10.3978 -1.46132 0
    endloop
  endfacet
  facet normal 0.984808 -0.173648 0
    outer loop
      vertex 10.3978 -1.46132 58
      vertex 10.2706 -2.18307 58
      vertex 10.3978 -1.46132 0
    endloop
  endfacet
  facet normal 0.994522 -0.104529 0
    outer loop
      vertex 10.3978 -1.46132 58
      vertex 10.3978 -1.46132 0
      vertex 10.4744 -0.732443 0
    endloop
  endfacet
  facet normal 0.994522 -0.104529 0
    outer loop
      vertex 10.4744 -0.732443 58
      vertex 10.3978 -1.46132 58
      vertex 10.4744 -0.732443 0
    endloop
  endfacet
  facet normal 0.999391 -0.0348989 0
    outer loop
      vertex 10.4744 -0.732443 58
      vertex 10.4744 -0.732443 0
      vertex 10.5 0 0
    endloop
  endfacet
  facet normal 0.999391 -0.0348989 0
    outer loop
      vertex 10.5 0 58
      vertex 10.4744 -0.732443 58
      vertex 10.5 0 0
    endloop
  endfacet
  facet normal 0.999391 0.0348989 0
    outer loop
      vertex 10.5 0 0
      vertex 10.4744 0.732443 0
      vertex 10.4744 0.732443 58
    endloop
  endfacet
  facet normal 0.999391 0.0348989 0
    outer loop
      vertex 10.5 0 58
      vertex 10.5 0 0
      vertex 10.4744 0.732443 58
    endloop
  endfacet
  facet normal 0.994522 0.104529 0
    outer loop
      vertex 10.4744 0.732443 0
      vertex 10.3978 1.46132 0
      vertex 10.3978 1.46132 58
    endloop
  endfacet
  facet normal 0.994522 0.104529 0
    outer loop
      vertex 10.4744 0.732443 58
      vertex 10.4744 0.732443 0
      vertex 10.3978 1.46132 58
    endloop
  endfacet
  facet normal 0.984808 0.173648 0
    outer loop
      vertex 10.3978 1.46132 0
      vertex 10.2706 2.18307 0
      vertex 10.2706 2.18307 58
    endloop
  endfacet
  facet normal 0.984808 0.173648 0
    outer loop
      vertex 10.3978 1.46132 58
      vertex 10.3978 1.46132 0
      vertex 10.2706 2.18307 58
    endloop
  endfacet
  facet normal 0.970296 0.241922 0
    outer loop
      vertex 10.2706 2.18307 0
      vertex 10.0932 2.89419 0
      vertex 10.0932 2.89419 58
    endloop
  endfacet
  facet normal 0.970296 0.241922 0
    outer loop
      vertex 10.2706 2.18307 58
      vertex 10.2706 2.18307 0
      vertex 10.0932 2.89419 58
    endloop
  endfacet
  facet normal 0.951057 0.309016 0
    outer loop
      vertex 10.0932 2.89419 0
      vertex 9.86677 3.59121 0
      vertex 9.86677 3.59121 58
    endloop
  endfacet
  facet normal 0.951057 0.309016 0
    outer loop
      vertex 10.0932 2.89419 58
      vertex 10.0932 2.89419 0
      vertex 9.86677 3.59121 58
    endloop
  endfacet
  facet normal 0.927183 0.374608 0
    outer loop
      vertex 9.86677 3.59121 0
      vertex 9.59223 4.27074 0
      vertex 9.59223 4.27074 58
    endloop
  endfacet
  facet normal 0.927183 0.374608 0
    outer loop
      vertex 9.86677 3.59121 58
      vertex 9.86677 3.59121 0
      vertex 9.59223 4.27074 58
    endloop
  endfacet
  facet normal 0.898794 0.438371 0
    outer loop
      vertex 9.59223 4.27074 0
      vertex 9.27095 4.92945 0
      vertex 9.27095 4.92945 58
    endloop
  endfacet
  facet normal 0.898794 0.438371 0
    outer loop
      vertex 9.59223 4.27074 58
      vertex 9.59223 4.27074 0
      vertex 9.27095 4.92945 58
    endloop
  endfacet
  facet normal 0.866025 0.5 0
    outer loop
      vertex 9.27095 4.92945 0
      vertex 8.90451 5.56415 0
      vertex 8.90451 5.56415 58
    endloop
  endfacet
  facet normal 0.866025 0.5 0
    outer loop
      vertex 9.27095 4.92945 58
      vertex 9.27095 4.92945 0
      vertex 8.90451 5.56415 58
    endloop
  endfacet
  facet normal 0.829037 0.559193 0
    outer loop
      vertex 8.90451 5.56415 0
      vertex 8.49468 6.17174 0
      vertex 8.49468 6.17174 58
    endloop
  endfacet
  facet normal 0.829037 0.559193 0
    outer loop
      vertex 8.90451 5.56415 58
      vertex 8.90451 5.56415 0
      vertex 8.49468 6.17174 58
    endloop
  endfacet
  facet normal 0.788011 0.615661 0
    outer loop
      vertex 8.49468 6.17174 0
      vertex 8.04347 6.74927 0
      vertex 8.04347 6.74927 58
    endloop
  endfacet
  facet normal 0.788011 0.615661 0
    outer loop
      vertex 8.49468 6.17174 58
      vertex 8.49468 6.17174 0
      vertex 8.04347 6.74927 58
    endloop
  endfacet
  facet normal 0.743145 0.669131 0
    outer loop
      vertex 8.04347 6.74927 0
      vertex 7.55307 7.29391 0
      vertex 7.55307 7.29391 58
    endloop
  endfacet
  facet normal 0.743145 0.669131 0
    outer loop
      vertex 8.04347 6.74927 58
      vertex 8.04347 6.74927 0
      vertex 7.55307 7.29391 58
    endloop
  endfacet
  facet normal 0.694658 0.71934 0
    outer loop
      vertex 7.02587 7.80302 0
      vertex 7.02587 7.80302 58
      vertex 7.55307 7.29391 0
    endloop
  endfacet
  facet normal 0.694658 0.71934 0
    outer loop
      vertex 7.55307 7.29391 0
      vertex 7.02587 7.80302 58
      vertex 7.55307 7.29391 58
    endloop
  endfacet
  facet normal 0.642787 0.766045 0
    outer loop
      vertex 6.46444 8.27411 0
      vertex 6.46444 8.27411 58
      vertex 7.02587 7.80302 0
    endloop
  endfacet
  facet normal 0.642787 0.766045 0
    outer loop
      vertex 7.02587 7.80302 0
      vertex 6.46444 8.27411 58
      vertex 7.02587 7.80302 58
    endloop
  endfacet
  facet normal 0.587786 0.809017 0
    outer loop
      vertex 5.87153 8.7049 0
      vertex 5.87153 8.7049 58
      vertex 6.46444 8.27411 0
    endloop
  endfacet
  facet normal 0.587786 0.809017 0
    outer loop
      vertex 6.46444 8.27411 0
      vertex 5.87153 8.7049 58
      vertex 6.46444 8.27411 58
    endloop
  endfacet
  facet normal 0.529919 0.848048 0
    outer loop
      vertex 5.25 9.09327 0
      vertex 5.25 9.09327 58
      vertex 5.87153 8.7049 0
    endloop
  endfacet
  facet normal 0.529919 0.848048 0
    outer loop
      vertex 5.87153 8.7049 0
      vertex 5.25 9.09327 58
      vertex 5.87153 8.7049 58
    endloop
  endfacet
  facet normal 0.469471 0.882948 0
    outer loop
      vertex 4.6029 9.43734 0
      vertex 4.6029 9.43734 58
      vertex 5.25 9.09327 0
    endloop
  endfacet
  facet normal 0.469471 0.882948 0
    outer loop
      vertex 5.25 9.09327 0
      vertex 4.6029 9.43734 58
      vertex 5.25 9.09327 58
    endloop
  endfacet
  facet normal 0.406737 0.913545 0
    outer loop
      vertex 3.93337 9.73543 0
      vertex 3.93337 9.73543 58
      vertex 4.6029 9.43734 0
    endloop
  endfacet
  facet normal 0.406737 0.913545 0
    outer loop
      vertex 4.6029 9.43734 0
      vertex 3.93337 9.73543 58
      vertex 4.6029 9.43734 58
    endloop
  endfacet
  facet normal 0.34202 0.939693 0
    outer loop
      vertex 3.24468 9.98609 0
      vertex 3.24468 9.98609 58
      vertex 3.93337 9.73543 0
    endloop
  endfacet
  facet normal 0.34202 0.939693 0
    outer loop
      vertex 3.93337 9.73543 0
      vertex 3.24468 9.98609 58
      vertex 3.93337 9.73543 58
    endloop
  endfacet
  facet normal 0.275638 0.961262 0
    outer loop
      vertex 2.54018 10.1881 0
      vertex 2.54018 10.1881 58
      vertex 3.24468 9.98609 0
    endloop
  endfacet
  facet normal 0.275638 0.961262 0
    outer loop
      vertex 3.24468 9.98609 0
      vertex 2.54018 10.1881 58
      vertex 3.24468 9.98609 58
    endloop
  endfacet
  facet normal 0.207911 0.978148 0
    outer loop
      vertex 1.82331 10.3405 0
      vertex 1.82331 10.3405 58
      vertex 2.54018 10.1881 0
    endloop
  endfacet
  facet normal 0.207911 0.978148 0
    outer loop
      vertex 2.54018 10.1881 0
      vertex 1.82331 10.3405 58
      vertex 2.54018 10.1881 58
    endloop
  endfacet
  facet normal 0.139174 0.990268 0
    outer loop
      vertex 1.09755 10.4425 0
      vertex 1.09755 10.4425 58
      vertex 1.82331 10.3405 0
    endloop
  endfacet
  facet normal 0.139174 0.990268 0
    outer loop
      vertex 1.82331 10.3405 0
      vertex 1.09755 10.4425 58
      vertex 1.82331 10.3405 58
    endloop
  endfacet
  facet normal 0.0697568 0.997564 0
    outer loop
      vertex 0.366445 10.4936 0
      vertex 0.366445 10.4936 58
      vertex 1.09755 10.4425 0
    endloop
  endfacet
  facet normal 0.0697568 0.997564 0
    outer loop
      vertex 1.09755 10.4425 0
      vertex 0.366445 10.4936 58
      vertex 1.09755 10.4425 58
    endloop
  endfacet
  facet normal 0 1 0
    outer loop
      vertex 0 10.4936 0
      vertex 0 10.4936 58
      vertex 0.366445 10.4936 0
    endloop
  endfacet
  facet normal 0 1 0
    outer loop
      vertex 0.366445 10.4936 0
      vertex 0 10.4936 58
      vertex 0.366445 10.4936 58
    endloop
  endfacet
  facet normal 1 0 0
    outer loop
      vertex 0 10.4936 58
      vertex 0 10.4936 0
      vertex 0 10.5 0
    endloop
  endfacet
  facet normal 1 0 0
    outer loop
      vertex 0 10.5 58
      vertex 0 10.4936 58
      vertex 0 10.5 0
    endloop
  endfacet
  facet normal 0 1 0
    outer loop
      vertex -13.25 10.5 30
      vertex -23.5 10.5 58
      vertex 0 10.5 0
    endloop
  endfacet
  facet normal 0 1 0
    outer loop
      vertex 0 10.5 0
      vertex -23.5 10.5 58
      vertex 0 10.5 58
    endloop
  endfacet
  facet normal 0 1 0
    outer loop
      vertex -23.5 10.5 0
      vertex -23.5 10.5 58
      vertex -16.75 10.5 30
    endloop
  endfacet
  facet normal 0 1 0
    outer loop
      vertex -23.5 10.5 0
      vertex -16.75 10.5 30
      vertex 0 10.5 0
    endloop
  endfacet
  facet normal 0 1 0
    outer loop
      vertex -15.875 10.5 31.5155
      vertex -23.5 10.5 58
      vertex -14.125 10.5 31.5155
    endloop
  endfacet
  facet normal 0 1 0
    outer loop
      vertex -16.75 10.5 30
      vertex -15.875 10.5 28.4845
      vertex 0 10.5 0
    endloop
  endfacet
  facet normal 0 1 0
    outer loop
      vertex -15.875 10.5 28.4845
      vertex -14.125 10.5 28.4845
      vertex 0 10.5 0
    endloop
  endfacet
  facet normal 0 1 0
    outer loop
      vertex -14.125 10.5 31.5155
      vertex -23.5 10.5 58
      vertex -13.25 10.5 30
    endloop
  endfacet
  facet normal 0 1 0
    outer loop
      vertex -14.125 10.5 28.4845
      vertex -13.25 10.5 30
      vertex 0 10.5 0
    endloop
  endfacet
  facet normal 0 1 0
    outer loop
      vertex -16.75 10.5 30
      vertex -23.5 10.5 58
      vertex -15.875 10.5 31.5155
    endloop
  endfacet
  facet normal 1 0 0
    outer loop
      vertex -27.5 -3.5 0
      vertex -27.5 -3.5 15
      vertex -27.5 -11.5 15
    endloop
  endfacet
  facet normal 1 0 0
    outer loop
      vertex -27.5 -11.5 0
      vertex -27.5 -3.5 0
      vertex -27.5 -11.5 15
    endloop
  endfacet
  facet normal 1 0 0
    outer loop
      vertex -27.5 -3.5 25
      vertex -27.5 -3.5 40
      vertex -27.5 -11.5 40
    endloop
  endfacet
  facet normal 1 0 0
    outer loop
      vertex -27.5 -11.5 25
      vertex -27.5 -3.5 25
      vertex -27.5 -11.5 40
    endloop
  endfacet
  facet normal 0 0 1
    outer loop
      vertex -23.5 10.5 58
      vertex -23.5 -28.5 58
      vertex -6.5 -28.5 58
    endloop
  endfacet
  facet normal 0 0 1
    outer loop
      vertex 0 -10.5 58
      vertex -23.5 10.5 58
      vertex -6.5 -10.5 58
    endloop
  endfacet
  facet normal 0 0 1
    outer loop
      vertex -6.5 -10.5 58
      vertex -23.5 10.5 58
      vertex -6.5 -28.5 58
    endloop
  endfacet
  facet normal 0 0 1
    outer loop
      vertex 0 -10.4936 58
      vertex -23.5 10.5 58
      vertex 0 -10.5 58
    endloop
  endfacet
  facet normal 0 0 1
    outer loop
      vertex -5.11304 -5.6786 58
      vertex -23.5 10.5 58
      vertex 0 -10.4936 58
    endloop
  endfacet
  facet normal 0 0 1
    outer loop
      vertex -5.11304 -5.6786 58
      vertex -6.18195 -4.49145 58
      vertex -23.5 10.5 58
    endloop
  endfacet
  facet normal 0 0 1
    outer loop
      vertex -7.47433 -1.58872 58
      vertex -7.64131 0 58
      vertex -23.5 10.5 58
    endloop
  endfacet
  facet normal 0 0 1
    outer loop
      vertex -2.36129 -7.26732 58
      vertex -3.82066 -6.61757 58
      vertex 1.09755 -10.4425 58
    endloop
  endfacet
  facet normal 0 0 1
    outer loop
      vertex -0.798735 -7.59945 58
      vertex -2.36129 -7.26732 58
      vertex 1.82331 -10.3405 58
    endloop
  endfacet
  facet normal 0 0 1
    outer loop
      vertex 2.13083 -7.31631 58
      vertex 0.798735 -7.59945 58
      vertex 3.11598 -10.023 58
    endloop
  endfacet
  facet normal 0 0 1
    outer loop
      vertex 2.54018 -10.1881 58
      vertex -0.798735 -7.59945 58
      vertex 1.82331 -10.3405 58
    endloop
  endfacet
  facet normal 0 0 1
    outer loop
      vertex 1.82331 -10.3405 58
      vertex -2.36129 -7.26732 58
      vertex 1.09755 -10.4425 58
    endloop
  endfacet
  facet normal 0 0 1
    outer loop
      vertex 1.09755 -10.4425 58
      vertex -3.82066 -6.61757 58
      vertex 0.366445 -10.4936 58
    endloop
  endfacet
  facet normal 0 0 1
    outer loop
      vertex 0.366445 -10.4936 58
      vertex -5.11304 -5.6786 58
      vertex 0 -10.4936 58
    endloop
  endfacet
  facet normal 0 0 1
    outer loop
      vertex -6.18195 -4.49145 58
      vertex -6.98069 -3.108 58
      vertex -23.5 10.5 58
    endloop
  endfacet
  facet normal 0 0 1
    outer loop
      vertex -3.82066 -6.61757 58
      vertex -5.11304 -5.6786 58
      vertex 0.366445 -10.4936 58
    endloop
  endfacet
  facet normal 0 0 1
    outer loop
      vertex -6.98069 -3.108 58
      vertex -7.47433 -1.58872 58
      vertex -23.5 10.5 58
    endloop
  endfacet
  facet normal 0 0 1
    outer loop
      vertex -7.47433 1.58872 58
      vertex -23.5 10.5 58
      vertex -7.64131 0 58
    endloop
  endfacet
  facet normal 0 0 1
    outer loop
      vertex -6.98069 3.108 58
      vertex -23.5 10.5 58
      vertex -7.47433 1.58872 58
    endloop
  endfacet
  facet normal 0 0 1
    outer loop
      vertex -6.18195 4.49145 58
      vertex -23.5 10.5 58
      vertex -6.98069 3.108 58
    endloop
  endfacet
  facet normal 0 0 1
    outer loop
      vertex -5.11304 5.6786 58
      vertex -23.5 10.5 58
      vertex -6.18195 4.49145 58
    endloop
  endfacet
  facet normal 0 0 1
    outer loop
      vertex -3.82066 6.61757 58
      vertex -23.5 10.5 58
      vertex -5.11304 5.6786 58
    endloop
  endfacet
  facet normal 0 0 1
    outer loop
      vertex -2.36129 7.26732 58
      vertex -23.5 10.5 58
      vertex -3.82066 6.61757 58
    endloop
  endfacet
  facet normal 0 0 1
    outer loop
      vertex -0.798735 7.59945 58
      vertex -23.5 10.5 58
      vertex -2.36129 7.26732 58
    endloop
  endfacet
  facet normal 0 0 1
    outer loop
      vertex 0.798735 7.59945 58
      vertex -23.5 10.5 58
      vertex -0.798735 7.59945 58
    endloop
  endfacet
  facet normal 0 0 1
    outer loop
      vertex 8.04347 6.74927 58
      vertex -23.5 10.5 58
      vertex 0.798735 7.59945 58
    endloop
  endfacet
  facet normal 0 0 1
    outer loop
      vertex 8.49468 6.17174 58
      vertex 0.798735 7.59945 58
      vertex 2.36129 7.26732 58
    endloop
  endfacet
  facet normal 0 0 1
    outer loop
      vertex 9.59223 4.27074 58
      vertex 2.36129 7.26732 58
      vertex 3.82066 6.61757 58
    endloop
  endfacet
  facet normal 0 0 1
    outer loop
      vertex 6.18195 -4.49145 58
      vertex 4.05568 -9.68098 58
      vertex 6.98069 -3.108 58
    endloop
  endfacet
  facet normal 0 0 1
    outer loop
      vertex 10.2706 2.18307 58
      vertex 3.82066 6.61757 58
      vertex 5.11304 5.6786 58
    endloop
  endfacet
  facet normal 0 0 1
    outer loop
      vertex 10.5 0 58
      vertex 5.11304 5.6786 58
      vertex 6.18195 4.49145 58
    endloop
  endfacet
  facet normal 0 0 1
    outer loop
      vertex 10.2706 -2.18307 58
      vertex 6.18195 4.49145 58
      vertex 6.98069 3.108 58
    endloop
  endfacet
  facet normal 0 0 1
    outer loop
      vertex 5.11304 -5.6786 58
      vertex 4.05568 -9.68098 58
      vertex 6.18195 -4.49145 58
    endloop
  endfacet
  facet normal 0 0 1
    outer loop
      vertex 9.59223 -4.27074 58
      vertex 6.98069 3.108 58
      vertex 7.47433 1.58872 58
    endloop
  endfacet
  facet normal 0 0 1
    outer loop
      vertex 3.82066 -6.61757 58
      vertex 4.05568 -9.68098 58
      vertex 5.11304 -5.6786 58
    endloop
  endfacet
  facet normal 0 0 1
    outer loop
      vertex 8.49468 -6.17174 58
      vertex 7.47433 1.58872 58
      vertex 7.64131 0 58
    endloop
  endfacet
  facet normal 0 0 1
    outer loop
      vertex 7.02587 -7.80302 58
      vertex 7.64131 0 58
      vertex 7.47433 -1.58872 58
    endloop
  endfacet
  facet normal 0 0 1
    outer loop
      vertex 0 10.4936 58
      vertex 0 10.5 58
      vertex -23.5 10.5 58
    endloop
  endfacet
  facet normal 0 0 1
    outer loop
      vertex 5.25 -9.09327 58
      vertex 7.47433 -1.58872 58
      vertex 6.98069 -3.108 58
    endloop
  endfacet
  facet normal 0 0 1
    outer loop
      vertex 4.6029 -9.43734 58
      vertex 6.98069 -3.108 58
      vertex 4.05568 -9.68098 58
    endloop
  endfacet
  facet normal 0 0 1
    outer loop
      vertex 5.25 -9.09327 58
      vertex 6.98069 -3.108 58
      vertex 4.6029 -9.43734 58
    endloop
  endfacet
  facet normal 0 0 1
    outer loop
      vertex 5.87153 -8.7049 58
      vertex 7.47433 -1.58872 58
      vertex 5.25 -9.09327 58
    endloop
  endfacet
  facet normal 0 0 1
    outer loop
      vertex 6.46444 -8.27411 58
      vertex 7.47433 -1.58872 58
      vertex 5.87153 -8.7049 58
    endloop
  endfacet
  facet normal 0 0 1
    outer loop
      vertex 7.02587 -7.80302 58
      vertex 7.47433 -1.58872 58
      vertex 6.46444 -8.27411 58
    endloop
  endfacet
  facet normal 0 0 1
    outer loop
      vertex 7.55307 -7.29391 58
      vertex 7.64131 0 58
      vertex 7.02587 -7.80302 58
    endloop
  endfacet
  facet normal 0 0 1
    outer loop
      vertex 8.04347 -6.74927 58
      vertex 7.64131 0 58
      vertex 7.55307 -7.29391 58
    endloop
  endfacet
  facet normal 0 0 1
    outer loop
      vertex 8.49468 -6.17174 58
      vertex 7.64131 0 58
      vertex 8.04347 -6.74927 58
    endloop
  endfacet
  facet normal 0 0 1
    outer loop
      vertex 8.90451 -5.56415 58
      vertex 7.47433 1.58872 58
      vertex 8.49468 -6.17174 58
    endloop
  endfacet
  facet normal 0 0 1
    outer loop
      vertex 9.27095 -4.92945 58
      vertex 7.47433 1.58872 58
      vertex 8.90451 -5.56415 58
    endloop
  endfacet
  facet normal 0 0 1
    outer loop
      vertex 9.59223 -4.27074 58
      vertex 7.47433 1.58872 58
      vertex 9.27095 -4.92945 58
    endloop
  endfacet
  facet normal 0 0 1
    outer loop
      vertex 9.86677 -3.59121 58
      vertex 6.98069 3.108 58
      vertex 9.59223 -4.27074 58
    endloop
  endfacet
  facet normal 0 0 1
    outer loop
      vertex 10.0932 -2.89419 58
      vertex 6.98069 3.108 58
      vertex 9.86677 -3.59121 58
    endloop
  endfacet
  facet normal 0 0 1
    outer loop
      vertex 10.2706 -2.18307 58
      vertex 6.98069 3.108 58
      vertex 10.0932 -2.89419 58
    endloop
  endfacet
  facet normal 0 0 1
    outer loop
      vertex 10.3978 -1.46132 58
      vertex 6.18195 4.49145 58
      vertex 10.2706 -2.18307 58
    endloop
  endfacet
  facet normal 0 0 1
    outer loop
      vertex 10.4744 -0.732443 58
      vertex 6.18195 4.49145 58
      vertex 10.3978 -1.46132 58
    endloop
  endfacet
  facet normal 0 0 1
    outer loop
      vertex 10.5 0 58
      vertex 6.18195 4.49145 58
      vertex 10.4744 -0.732443 58
    endloop
  endfacet
  facet normal 0 0 1
    outer loop
      vertex 10.4744 0.732443 58
      vertex 5.11304 5.6786 58
      vertex 10.5 0 58
    endloop
  endfacet
  facet normal 0 0 1
    outer loop
      vertex 10.3978 1.46132 58
      vertex 5.11304 5.6786 58
      vertex 10.4744 0.732443 58
    endloop
  endfacet
  facet normal 0 0 1
    outer loop
      vertex 10.2706 2.18307 58
      vertex 5.11304 5.6786 58
      vertex 10.3978 1.46132 58
    endloop
  endfacet
  facet normal 0 0 1
    outer loop
      vertex 10.0932 2.89419 58
      vertex 3.82066 6.61757 58
      vertex 10.2706 2.18307 58
    endloop
  endfacet
  facet normal 0 0 1
    outer loop
      vertex 9.86677 3.59121 58
      vertex 3.82066 6.61757 58
      vertex 10.0932 2.89419 58
    endloop
  endfacet
  facet normal 0 0 1
    outer loop
      vertex 9.59223 4.27074 58
      vertex 3.82066 6.61757 58
      vertex 9.86677 3.59121 58
    endloop
  endfacet
  facet normal 0 0 1
    outer loop
      vertex 9.27095 4.92945 58
      vertex 2.36129 7.26732 58
      vertex 9.59223 4.27074 58
    endloop
  endfacet
  facet normal 0 0 1
    outer loop
      vertex 8.90451 5.56415 58
      vertex 2.36129 7.26732 58
      vertex 9.27095 4.92945 58
    endloop
  endfacet
  facet normal 0 0 1
    outer loop
      vertex 8.49468 6.17174 58
      vertex 2.36129 7.26732 58
      vertex 8.90451 5.56415 58
    endloop
  endfacet
  facet normal 0 0 1
    outer loop
      vertex 8.04347 6.74927 58
      vertex 0.798735 7.59945 58
      vertex 8.49468 6.17174 58
    endloop
  endfacet
  facet normal 0 0 1
    outer loop
      vertex 7.55307 7.29391 58
      vertex -23.5 10.5 58
      vertex 8.04347 6.74927 58
    endloop
  endfacet
  facet normal 0 0 1
    outer loop
      vertex 7.02587 7.80302 58
      vertex -23.5 10.5 58
      vertex 7.55307 7.29391 58
    endloop
  endfacet
  facet normal 0 0 1
    outer loop
      vertex 6.46444 8.27411 58
      vertex -23.5 10.5 58
      vertex 7.02587 7.80302 58
    endloop
  endfacet
  facet normal 0 0 1
    outer loop
      vertex 5.87153 8.7049 58
      vertex -23.5 10.5 58
      vertex 6.46444 8.27411 58
    endloop
  endfacet
  facet normal 0 0 1
    outer loop
      vertex 5.25 9.09327 58
      vertex -23.5 10.5 58
      vertex 5.87153 8.7049 58
    endloop
  endfacet
  facet normal 0 0 1
    outer loop
      vertex 4.6029 9.43734 58
      vertex -23.5 10.5 58
      vertex 5.25 9.09327 58
    endloop
  endfacet
  facet normal 0 0 1
    outer loop
      vertex 3.93337 9.73543 58
      vertex -23.5 10.5 58
      vertex 4.6029 9.43734 58
    endloop
  endfacet
  facet normal 0 0 1
    outer loop
      vertex 3.24468 9.98609 58
      vertex -23.5 10.5 58
      vertex 3.93337 9.73543 58
    endloop
  endfacet
  facet normal 0 0 1
    outer loop
      vertex 2.54018 10.1881 58
      vertex -23.5 10.5 58
      vertex 3.24468 9.98609 58
    endloop
  endfacet
  facet normal 0 0 1
    outer loop
      vertex 1.82331 10.3405 58
      vertex -23.5 10.5 58
      vertex 2.54018 10.1881 58
    endloop
  endfacet
  facet normal 0 0 1
    outer loop
      vertex 1.09755 10.4425 58
      vertex -23.5 10.5 58
      vertex 1.82331 10.3405 58
    endloop
  endfacet
  facet normal 0 0 1
    outer loop
      vertex 0 10.4936 58
      vertex -23.5 10.5 58
      vertex 1.09755 10.4425 58
    endloop
  endfacet
  facet normal 0 0 1
    outer loop
      vertex 0.366445 10.4936 58
      vertex 0 10.4936 58
      vertex 1.09755 10.4425 58
    endloop
  endfacet
  facet normal 0 0 1
    outer loop
      vertex 0.798735 -7.59945 58
      vertex 2.54018 -10.1881 58
      vertex 3.11598 -10.023 58
    endloop
  endfacet
  facet normal 0 0 1
    outer loop
      vertex 0.798735 -7.59945 58
      vertex -0.798735 -7.59945 58
      vertex 2.54018 -10.1881 58
    endloop
  endfacet
  facet normal 0 0 1
    outer loop
      vertex 3.0634 -6.95472 58
      vertex 4.05568 -9.68098 58
      vertex 3.82066 -6.61757 58
    endloop
  endfacet
  facet normal 0 -1 0
    outer loop
      vertex -23.5 -28.5 58
      vertex -23.5 -28.5 43.6421
      vertex -17.2868 -28.5 43.6421
    endloop
  endfacet
  facet normal 0 -1 0
    outer loop
      vertex -18.9074 -28.5 49.3815
      vertex -23.5 -28.5 58
      vertex -16.9289 -28.5 44
    endloop
  endfacet
  facet normal 0 -1 0
    outer loop
      vertex -16.9289 -28.5 44
      vertex -23.5 -28.5 58
      vertex -17.2868 -28.5 43.6421
    endloop
  endfacet
  facet normal 0 -1 0
    outer loop
      vertex -18.9074 -28.5 52.6185
      vertex -17.9906 -28.5 53.9906
      vertex -23.5 -28.5 58
    endloop
  endfacet
  facet normal 0 -1 0
    outer loop
      vertex -17.9906 -28.5 48.0094
      vertex -18.9074 -28.5 49.3815
      vertex -16.9289 -28.5 44
    endloop
  endfacet
  facet normal 0 -1 0
    outer loop
      vertex -19.2293 -28.5 51
      vertex -23.5 -28.5 58
      vertex -18.9074 -28.5 49.3815
    endloop
  endfacet
  facet normal 0 -1 0
    outer loop
      vertex -16.2559 -28.5 55.45
      vertex -13.7441 -28.5 55.45
      vertex -6.5 -28.5 58
    endloop
  endfacet
  facet normal 0 -1 0
    outer loop
      vertex -12.0094 -28.5 48.0094
      vertex -13.3815 -28.5 47.0926
      vertex -6.5 -28.5 43.6421
    endloop
  endfacet
  facet normal 0 -1 0
    outer loop
      vertex -17.1609 -28.5 54.545
      vertex -23.5 -28.5 58
      vertex -17.9906 -28.5 53.9906
    endloop
  endfacet
  facet normal 0 -1 0
    outer loop
      vertex -11.0926 -28.5 52.6185
      vertex -10.7707 -28.5 51
      vertex -6.5 -28.5 43.6421
    endloop
  endfacet
  facet normal 0 -1 0
    outer loop
      vertex -16.2559 -28.5 55.45
      vertex -23.5 -28.5 58
      vertex -17.1609 -28.5 54.545
    endloop
  endfacet
  facet normal 0 -1 0
    outer loop
      vertex -10.7707 -28.5 51
      vertex -11.0926 -28.5 49.3815
      vertex -6.5 -28.5 43.6421
    endloop
  endfacet
  facet normal 0 -1 0
    outer loop
      vertex -6.5 -28.5 58
      vertex -23.5 -28.5 58
      vertex -16.2559 -28.5 55.45
    endloop
  endfacet
  facet normal 0 -1 0
    outer loop
      vertex -11.0926 -28.5 49.3815
      vertex -12.0094 -28.5 48.0094
      vertex -6.5 -28.5 43.6421
    endloop
  endfacet
  facet normal 0 -1 0
    outer loop
      vertex -15 -28.5 46.7707
      vertex -16.6185 -28.5 47.0926
      vertex -13.0711 -28.5 44
    endloop
  endfacet
  facet normal 0 -1 0
    outer loop
      vertex -6.5 -28.5 58
      vertex -13.7441 -28.5 55.45
      vertex -12.8391 -28.5 54.545
    endloop
  endfacet
  facet normal 0 -1 0
    outer loop
      vertex -6.5 -28.5 58
      vertex -12.8391 -28.5 54.545
      vertex -12.0094 -28.5 53.9906
    endloop
  endfacet
  facet normal 0 -1 0
    outer loop
      vertex -6.5 -28.5 58
      vertex -11.0926 -28.5 52.6185
      vertex -6.5 -28.5 43.6421
    endloop
  endfacet
  facet normal 0 -1 0
    outer loop
      vertex -6.5 -28.5 58
      vertex -12.0094 -28.5 53.9906
      vertex -11.0926 -28.5 52.6185
    endloop
  endfacet
  facet normal 0 -1 0
    outer loop
      vertex -13.3815 -28.5 47.0926
      vertex -15 -28.5 46.7707
      vertex -12.7132 -28.5 43.6421
    endloop
  endfacet
  facet normal 0 -1 0
    outer loop
      vertex -6.5 -28.5 43.6421
      vertex -13.3815 -28.5 47.0926
      vertex -12.7132 -28.5 43.6421
    endloop
  endfacet
  facet normal 0 -1 0
    outer loop
      vertex -13.0711 -28.5 44
      vertex -16.6185 -28.5 47.0926
      vertex -16.9289 -28.5 44
    endloop
  endfacet
  facet normal 0 -1 0
    outer loop
      vertex -16.6185 -28.5 47.0926
      vertex -17.9906 -28.5 48.0094
      vertex -16.9289 -28.5 44
    endloop
  endfacet
  facet normal 0 -1 0
    outer loop
      vertex -15 -28.5 46.7707
      vertex -13.0711 -28.5 44
      vertex -12.7132 -28.5 43.6421
    endloop
  endfacet
  facet normal 0 -1 0
    outer loop
      vertex -19.2293 -28.5 51
      vertex -18.9074 -28.5 52.6185
      vertex -23.5 -28.5 58
    endloop
  endfacet
  facet normal 0.707107 0 -0.707107
    outer loop
      vertex -20 -25.7868 40.9289
      vertex -20 8 40.9289
      vertex -17.2868 -28.5 43.6421
    endloop
  endfacet
  facet normal 0.707107 0 -0.707107
    outer loop
      vertex -17.2868 -28.5 43.6421
      vertex -20 8 40.9289
      vertex -16.9289 8 44
    endloop
  endfacet
  facet normal 0.707107 0 -0.707107
    outer loop
      vertex -17.2868 -28.5 43.6421
      vertex -16.9289 8 44
      vertex -16.9289 -28.5 44
    endloop
  endfacet
  facet normal 1 0 0
    outer loop
      vertex -20 -14.8579 30
      vertex -20 -25.7868 19.0711
      vertex -20 8 19.0711
    endloop
  endfacet
  facet normal 1 0 0
    outer loop
      vertex -20 -25.7868 40.9289
      vertex -20 -14.8579 30
      vertex -20 8 40.9289
    endloop
  endfacet
  facet normal 1 0 0
    outer loop
      vertex -20 8 40.9289
      vertex -20 -14.8579 30
      vertex -20 8 19.0711
    endloop
  endfacet
  facet normal 0.707107 0 0.707107
    outer loop
      vertex -20 8 19.0711
      vertex -20 -25.7868 19.0711
      vertex -17.2868 -28.5 16.3579
    endloop
  endfacet
  facet normal 0.707107 0 0.707107
    outer loop
      vertex -16.9289 8 16
      vertex -20 8 19.0711
      vertex -16.9289 -28.5 16
    endloop
  endfacet
  facet normal 0.707107 0 0.707107
    outer loop
      vertex -16.9289 -28.5 16
      vertex -20 8 19.0711
      vertex -17.2868 -28.5 16.3579
    endloop
  endfacet
  facet normal 0 0 1
    outer loop
      vertex -13.0711 -28.5 16
      vertex -13.0711 8 16
      vertex -16.9289 8 16
    endloop
  endfacet
  facet normal 0 0 1
    outer loop
      vertex -16.9289 -28.5 16
      vertex -13.0711 -28.5 16
      vertex -16.9289 8 16
    endloop
  endfacet
  facet normal -0.707107 0 0.707107
    outer loop
      vertex -13.0711 8 16
      vertex -13.0711 -28.5 16
      vertex -12.7132 -28.5 16.3579
    endloop
  endfacet
  facet normal -0.707107 0 0.707107
    outer loop
      vertex -10 8 19.0711
      vertex -13.0711 8 16
      vertex -10 -25.7868 19.0711
    endloop
  endfacet
  facet normal -0.707107 0 0.707107
    outer loop
      vertex -10 -25.7868 19.0711
      vertex -13.0711 8 16
      vertex -12.7132 -28.5 16.3579
    endloop
  endfacet
  facet normal 0 -0.707107 0.707107
    outer loop
      vertex -6.5 -28.5 16.3579
      vertex -6.5 -14.8579 30
      vertex -10 -14.8579 30
    endloop
  endfacet
  facet normal 0 -0.707107 0.707107
    outer loop
      vertex -12.7132 -28.5 16.3579
      vertex -6.5 -28.5 16.3579
      vertex -10 -25.7868 19.0711
    endloop
  endfacet
  facet normal 0 -0.707107 0.707107
    outer loop
      vertex -10 -25.7868 19.0711
      vertex -6.5 -28.5 16.3579
      vertex -10 -14.8579 30
    endloop
  endfacet
  facet normal 0.980785 -4.33187e-017 0.19509
    outer loop
      vertex -18.9074 -28.5 4.3815
      vertex -18.9074 -1.5 4.3815
      vertex -19.2293 -1.5 6
    endloop
  endfacet
  facet normal 0.980785 -4.33187e-017 0.19509
    outer loop
      vertex -19.2293 -28.5 6
      vertex -18.9074 -28.5 4.3815
      vertex -19.2293 -1.5 6
    endloop
  endfacet
  facet normal 0.831469 -1.23361e-016 0.55557
    outer loop
      vertex -17.9906 -28.5 3.0094
      vertex -17.9906 -1.5 3.0094
      vertex -18.9074 -1.5 4.3815
    endloop
  endfacet
  facet normal 0.831469 -1.23361e-016 0.55557
    outer loop
      vertex -18.9074 -28.5 4.3815
      vertex -17.9906 -28.5 3.0094
      vertex -18.9074 -1.5 4.3815
    endloop
  endfacet
  facet normal 0.55557 -1.84623e-016 0.831469
    outer loop
      vertex -16.6185 -28.5 2.0926
      vertex -16.6185 -1.5 2.0926
      vertex -17.9906 -1.5 3.0094
    endloop
  endfacet
  facet normal 0.55557 -1.84623e-016 0.831469
    outer loop
      vertex -17.9906 -28.5 3.0094
      vertex -16.6185 -28.5 2.0926
      vertex -17.9906 -1.5 3.0094
    endloop
  endfacet
  facet normal 0.19509 -2.17778e-016 0.980785
    outer loop
      vertex -15 -28.5 1.77066
      vertex -15 -1.5 1.77066
      vertex -16.6185 -1.5 2.0926
    endloop
  endfacet
  facet normal 0.19509 -2.17778e-016 0.980785
    outer loop
      vertex -16.6185 -28.5 2.0926
      vertex -15 -28.5 1.77066
      vertex -16.6185 -1.5 2.0926
    endloop
  endfacet
  facet normal -0.19509 -2.17778e-016 0.980785
    outer loop
      vertex -13.3815 -28.5 2.0926
      vertex -13.3815 -1.5 2.0926
      vertex -15 -1.5 1.77066
    endloop
  endfacet
  facet normal -0.19509 -2.17778e-016 0.980785
    outer loop
      vertex -15 -28.5 1.77066
      vertex -13.3815 -28.5 2.0926
      vertex -15 -1.5 1.77066
    endloop
  endfacet
  facet normal -0.55557 -1.84623e-016 0.831469
    outer loop
      vertex -12.0094 -28.5 3.0094
      vertex -12.0094 -1.5 3.0094
      vertex -13.3815 -1.5 2.0926
    endloop
  endfacet
  facet normal -0.55557 -1.84623e-016 0.831469
    outer loop
      vertex -13.3815 -28.5 2.0926
      vertex -12.0094 -28.5 3.0094
      vertex -13.3815 -1.5 2.0926
    endloop
  endfacet
  facet normal -0.831469 -1.23361e-016 0.55557
    outer loop
      vertex -11.0926 -1.5 4.3815
      vertex -12.0094 -1.5 3.0094
      vertex -11.0926 -28.5 4.3815
    endloop
  endfacet
  facet normal -0.831469 -1.23361e-016 0.55557
    outer loop
      vertex -11.0926 -28.5 4.3815
      vertex -12.0094 -1.5 3.0094
      vertex -12.0094 -28.5 3.0094
    endloop
  endfacet
  facet normal -0.980785 -4.33187e-017 0.19509
    outer loop
      vertex -10.7707 -1.5 6
      vertex -11.0926 -1.5 4.3815
      vertex -10.7707 -28.5 6
    endloop
  endfacet
  facet normal -0.980785 -4.33187e-017 0.19509
    outer loop
      vertex -10.7707 -28.5 6
      vertex -11.0926 -1.5 4.3815
      vertex -11.0926 -28.5 4.3815
    endloop
  endfacet
  facet normal -0.980785 4.33187e-017 -0.19509
    outer loop
      vertex -10.7707 -1.5 6
      vertex -10.7707 -28.5 6
      vertex -11.0926 -1.5 7.6185
    endloop
  endfacet
  facet normal -0.980785 4.33187e-017 -0.19509
    outer loop
      vertex -11.0926 -1.5 7.6185
      vertex -10.7707 -28.5 6
      vertex -11.0926 -28.5 7.6185
    endloop
  endfacet
  facet normal -0.831469 1.23361e-016 -0.55557
    outer loop
      vertex -11.0926 -1.5 7.6185
      vertex -11.0926 -28.5 7.6185
      vertex -12.0094 -1.5 8.9906
    endloop
  endfacet
  facet normal -0.831469 1.23361e-016 -0.55557
    outer loop
      vertex -12.0094 -1.5 8.9906
      vertex -11.0926 -28.5 7.6185
      vertex -12.0094 -28.5 8.9906
    endloop
  endfacet
  facet normal -0.55557 1.84623e-016 -0.831469
    outer loop
      vertex -12.0094 -1.5 8.9906
      vertex -12.0094 -28.5 8.9906
      vertex -12.8391 -1.5 9.54498
    endloop
  endfacet
  facet normal -0.55557 1.84623e-016 -0.831469
    outer loop
      vertex -12.8391 -1.5 9.54498
      vertex -12.0094 -28.5 8.9906
      vertex -12.8391 -28.5 9.54498
    endloop
  endfacet
  facet normal -0.707107 1.57009e-016 -0.707107
    outer loop
      vertex -12.8391 -1.5 9.54498
      vertex -12.8391 -28.5 9.54498
      vertex -13.7441 -1.5 10.45
    endloop
  endfacet
  facet normal -0.707107 1.57009e-016 -0.707107
    outer loop
      vertex -13.7441 -1.5 10.45
      vertex -12.8391 -28.5 9.54498
      vertex -13.7441 -28.5 10.45
    endloop
  endfacet
  facet normal 0 2.22045e-016 -1
    outer loop
      vertex -16.2559 -28.5 10.45
      vertex -16.2559 -1.5 10.45
      vertex -13.7441 -28.5 10.45
    endloop
  endfacet
  facet normal 0 2.22045e-016 -1
    outer loop
      vertex -13.7441 -28.5 10.45
      vertex -16.2559 -1.5 10.45
      vertex -13.7441 -1.5 10.45
    endloop
  endfacet
  facet normal 0.707107 1.57009e-016 -0.707107
    outer loop
      vertex -16.2559 -1.5 10.45
      vertex -16.2559 -28.5 10.45
      vertex -17.1609 -1.5 9.54498
    endloop
  endfacet
  facet normal 0.707107 1.57009e-016 -0.707107
    outer loop
      vertex -17.1609 -1.5 9.54498
      vertex -16.2559 -28.5 10.45
      vertex -17.1609 -28.5 9.54498
    endloop
  endfacet
  facet normal 0.55557 1.84623e-016 -0.831469
    outer loop
      vertex -17.1609 -1.5 9.54498
      vertex -17.1609 -28.5 9.54498
      vertex -17.9906 -1.5 8.9906
    endloop
  endfacet
  facet normal 0.55557 1.84623e-016 -0.831469
    outer loop
      vertex -17.9906 -1.5 8.9906
      vertex -17.1609 -28.5 9.54498
      vertex -17.9906 -28.5 8.9906
    endloop
  endfacet
  facet normal 0.831469 1.23361e-016 -0.55557
    outer loop
      vertex -18.9074 -1.5 7.6185
      vertex -17.9906 -1.5 8.9906
      vertex -17.9906 -28.5 8.9906
    endloop
  endfacet
  facet normal 0.831469 1.23361e-016 -0.55557
    outer loop
      vertex -18.9074 -28.5 7.6185
      vertex -18.9074 -1.5 7.6185
      vertex -17.9906 -28.5 8.9906
    endloop
  endfacet
  facet normal 0.980785 4.33187e-017 -0.19509
    outer loop
      vertex -19.2293 -1.5 6
      vertex -18.9074 -1.5 7.6185
      vertex -18.9074 -28.5 7.6185
    endloop
  endfacet
  facet normal 0.980785 4.33187e-017 -0.19509
    outer loop
      vertex -19.2293 -28.5 6
      vertex -19.2293 -1.5 6
      vertex -18.9074 -28.5 7.6185
    endloop
  endfacet
  facet normal 0 -0.707107 -0.707107
    outer loop
      vertex -10 -14.8579 30
      vertex -6.5 -14.8579 30
      vertex -10 -25.7868 40.9289
    endloop
  endfacet
  facet normal 0 -0.707107 -0.707107
    outer loop
      vertex -10 -25.7868 40.9289
      vertex -6.5 -14.8579 30
      vertex -6.5 -28.5 43.6421
    endloop
  endfacet
  facet normal 0 -0.707107 -0.707107
    outer loop
      vertex -10 -25.7868 40.9289
      vertex -6.5 -28.5 43.6421
      vertex -12.7132 -28.5 43.6421
    endloop
  endfacet
  facet normal 0.866025 -1.11022e-016 -0.5
    outer loop
      vertex -16.75 10.5 30
      vertex -15.875 10.5 31.5155
      vertex -15.875 8 31.5155
    endloop
  endfacet
  facet normal 0.866025 -1.11022e-016 -0.5
    outer loop
      vertex -16.75 8 30
      vertex -16.75 10.5 30
      vertex -15.875 8 31.5155
    endloop
  endfacet
  facet normal 0.866025 1.11022e-016 0.5
    outer loop
      vertex -15.875 8 28.4845
      vertex -15.875 10.5 28.4845
      vertex -16.75 10.5 30
    endloop
  endfacet
  facet normal 0.866025 1.11022e-016 0.5
    outer loop
      vertex -16.75 8 30
      vertex -15.875 8 28.4845
      vertex -16.75 10.5 30
    endloop
  endfacet
  facet normal 0 -2.22045e-016 -1
    outer loop
      vertex -14.125 10.5 31.5155
      vertex -14.125 8 31.5155
      vertex -15.875 10.5 31.5155
    endloop
  endfacet
  facet normal 0 -2.22045e-016 -1
    outer loop
      vertex -15.875 10.5 31.5155
      vertex -14.125 8 31.5155
      vertex -15.875 8 31.5155
    endloop
  endfacet
  facet normal -0.866025 -1.11022e-016 -0.5
    outer loop
      vertex -13.25 10.5 30
      vertex -13.25 8 30
      vertex -14.125 10.5 31.5155
    endloop
  endfacet
  facet normal -0.866025 -1.11022e-016 -0.5
    outer loop
      vertex -14.125 10.5 31.5155
      vertex -13.25 8 30
      vertex -14.125 8 31.5155
    endloop
  endfacet
  facet normal -0.866025 1.11022e-016 0.5
    outer loop
      vertex -13.25 10.5 30
      vertex -14.125 10.5 28.4845
      vertex -13.25 8 30
    endloop
  endfacet
  facet normal -0.866025 1.11022e-016 0.5
    outer loop
      vertex -13.25 8 30
      vertex -14.125 10.5 28.4845
      vertex -14.125 8 28.4845
    endloop
  endfacet
  facet normal 0 2.22045e-016 1
    outer loop
      vertex -14.125 8 28.4845
      vertex -14.125 10.5 28.4845
      vertex -15.875 10.5 28.4845
    endloop
  endfacet
  facet normal 0 2.22045e-016 1
    outer loop
      vertex -15.875 8 28.4845
      vertex -14.125 8 28.4845
      vertex -15.875 10.5 28.4845
    endloop
  endfacet
  facet normal -0.707107 0 -0.707107
    outer loop
      vertex -13.0711 -28.5 44
      vertex -13.0711 8 44
      vertex -12.7132 -28.5 43.6421
    endloop
  endfacet
  facet normal -0.707107 0 -0.707107
    outer loop
      vertex -12.7132 -28.5 43.6421
      vertex -13.0711 8 44
      vertex -10 8 40.9289
    endloop
  endfacet
  facet normal -0.707107 0 -0.707107
    outer loop
      vertex -12.7132 -28.5 43.6421
      vertex -10 8 40.9289
      vertex -10 -25.7868 40.9289
    endloop
  endfacet
  facet normal 0 0 -1
    outer loop
      vertex -13.0711 8 44
      vertex -13.0711 -28.5 44
      vertex -16.9289 8 44
    endloop
  endfacet
  facet normal 0 0 -1
    outer loop
      vertex -16.9289 8 44
      vertex -13.0711 -28.5 44
      vertex -16.9289 -28.5 44
    endloop
  endfacet
  facet normal 0.831469 -1.23361e-016 0.55557
    outer loop
      vertex -17.9906 -28.5 48.0094
      vertex -17.9906 -1.5 48.0094
      vertex -18.9074 -1.5 49.3815
    endloop
  endfacet
  facet normal 0.831469 -1.23361e-016 0.55557
    outer loop
      vertex -18.9074 -28.5 49.3815
      vertex -17.9906 -28.5 48.0094
      vertex -18.9074 -1.5 49.3815
    endloop
  endfacet
  facet normal 0.980785 -4.33187e-017 0.19509
    outer loop
      vertex -18.9074 -28.5 49.3815
      vertex -18.9074 -1.5 49.3815
      vertex -19.2293 -1.5 51
    endloop
  endfacet
  facet normal 0.980785 -4.33187e-017 0.19509
    outer loop
      vertex -19.2293 -28.5 51
      vertex -18.9074 -28.5 49.3815
      vertex -19.2293 -1.5 51
    endloop
  endfacet
  facet normal 0.55557 -1.84623e-016 0.831469
    outer loop
      vertex -16.6185 -28.5 47.0926
      vertex -16.6185 -1.5 47.0926
      vertex -17.9906 -1.5 48.0094
    endloop
  endfacet
  facet normal 0.55557 -1.84623e-016 0.831469
    outer loop
      vertex -17.9906 -28.5 48.0094
      vertex -16.6185 -28.5 47.0926
      vertex -17.9906 -1.5 48.0094
    endloop
  endfacet
  facet normal 0.19509 -2.17778e-016 0.980785
    outer loop
      vertex -15 -28.5 46.7707
      vertex -15 -1.5 46.7707
      vertex -16.6185 -1.5 47.0926
    endloop
  endfacet
  facet normal 0.19509 -2.17778e-016 0.980785
    outer loop
      vertex -16.6185 -28.5 47.0926
      vertex -15 -28.5 46.7707
      vertex -16.6185 -1.5 47.0926
    endloop
  endfacet
  facet normal -0.19509 -2.17778e-016 0.980785
    outer loop
      vertex -13.3815 -28.5 47.0926
      vertex -13.3815 -1.5 47.0926
      vertex -15 -1.5 46.7707
    endloop
  endfacet
  facet normal -0.19509 -2.17778e-016 0.980785
    outer loop
      vertex -15 -28.5 46.7707
      vertex -13.3815 -28.5 47.0926
      vertex -15 -1.5 46.7707
    endloop
  endfacet
  facet normal -0.55557 -1.84623e-016 0.831469
    outer loop
      vertex -12.0094 -28.5 48.0094
      vertex -12.0094 -1.5 48.0094
      vertex -13.3815 -1.5 47.0926
    endloop
  endfacet
  facet normal -0.55557 -1.84623e-016 0.831469
    outer loop
      vertex -13.3815 -28.5 47.0926
      vertex -12.0094 -28.5 48.0094
      vertex -13.3815 -1.5 47.0926
    endloop
  endfacet
  facet normal -0.831469 -1.23361e-016 0.55557
    outer loop
      vertex -11.0926 -1.5 49.3815
      vertex -12.0094 -1.5 48.0094
      vertex -11.0926 -28.5 49.3815
    endloop
  endfacet
  facet normal -0.831469 -1.23361e-016 0.55557
    outer loop
      vertex -11.0926 -28.5 49.3815
      vertex -12.0094 -1.5 48.0094
      vertex -12.0094 -28.5 48.0094
    endloop
  endfacet
  facet normal -0.980785 -4.33187e-017 0.19509
    outer loop
      vertex -10.7707 -1.5 51
      vertex -11.0926 -1.5 49.3815
      vertex -10.7707 -28.5 51
    endloop
  endfacet
  facet normal -0.980785 -4.33187e-017 0.19509
    outer loop
      vertex -10.7707 -28.5 51
      vertex -11.0926 -1.5 49.3815
      vertex -11.0926 -28.5 49.3815
    endloop
  endfacet
  facet normal -0.980785 4.33187e-017 -0.19509
    outer loop
      vertex -10.7707 -1.5 51
      vertex -10.7707 -28.5 51
      vertex -11.0926 -1.5 52.6185
    endloop
  endfacet
  facet normal -0.980785 4.33187e-017 -0.19509
    outer loop
      vertex -11.0926 -1.5 52.6185
      vertex -10.7707 -28.5 51
      vertex -11.0926 -28.5 52.6185
    endloop
  endfacet
  facet normal -0.831469 1.23361e-016 -0.55557
    outer loop
      vertex -11.0926 -1.5 52.6185
      vertex -11.0926 -28.5 52.6185
      vertex -12.0094 -1.5 53.9906
    endloop
  endfacet
  facet normal -0.831469 1.23361e-016 -0.55557
    outer loop
      vertex -12.0094 -1.5 53.9906
      vertex -11.0926 -28.5 52.6185
      vertex -12.0094 -28.5 53.9906
    endloop
  endfacet
  facet normal -0.55557 1.84623e-016 -0.831469
    outer loop
      vertex -12.0094 -1.5 53.9906
      vertex -12.0094 -28.5 53.9906
      vertex -12.8391 -1.5 54.545
    endloop
  endfacet
  facet normal -0.55557 1.84623e-016 -0.831469
    outer loop
      vertex -12.8391 -1.5 54.545
      vertex -12.0094 -28.5 53.9906
      vertex -12.8391 -28.5 54.545
    endloop
  endfacet
  facet normal -0.707107 1.57009e-016 -0.707107
    outer loop
      vertex -12.8391 -1.5 54.545
      vertex -12.8391 -28.5 54.545
      vertex -13.7441 -1.5 55.45
    endloop
  endfacet
  facet normal -0.707107 1.57009e-016 -0.707107
    outer loop
      vertex -13.7441 -1.5 55.45
      vertex -12.8391 -28.5 54.545
      vertex -13.7441 -28.5 55.45
    endloop
  endfacet
  facet normal 0 2.22045e-016 -1
    outer loop
      vertex -16.2559 -28.5 55.45
      vertex -16.2559 -1.5 55.45
      vertex -13.7441 -28.5 55.45
    endloop
  endfacet
  facet normal 0 2.22045e-016 -1
    outer loop
      vertex -13.7441 -28.5 55.45
      vertex -16.2559 -1.5 55.45
      vertex -13.7441 -1.5 55.45
    endloop
  endfacet
  facet normal 0.707107 1.57009e-016 -0.707107
    outer loop
      vertex -16.2559 -1.5 55.45
      vertex -16.2559 -28.5 55.45
      vertex -17.1609 -1.5 54.545
    endloop
  endfacet
  facet normal 0.707107 1.57009e-016 -0.707107
    outer loop
      vertex -17.1609 -1.5 54.545
      vertex -16.2559 -28.5 55.45
      vertex -17.1609 -28.5 54.545
    endloop
  endfacet
  facet normal 0.55557 1.84623e-016 -0.831469
    outer loop
      vertex -17.1609 -1.5 54.545
      vertex -17.1609 -28.5 54.545
      vertex -17.9906 -1.5 53.9906
    endloop
  endfacet
  facet normal 0.55557 1.84623e-016 -0.831469
    outer loop
      vertex -17.9906 -1.5 53.9906
      vertex -17.1609 -28.5 54.545
      vertex -17.9906 -28.5 53.9906
    endloop
  endfacet
  facet normal 0.831469 1.23361e-016 -0.55557
    outer loop
      vertex -18.9074 -1.5 52.6185
      vertex -17.9906 -1.5 53.9906
      vertex -17.9906 -28.5 53.9906
    endloop
  endfacet
  facet normal 0.831469 1.23361e-016 -0.55557
    outer loop
      vertex -18.9074 -28.5 52.6185
      vertex -18.9074 -1.5 52.6185
      vertex -17.9906 -28.5 53.9906
    endloop
  endfacet
  facet normal 0.980785 4.33187e-017 -0.19509
    outer loop
      vertex -19.2293 -1.5 51
      vertex -18.9074 -1.5 52.6185
      vertex -18.9074 -28.5 52.6185
    endloop
  endfacet
  facet normal 0.980785 4.33187e-017 -0.19509
    outer loop
      vertex -19.2293 -28.5 51
      vertex -19.2293 -1.5 51
      vertex -18.9074 -28.5 52.6185
    endloop
  endfacet
  facet normal 0 -1 0
    outer loop
      vertex -16.9289 8 16
      vertex -13.0711 8 16
      vertex -10 8 19.0711
    endloop
  endfacet
  facet normal 0 -1 0
    outer loop
      vertex -13.25 8 30
      vertex -16.9289 8 16
      vertex -10 8 40.9289
    endloop
  endfacet
  facet normal 0 -1 0
    outer loop
      vertex -10 8 40.9289
      vertex -16.9289 8 16
      vertex -10 8 19.0711
    endloop
  endfacet
  facet normal 0 -1 0
    outer loop
      vertex -14.125 8 28.4845
      vertex -15.875 8 28.4845
      vertex -16.9289 8 16
    endloop
  endfacet
  facet normal 0 -1 0
    outer loop
      vertex -20 8 40.9289
      vertex -16.9289 8 16
      vertex -16.9289 8 44
    endloop
  endfacet
  facet normal 0 -1 0
    outer loop
      vertex -20 8 19.0711
      vertex -16.9289 8 16
      vertex -20 8 40.9289
    endloop
  endfacet
  facet normal 0 -1 0
    outer loop
      vertex -16.9289 8 44
      vertex -16.75 8 30
      vertex -13.0711 8 44
    endloop
  endfacet
  facet normal 0 -1 0
    outer loop
      vertex -16.9289 8 44
      vertex -16.9289 8 16
      vertex -16.75 8 30
    endloop
  endfacet
  facet normal 0 -1 0
    outer loop
      vertex -16.75 8 30
      vertex -15.875 8 31.5155
      vertex -13.0711 8 44
    endloop
  endfacet
  facet normal 0 -1 0
    outer loop
      vertex -13.0711 8 44
      vertex -14.125 8 31.5155
      vertex -10 8 40.9289
    endloop
  endfacet
  facet normal 0 -1 0
    outer loop
      vertex -14.125 8 31.5155
      vertex -13.25 8 30
      vertex -10 8 40.9289
    endloop
  endfacet
  facet normal 0 -1 0
    outer loop
      vertex -14.125 8 28.4845
      vertex -16.9289 8 16
      vertex -13.25 8 30
    endloop
  endfacet
  facet normal 0 -1 0
    outer loop
      vertex -15.875 8 28.4845
      vertex -16.75 8 30
      vertex -16.9289 8 16
    endloop
  endfacet
  facet normal 0 -1 0
    outer loop
      vertex -15.875 8 31.5155
      vertex -14.125 8 31.5155
      vertex -13.0711 8 44
    endloop
  endfacet
  facet normal -1 0 0
    outer loop
      vertex -10 8 19.0711
      vertex -10 -25.7868 19.0711
      vertex -10 8 40.9289
    endloop
  endfacet
  facet normal -1 0 0
    outer loop
      vertex -10 8 40.9289
      vertex -10 -25.7868 19.0711
      vertex -10 -14.8579 30
    endloop
  endfacet
  facet normal -1 0 0
    outer loop
      vertex -10 8 40.9289
      vertex -10 -14.8579 30
      vertex -10 -25.7868 40.9289
    endloop
  endfacet
  facet normal 0 -1 -2.22045e-016
    outer loop
      vertex -18.9074 -1.5 4.3815
      vertex -17.9906 -1.5 3.0094
      vertex -16.6185 -1.5 2.0926
    endloop
  endfacet
  facet normal 0 -1 -2.22045e-016
    outer loop
      vertex -13.3815 -1.5 2.0926
      vertex -18.9074 -1.5 4.3815
      vertex -15 -1.5 1.77066
    endloop
  endfacet
  facet normal 0 -1 -2.22045e-016
    outer loop
      vertex -15 -1.5 1.77066
      vertex -18.9074 -1.5 4.3815
      vertex -16.6185 -1.5 2.0926
    endloop
  endfacet
  facet normal 0 -1 -2.22045e-016
    outer loop
      vertex -12.0094 -1.5 3.0094
      vertex -18.9074 -1.5 4.3815
      vertex -13.3815 -1.5 2.0926
    endloop
  endfacet
  facet normal 0 -1 -2.22045e-016
    outer loop
      vertex -11.0926 -1.5 4.3815
      vertex -18.9074 -1.5 4.3815
      vertex -12.0094 -1.5 3.0094
    endloop
  endfacet
  facet normal 0 -1 -2.22045e-016
    outer loop
      vertex -10.7707 -1.5 6
      vertex -18.9074 -1.5 4.3815
      vertex -11.0926 -1.5 4.3815
    endloop
  endfacet
  facet normal 0 -1 -2.22045e-016
    outer loop
      vertex -11.0926 -1.5 7.6185
      vertex -18.9074 -1.5 4.3815
      vertex -10.7707 -1.5 6
    endloop
  endfacet
  facet normal 0 -1 -2.22045e-016
    outer loop
      vertex -12.0094 -1.5 8.9906
      vertex -18.9074 -1.5 4.3815
      vertex -11.0926 -1.5 7.6185
    endloop
  endfacet
  facet normal 0 -1 -2.22045e-016
    outer loop
      vertex -12.8391 -1.5 9.54498
      vertex -18.9074 -1.5 4.3815
      vertex -12.0094 -1.5 8.9906
    endloop
  endfacet
  facet normal 0 -1 -2.22045e-016
    outer loop
      vertex -13.7441 -1.5 10.45
      vertex -18.9074 -1.5 4.3815
      vertex -12.8391 -1.5 9.54498
    endloop
  endfacet
  facet normal 0 -1 -2.22045e-016
    outer loop
      vertex -16.2559 -1.5 10.45
      vertex -18.9074 -1.5 4.3815
      vertex -13.7441 -1.5 10.45
    endloop
  endfacet
  facet normal 0 -1 -2.22045e-016
    outer loop
      vertex -17.1609 -1.5 9.54498
      vertex -18.9074 -1.5 4.3815
      vertex -16.2559 -1.5 10.45
    endloop
  endfacet
  facet normal 0 -1 -2.22045e-016
    outer loop
      vertex -17.9906 -1.5 8.9906
      vertex -18.9074 -1.5 4.3815
      vertex -17.1609 -1.5 9.54498
    endloop
  endfacet
  facet normal 0 -1 -2.22045e-016
    outer loop
      vertex -18.9074 -1.5 7.6185
      vertex -18.9074 -1.5 4.3815
      vertex -17.9906 -1.5 8.9906
    endloop
  endfacet
  facet normal 0 -1 -2.22045e-016
    outer loop
      vertex -19.2293 -1.5 6
      vertex -18.9074 -1.5 4.3815
      vertex -18.9074 -1.5 7.6185
    endloop
  endfacet
  facet normal 0 -1 -2.22045e-016
    outer loop
      vertex -18.9074 -1.5 49.3815
      vertex -17.9906 -1.5 48.0094
      vertex -16.6185 -1.5 47.0926
    endloop
  endfacet
  facet normal 0 -1 -2.22045e-016
    outer loop
      vertex -13.3815 -1.5 47.0926
      vertex -18.9074 -1.5 49.3815
      vertex -15 -1.5 46.7707
    endloop
  endfacet
  facet normal 0 -1 -2.22045e-016
    outer loop
      vertex -15 -1.5 46.7707
      vertex -18.9074 -1.5 49.3815
      vertex -16.6185 -1.5 47.0926
    endloop
  endfacet
  facet normal 0 -1 -2.22045e-016
    outer loop
      vertex -12.0094 -1.5 48.0094
      vertex -18.9074 -1.5 49.3815
      vertex -13.3815 -1.5 47.0926
    endloop
  endfacet
  facet normal 0 -1 -2.22045e-016
    outer loop
      vertex -11.0926 -1.5 49.3815
      vertex -18.9074 -1.5 49.3815
      vertex -12.0094 -1.5 48.0094
    endloop
  endfacet
  facet normal 0 -1 -2.22045e-016
    outer loop
      vertex -10.7707 -1.5 51
      vertex -18.9074 -1.5 49.3815
      vertex -11.0926 -1.5 49.3815
    endloop
  endfacet
  facet normal 0 -1 -2.22045e-016
    outer loop
      vertex -11.0926 -1.5 52.6185
      vertex -18.9074 -1.5 49.3815
      vertex -10.7707 -1.5 51
    endloop
  endfacet
  facet normal 0 -1 -2.22045e-016
    outer loop
      vertex -12.0094 -1.5 53.9906
      vertex -18.9074 -1.5 49.3815
      vertex -11.0926 -1.5 52.6185
    endloop
  endfacet
  facet normal 0 -1 -2.22045e-016
    outer loop
      vertex -12.8391 -1.5 54.545
      vertex -18.9074 -1.5 49.3815
      vertex -12.0094 -1.5 53.9906
    endloop
  endfacet
  facet normal 0 -1 -2.22045e-016
    outer loop
      vertex -13.7441 -1.5 55.45
      vertex -18.9074 -1.5 49.3815
      vertex -12.8391 -1.5 54.545
    endloop
  endfacet
  facet normal 0 -1 -2.22045e-016
    outer loop
      vertex -16.2559 -1.5 55.45
      vertex -18.9074 -1.5 49.3815
      vertex -13.7441 -1.5 55.45
    endloop
  endfacet
  facet normal 0 -1 -2.22045e-016
    outer loop
      vertex -17.1609 -1.5 54.545
      vertex -18.9074 -1.5 49.3815
      vertex -16.2559 -1.5 55.45
    endloop
  endfacet
  facet normal 0 -1 -2.22045e-016
    outer loop
      vertex -17.9906 -1.5 53.9906
      vertex -18.9074 -1.5 49.3815
      vertex -17.1609 -1.5 54.545
    endloop
  endfacet
  facet normal 0 -1 -2.22045e-016
    outer loop
      vertex -18.9074 -1.5 52.6185
      vertex -18.9074 -1.5 49.3815
      vertex -17.9906 -1.5 53.9906
    endloop
  endfacet
  facet normal 0 -1 -2.22045e-016
    outer loop
      vertex -19.2293 -1.5 51
      vertex -18.9074 -1.5 49.3815
      vertex -18.9074 -1.5 52.6185
    endloop
  endfacet
endsolid OpenSCAD_Model
